# 3ds Max Wavefront OBJ Exporter v0.97b - (c)2007 guruware
# File Created: 12.06.2020 01:50:28

mtllib 20x10x4_Lowpoly.mtl

#
# object 20x10x4_Lowpoly
#

v  -5.0000 -2.0000 10.0000
v  -5.0000 -2.0000 -10.0000
v  5.0000 -2.0000 -10.0000
v  5.0000 -2.0000 10.0000
v  -5.0000 2.0000 10.0000
v  5.0000 2.0000 10.0000
v  5.0000 2.0000 -10.0000
v  -5.0000 2.0000 -10.0000
# 8 vertices

vn -0.5774 -0.5774 0.5774
vn -0.5774 -0.5774 -0.5774
vn 0.5774 -0.5774 -0.5774
vn 0.5774 -0.5774 0.5774
vn -0.5774 0.5774 0.5774
vn 0.5774 0.5774 0.5774
vn 0.5774 0.5774 -0.5774
vn -0.5774 0.5774 -0.5774
# 8 vertex normals

vt 0.3573 0.1432 0.0000
vt 0.3573 0.8568 0.0000
vt 0.0005 0.8568 0.0000
vt 0.0005 0.1432 0.0000
vt 0.5000 0.1432 0.0000
vt 0.8568 0.1432 0.0000
vt 0.8568 0.8568 0.0000
vt 0.5000 0.8568 0.0000
vt 0.5000 0.0005 0.0000
vt 0.8568 0.0005 0.0000
vt 0.9995 0.1432 0.0000
vt 0.9995 0.8568 0.0000
vt 0.8568 0.9995 0.0000
vt 0.5000 0.9995 0.0000
# 14 texture coords

o 20x10x4_Lowpoly
g 20x10x4_Lowpoly
usemtl wire_061135006
s 2
f 1/1/1 2/2/2 3/3/3 4/4/4 
s 4
f 5/5/5 6/6/6 7/7/7 8/8/8 
s 8
f 1/9/1 4/10/4 6/6/6 5/5/5 
s 16
f 4/11/4 3/12/3 7/7/7 6/6/6 
s 32
f 3/13/3 2/14/2 8/8/8 7/7/7 
s 64
f 2/2/2 1/1/1 5/5/5 8/8/8 
# 6 polygons

