# 3ds Max Wavefront OBJ Exporter v0.97b - (c)2007 guruware
# File Created: 28.05.2020 10:42:33

mtllib StonePillar01_Lowpoly.mtl

#
# object StonePilars01_Lowpoly
#

v  54.2749 0.0000 17.7001
v  46.2630 0.0000 33.4245
v  33.7841 0.0000 45.9034
v  18.0597 0.0000 53.9154
v  0.6291 0.0000 56.6762
v  -16.8015 0.0000 53.9154
v  -32.5258 0.0000 45.9035
v  -45.0048 0.0000 33.4246
v  -53.0167 0.0000 17.7002
v  -55.7775 0.0000 0.2696
v  -53.0167 0.0000 -17.1610
v  -45.0048 0.0000 -32.8853
v  -32.5259 0.0000 -45.3643
v  -16.8015 0.0000 -53.3762
v  0.6291 0.0000 -56.1370
v  18.0597 0.0000 -53.3762
v  33.7840 0.0000 -45.3643
v  46.2629 0.0000 -32.8853
v  54.2749 0.0000 -17.1610
v  57.0356 0.0000 0.2696
v  56.7938 3.2480 -17.9794
v  56.7938 154.2323 -17.9794
v  59.6842 154.2323 0.2696
v  59.6842 3.2480 0.2696
v  48.4057 3.2480 -34.4421
v  48.4057 154.2323 -34.4421
v  35.3408 3.2480 -47.5070
v  35.3408 154.2323 -47.5070
v  18.8781 3.2480 -55.8952
v  18.8781 154.2323 -55.8952
v  0.6291 3.2480 -58.7855
v  0.6291 154.2323 -58.7855
v  -17.6200 3.2480 -55.8952
v  -17.6200 154.2323 -55.8952
v  -34.0826 3.2480 -47.5070
v  -34.0826 154.2323 -47.5070
v  -47.1475 3.2480 -34.4421
v  -47.1475 154.2323 -34.4421
v  -55.5357 3.2480 -17.9794
v  -55.5357 154.2323 -17.9794
v  -58.4260 3.2480 0.2696
v  -58.4260 154.2323 0.2696
v  -55.5357 3.2480 18.5187
v  -55.5357 154.2323 18.5187
v  -47.1475 3.2480 34.9814
v  -47.1475 154.2323 34.9814
v  -34.0826 3.2480 48.0462
v  -34.0826 154.2323 48.0462
v  -17.6199 3.2480 56.4344
v  -17.6199 154.2323 56.4344
v  0.6291 3.2480 59.3247
v  0.6291 154.2323 59.3247
v  18.8782 3.2480 56.4343
v  18.8782 154.2323 56.4343
v  35.3409 3.2480 48.0462
v  35.3409 154.2323 48.0462
v  48.4057 3.2480 34.9813
v  48.4057 154.2323 34.9813
v  56.7939 3.2480 18.5186
v  56.7939 154.2323 18.5186
v  54.2749 157.4803 17.7001
v  57.0356 157.4803 0.2696
v  54.2749 157.4803 -17.1610
v  46.2629 157.4803 -32.8853
v  33.7840 157.4803 -45.3643
v  18.0597 157.4803 -53.3762
v  0.6291 157.4803 -56.1370
v  -16.8015 157.4803 -53.3762
v  -32.5259 157.4803 -45.3643
v  -45.0048 157.4803 -32.8853
v  -53.0167 157.4803 -17.1610
v  -55.7775 157.4803 0.2696
v  -53.0167 157.4803 17.7002
v  -45.0048 157.4803 33.4246
v  -32.5258 157.4803 45.9035
v  -16.8015 157.4803 53.9154
v  0.6291 157.4803 56.6762
v  18.0597 157.4803 53.9154
v  33.7841 157.4803 45.9034
v  46.2630 157.4803 33.4245
# 80 vertices

vn 0.4400 -0.8865 0.1430
vn 0.3743 -0.8865 0.2720
vn 0.2720 -0.8865 0.3743
vn 0.1430 -0.8865 0.4400
vn 0.0000 -0.8865 0.4627
vn -0.1430 -0.8865 0.4400
vn -0.2720 -0.8865 0.3743
vn -0.3743 -0.8865 0.2720
vn -0.4400 -0.8865 0.1430
vn -0.4627 -0.8865 0.0000
vn -0.4400 -0.8865 -0.1430
vn -0.3743 -0.8865 -0.2720
vn -0.2720 -0.8865 -0.3743
vn -0.1430 -0.8865 -0.4400
vn -0.0000 -0.8865 -0.4627
vn 0.1430 -0.8865 -0.4400
vn 0.2720 -0.8865 -0.3743
vn 0.3743 -0.8865 -0.2720
vn 0.4400 -0.8865 -0.1430
vn 0.4627 -0.8865 -0.0000
vn 0.8993 -0.3253 -0.2922
vn 0.8993 0.3253 -0.2922
vn 0.9456 0.3253 -0.0000
vn 0.9456 -0.3253 -0.0000
vn 0.7650 -0.3253 -0.5558
vn 0.7650 0.3253 -0.5558
vn 0.5558 -0.3253 -0.7650
vn 0.5558 0.3253 -0.7650
vn 0.2922 -0.3253 -0.8993
vn 0.2922 0.3253 -0.8993
vn 0.0000 -0.3253 -0.9456
vn 0.0000 0.3253 -0.9456
vn -0.2922 -0.3253 -0.8993
vn -0.2922 0.3253 -0.8993
vn -0.5558 -0.3253 -0.7650
vn -0.5558 0.3253 -0.7650
vn -0.7650 -0.3253 -0.5558
vn -0.7650 0.3253 -0.5558
vn -0.8993 -0.3253 -0.2922
vn -0.8993 0.3253 -0.2922
vn -0.9456 -0.3253 -0.0000
vn -0.9456 0.3253 -0.0000
vn -0.8993 -0.3253 0.2922
vn -0.8993 0.3253 0.2922
vn -0.7650 -0.3253 0.5558
vn -0.7650 0.3253 0.5558
vn -0.5558 -0.3253 0.7650
vn -0.5558 0.3253 0.7650
vn -0.2922 -0.3253 0.8993
vn -0.2922 0.3253 0.8993
vn 0.0000 -0.3253 0.9456
vn 0.0000 0.3253 0.9456
vn 0.2922 -0.3253 0.8993
vn 0.2922 0.3253 0.8993
vn 0.5558 -0.3253 0.7650
vn 0.5558 0.3253 0.7650
vn 0.7650 -0.3253 0.5558
vn 0.7650 0.3253 0.5558
vn 0.8993 -0.3253 0.2922
vn 0.8993 0.3253 0.2922
vn 0.4400 0.8865 0.1430
vn 0.4627 0.8865 -0.0000
vn 0.4400 0.8865 -0.1430
vn 0.3743 0.8865 -0.2720
vn 0.2720 0.8865 -0.3743
vn 0.1430 0.8865 -0.4400
vn -0.0000 0.8865 -0.4627
vn -0.1430 0.8865 -0.4400
vn -0.2720 0.8865 -0.3743
vn -0.3743 0.8865 -0.2720
vn -0.4400 0.8865 -0.1430
vn -0.4627 0.8865 0.0000
vn -0.4400 0.8865 0.1430
vn -0.3743 0.8865 0.2720
vn -0.2720 0.8865 0.3743
vn -0.1430 0.8865 0.4400
vn 0.0000 0.8865 0.4627
vn 0.1430 0.8865 0.4400
vn 0.2720 0.8865 0.3743
vn 0.3743 0.8865 0.2720
# 80 vertex normals

vt 0.9849 0.5682 0.0000
vt 0.9611 0.5215 0.0000
vt 0.9240 0.4844 0.0000
vt 0.8773 0.4606 0.0000
vt 0.8255 0.4524 0.0000
vt 0.7736 0.4606 0.0000
vt 0.7269 0.4844 0.0000
vt 0.6898 0.5215 0.0000
vt 0.6660 0.5682 0.0000
vt 0.6578 0.6200 0.0000
vt 0.6660 0.6718 0.0000
vt 0.6898 0.7186 0.0000
vt 0.7269 0.7557 0.0000
vt 0.7736 0.7795 0.0000
vt 0.8255 0.7877 0.0000
vt 0.8773 0.7795 0.0000
vt 0.9240 0.7557 0.0000
vt 0.9611 0.7186 0.0000
vt 0.9849 0.6718 0.0000
vt 0.9931 0.6200 0.0000
vt 0.0505 0.0098 0.0000
vt 0.0505 0.4408 0.0000
vt 0.0005 0.4408 0.0000
vt 0.0005 0.0098 0.0000
vt 0.1004 0.0098 -0.0000
vt 0.1004 0.4408 -0.0000
vt 0.1504 0.0098 0.0000
vt 0.1504 0.4408 0.0000
vt 0.2003 0.0098 0.0000
vt 0.2003 0.4408 0.0000
vt 0.2503 0.0098 0.0000
vt 0.2503 0.4408 0.0000
vt 0.3002 0.0098 -0.0000
vt 0.3002 0.4408 -0.0000
vt 0.3501 0.0098 -0.0000
vt 0.3501 0.4408 -0.0000
vt 0.4001 0.0098 0.0000
vt 0.4001 0.4408 0.0000
vt 0.4501 0.0098 0.0000
vt 0.4501 0.4408 0.0000
vt 0.5000 0.0098 0.0000
vt 0.5000 0.4408 0.0000
vt 0.5500 0.0098 0.0000
vt 0.5500 0.4408 0.0000
vt 0.5999 0.0098 -0.0000
vt 0.5999 0.4408 -0.0000
vt 0.6499 0.0098 0.0000
vt 0.6499 0.4408 0.0000
vt 0.6998 0.0098 0.0000
vt 0.6998 0.4408 0.0000
vt 0.7498 0.0098 0.0000
vt 0.7498 0.4408 0.0000
vt 0.7997 0.0098 -0.0000
vt 0.7997 0.4408 -0.0000
vt 0.8497 0.0098 0.0000
vt 0.8497 0.4408 0.0000
vt 0.8996 0.0098 0.0000
vt 0.8996 0.4408 0.0000
vt 0.9496 0.0098 -0.0000
vt 0.9496 0.4408 -0.0000
vt 0.9995 0.0098 0.0000
vt 0.9995 0.4408 0.0000
vt 0.3276 0.5682 0.0000
vt 0.3358 0.6200 0.0000
vt 0.3276 0.6718 0.0000
vt 0.3038 0.7186 0.0000
vt 0.2667 0.7557 0.0000
vt 0.2199 0.7795 0.0000
vt 0.1681 0.7877 0.0000
vt 0.1163 0.7795 0.0000
vt 0.0696 0.7557 0.0000
vt 0.0325 0.7186 0.0000
vt 0.0087 0.6718 0.0000
vt 0.0005 0.6200 0.0000
vt 0.0087 0.5682 0.0000
vt 0.0325 0.5215 0.0000
vt 0.0696 0.4844 0.0000
vt 0.1163 0.4606 0.0000
vt 0.1681 0.4524 0.0000
vt 0.2199 0.4606 0.0000
vt 0.2667 0.4844 0.0000
vt 0.3038 0.5215 0.0000
vt 0.0505 0.4501 0.0000
vt 0.0005 0.4501 0.0000
vt 0.0005 0.0005 0.0000
vt 0.0505 0.0005 0.0000
vt 0.1004 0.4501 -0.0000
vt 0.1004 0.0005 -0.0000
vt 0.1504 0.4501 0.0000
vt 0.1504 0.0005 0.0000
vt 0.2003 0.4501 0.0000
vt 0.2003 0.0005 0.0000
vt 0.2503 0.4501 0.0000
vt 0.2503 0.0005 0.0000
vt 0.3002 0.4501 -0.0000
vt 0.3002 0.0005 -0.0000
vt 0.3501 0.4501 -0.0000
vt 0.3501 0.0005 -0.0000
vt 0.4001 0.4501 0.0000
vt 0.4001 0.0005 0.0000
vt 0.4501 0.4501 0.0000
vt 0.4501 0.0005 0.0000
vt 0.5000 0.4501 0.0000
vt 0.5000 0.0005 0.0000
vt 0.5500 0.4501 0.0000
vt 0.5500 0.0005 0.0000
vt 0.5999 0.4501 -0.0000
vt 0.5999 0.0005 -0.0000
vt 0.6499 0.4501 0.0000
vt 0.6499 0.0005 0.0000
vt 0.6998 0.4501 0.0000
vt 0.6998 0.0005 0.0000
vt 0.7498 0.4501 0.0000
vt 0.7498 0.0005 0.0000
vt 0.7997 0.4501 -0.0000
vt 0.7997 0.0005 -0.0000
vt 0.8497 0.4501 0.0000
vt 0.8497 0.0005 0.0000
vt 0.8996 0.4501 0.0000
vt 0.8996 0.0005 0.0000
vt 0.9496 0.4501 -0.0000
vt 0.9496 0.0005 -0.0000
vt 0.9995 0.4501 0.0000
vt 0.9995 0.0005 0.0000
# 124 texture coords

o StonePilars01_Lowpoly
g StonePilars01_Lowpoly
usemtl wire_087225143
s 1
f 1/1/1 2/2/2 3/3/3 4/4/4 5/5/5 6/6/6 7/7/7 8/8/8 9/9/9 10/10/10 11/11/11 12/12/12 13/13/13 14/14/14 15/15/15 16/16/16 17/17/17 18/18/18 19/19/19 20/20/20 
s 8
f 21/21/21 22/22/22 23/23/23 24/24/24 
f 25/25/25 26/26/26 22/22/22 21/21/21 
f 27/27/27 28/28/28 26/26/26 25/25/25 
f 29/29/29 30/30/30 28/28/28 27/27/27 
f 31/31/31 32/32/32 30/30/30 29/29/29 
f 33/33/33 34/34/34 32/32/32 31/31/31 
f 35/35/35 36/36/36 34/34/34 33/33/33 
f 37/37/37 38/38/38 36/36/36 35/35/35 
f 39/39/39 40/40/40 38/38/38 37/37/37 
f 41/41/41 42/42/42 40/40/40 39/39/39 
f 43/43/43 44/44/44 42/42/42 41/41/41 
f 45/45/45 46/46/46 44/44/44 43/43/43 
f 47/47/47 48/48/48 46/46/46 45/45/45 
f 49/49/49 50/50/50 48/48/48 47/47/47 
f 51/51/51 52/52/52 50/50/50 49/49/49 
f 53/53/53 54/54/54 52/52/52 51/51/51 
f 55/55/55 56/56/56 54/54/54 53/53/53 
f 57/57/57 58/58/58 56/56/56 55/55/55 
f 59/59/59 60/60/60 58/58/58 57/57/57 
f 24/61/24 23/62/23 60/60/60 59/59/59 
s 1
f 61/63/61 62/64/62 63/65/63 64/66/64 65/67/65 66/68/66 67/69/67 68/70/68 69/71/69 70/72/70 71/73/71 72/74/72 73/75/73 74/76/74 75/77/75 76/78/76 77/79/77 78/80/78 79/81/79 80/82/80 
s 8
f 22/22/22 63/83/63 62/84/62 23/23/23 
f 24/24/24 20/85/20 19/86/19 21/21/21 
f 26/26/26 64/87/64 63/83/63 22/22/22 
f 21/21/21 19/86/19 18/88/18 25/25/25 
f 28/28/28 65/89/65 64/87/64 26/26/26 
f 25/25/25 18/88/18 17/90/17 27/27/27 
f 30/30/30 66/91/66 65/89/65 28/28/28 
f 27/27/27 17/90/17 16/92/16 29/29/29 
f 32/32/32 67/93/67 66/91/66 30/30/30 
f 29/29/29 16/92/16 15/94/15 31/31/31 
f 34/34/34 68/95/68 67/93/67 32/32/32 
f 31/31/31 15/94/15 14/96/14 33/33/33 
f 36/36/36 69/97/69 68/95/68 34/34/34 
f 33/33/33 14/96/14 13/98/13 35/35/35 
f 38/38/38 70/99/70 69/97/69 36/36/36 
f 35/35/35 13/98/13 12/100/12 37/37/37 
f 40/40/40 71/101/71 70/99/70 38/38/38 
f 37/37/37 12/100/12 11/102/11 39/39/39 
f 42/42/42 72/103/72 71/101/71 40/40/40 
f 39/39/39 11/102/11 10/104/10 41/41/41 
f 44/44/44 73/105/73 72/103/72 42/42/42 
f 41/41/41 10/104/10 9/106/9 43/43/43 
f 46/46/46 74/107/74 73/105/73 44/44/44 
f 43/43/43 9/106/9 8/108/8 45/45/45 
f 48/48/48 75/109/75 74/107/74 46/46/46 
f 45/45/45 8/108/8 7/110/7 47/47/47 
f 50/50/50 76/111/76 75/109/75 48/48/48 
f 47/47/47 7/110/7 6/112/6 49/49/49 
f 52/52/52 77/113/77 76/111/76 50/50/50 
f 49/49/49 6/112/6 5/114/5 51/51/51 
f 54/54/54 78/115/78 77/113/77 52/52/52 
f 51/51/51 5/114/5 4/116/4 53/53/53 
f 56/56/56 79/117/79 78/115/78 54/54/54 
f 53/53/53 4/116/4 3/118/3 55/55/55 
f 58/58/58 80/119/80 79/117/79 56/56/56 
f 55/55/55 3/118/3 2/120/2 57/57/57 
f 60/60/60 61/121/61 80/119/80 58/58/58 
f 57/57/57 2/120/2 1/122/1 59/59/59 
f 23/62/23 62/123/62 61/121/61 60/60/60 
f 59/59/59 1/122/1 20/124/20 24/61/24 
# 62 polygons

