# 3ds Max Wavefront OBJ Exporter v0.97b - (c)2007 guruware
# File Created: 17.07.2020 21:50:54

mtllib BulletinBoard_Paper06.mtl

#
# object BulletinBoard_Paper06
#

v  2.2591 -0.1976 -0.2435
v  -2.2591 0.1977 -0.2435
v  -2.3250 -0.5554 -0.1323
v  2.1932 -0.9507 -0.1323
v  2.4567 2.0615 -0.3247
v  -2.0614 2.4567 -0.3247
v  -2.1273 1.7037 -0.3217
v  2.3909 1.3084 -0.3217
v  -2.1932 0.9507 -0.3006
v  2.3250 0.5554 -0.3006
v  -2.4567 -2.0614 0.3247
v  2.0614 -2.4567 0.3247
v  2.1273 -1.7037 0.0511
v  -2.3908 -1.3084 0.0511
v  0.2095 1.8968 -0.3055
v  0.3688 2.0125 -0.3055
v  0.4064 1.8968 -0.3055
v  0.2704 2.0840 -0.3055
v  0.1487 2.0840 -0.3055
v  0.0503 2.0125 -0.3055
v  0.0127 1.8968 -0.3055
v  0.0503 1.7811 -0.3055
v  0.1487 1.7096 -0.3055
v  0.2704 1.7096 -0.3055
v  0.3688 1.7811 -0.3055
v  0.3210 1.9778 -0.0102
v  0.3473 1.8968 -0.0102
v  0.2521 2.0279 -0.0102
v  0.1670 2.0279 -0.0102
v  0.0981 1.9778 -0.0102
v  0.0717 1.8968 -0.0102
v  0.0981 1.8158 -0.0102
v  0.1670 1.7658 -0.0102
v  0.2521 1.7658 -0.0102
v  0.3210 1.8158 -0.0102
v  0.3210 1.9778 0.2851
v  0.3473 1.8968 0.2851
v  0.2521 2.0279 0.2851
v  0.1670 2.0279 0.2851
v  0.0981 1.9778 0.2851
v  0.0717 1.8968 0.2851
v  0.0981 1.8158 0.2851
v  0.1670 1.7658 0.2851
v  0.2521 1.7658 0.2851
v  0.3210 1.8158 0.2851
v  0.2095 1.8968 0.2851
# 46 vertices

vn 0.0096 0.1101 0.9939
vn 0.0166 0.1901 0.9816
vn 0.0003 0.0040 1.0000
vn 0.0014 0.0159 0.9999
vn 0.0045 0.0514 0.9987
vn 0.0297 0.3391 0.9403
vn 0.0251 0.2874 0.9575
vn 0.0000 0.0000 -1.0000
vn 0.6657 0.4836 -0.5683
vn 0.8229 -0.0000 -0.5682
vn 0.2543 0.7825 -0.5683
vn -0.2543 0.7825 -0.5683
vn -0.6657 0.4836 -0.5683
vn -0.8228 -0.0000 -0.5683
vn -0.6657 -0.4836 -0.5683
vn -0.2543 -0.7826 -0.5682
vn 0.2543 -0.7826 -0.5682
vn 0.6657 -0.4836 -0.5683
vn 0.8051 0.5846 0.1005
vn 0.9949 0.0000 0.1006
vn 0.3076 0.9462 0.1004
vn -0.3076 0.9462 0.1004
vn -0.8048 0.5850 0.1005
vn -0.9949 0.0000 0.1004
vn -0.8045 -0.5854 0.1005
vn -0.3072 -0.9463 0.1006
vn 0.3072 -0.9463 0.1006
vn 0.8048 -0.5850 0.1005
vn 0.6192 0.4496 0.6437
vn 0.7652 0.0000 0.6438
vn 0.2366 0.7278 0.6437
vn -0.2366 0.7278 0.6437
vn -0.6189 0.4499 0.6438
vn -0.7654 0.0000 0.6436
vn -0.6188 -0.4502 0.6437
vn -0.2363 -0.7278 0.6438
vn 0.2363 -0.7278 0.6438
vn 0.6191 -0.4500 0.6436
vn 0.0000 0.0000 1.0000
# 39 vertex normals

vt 0.8825 0.4432 0.0000
vt 0.0024 0.4432 0.0000
vt 0.0020 0.2968 0.0000
vt 0.8817 0.2964 0.0000
vt 0.8829 0.8802 0.0000
vt 0.0032 0.8806 0.0000
vt 0.0032 0.7349 0.0000
vt 0.8829 0.7349 0.0000
vt 0.0028 0.5893 0.0000
vt 0.8825 0.5893 0.0000
vt 0.0005 0.0009 0.0000
vt 0.8802 0.0005 0.0000
vt 0.8813 0.1492 0.0000
vt 0.0017 0.1492 0.0000
vt 0.9238 0.0369 0.0000
vt 0.8928 0.0591 0.0000
vt 0.8856 0.0369 0.0000
vt 0.9121 0.0730 0.0000
vt 0.9355 0.0730 0.0000
vt 0.9545 0.0591 0.0000
vt 0.9617 0.0369 0.0000
vt 0.9545 0.0143 0.0000
vt 0.9355 0.0005 0.0000
vt 0.9121 0.0005 0.0000
vt 0.8928 0.0143 0.0000
vt 0.0200 0.8856 0.0787
vt 0.0200 0.9424 -0.0873
vt 0.0005 0.9424 -0.0941
vt 0.0005 0.8856 0.0688
vt 0.0388 0.8856 0.0941
vt 0.0388 0.9424 -0.0764
vt 0.0569 0.8856 0.0941
vt 0.0569 0.9424 -0.0764
vt 0.0757 0.8856 0.0787
vt 0.0757 0.9424 -0.0873
vt 0.0956 0.8856 0.0688
vt 0.0956 0.9424 -0.0941
vt 0.1152 0.8856 0.0787
vt 0.1152 0.9424 -0.0873
vt 0.1340 0.8856 0.0941
vt 0.1340 0.9424 -0.0764
vt 0.1520 0.8856 0.0941
vt 0.1520 0.9424 -0.0764
vt 0.1708 0.8856 0.0787
vt 0.1708 0.9424 -0.0873
vt 0.1904 0.8856 0.0688
vt 0.1904 0.9424 -0.0941
vt 0.0200 0.9995 -0.0873
vt 0.0005 0.9995 -0.0941
vt 0.0388 0.9995 -0.0764
vt 0.0569 0.9995 -0.0764
vt 0.0757 0.9995 -0.0873
vt 0.0956 0.9995 -0.0941
vt 0.1152 0.9995 -0.0873
vt 0.1340 0.9995 -0.0764
vt 0.1520 0.9995 -0.0764
vt 0.1708 0.9995 -0.0873
vt 0.1904 0.9995 -0.0941
vt 0.2193 0.8901 0.0000
vt 0.2349 0.8952 0.0000
vt 0.2193 0.9169 0.0000
vt 0.2445 0.9084 0.0000
vt 0.2445 0.9250 0.0000
vt 0.2349 0.9382 0.0000
vt 0.2193 0.9433 0.0000
vt 0.2036 0.9382 0.0000
vt 0.1937 0.9250 0.0000
vt 0.1937 0.9084 0.0000
vt 0.2036 0.8952 0.0000
# 69 texture coords

o BulletinBoard_Paper06
g BulletinBoard_Paper06
usemtl BulletinBoard_Papers_wire_135059008
s 1
f 1/1/1 2/2/1 3/3/2 4/4/2 
f 5/5/3 6/6/3 7/7/4 8/8/4 
f 8/8/4 7/7/4 9/9/5 10/10/5 
f 10/10/5 9/9/5 2/2/1 1/1/1 
f 11/11/6 12/12/6 13/13/7 14/14/7 
f 14/14/7 13/13/7 4/4/2 3/3/2 
f 15/15/8 16/16/9 17/17/10 
f 15/15/8 18/18/11 16/16/9 
f 15/15/8 19/19/12 18/18/11 
f 15/15/8 20/20/13 19/19/12 
f 15/15/8 21/21/14 20/20/13 
f 15/15/8 22/22/15 21/21/14 
f 15/15/8 23/23/16 22/22/15 
f 15/15/8 24/24/17 23/23/16 
f 15/15/8 25/25/18 24/24/17 
f 15/15/8 17/17/10 25/25/18 
s 8
f 16/26/9 26/27/19 27/28/20 17/29/10 
f 18/30/11 28/31/21 26/27/19 16/26/9 
f 19/32/12 29/33/22 28/31/21 18/30/11 
f 20/34/13 30/35/23 29/33/22 19/32/12 
f 21/36/14 31/37/24 30/35/23 20/34/13 
f 22/38/15 32/39/25 31/37/24 21/36/14 
f 23/40/16 33/41/26 32/39/25 22/38/15 
f 24/42/17 34/43/27 33/41/26 23/40/16 
f 25/44/18 35/45/28 34/43/27 24/42/17 
f 17/46/10 27/47/20 35/45/28 25/44/18 
f 26/27/19 36/48/29 37/49/30 27/28/20 
f 28/31/21 38/50/31 36/48/29 26/27/19 
f 29/33/22 39/51/32 38/50/31 28/31/21 
f 30/35/23 40/52/33 39/51/32 29/33/22 
f 31/37/24 41/53/34 40/52/33 30/35/23 
f 32/39/25 42/54/35 41/53/34 31/37/24 
f 33/41/26 43/55/36 42/54/35 32/39/25 
f 34/43/27 44/56/37 43/55/36 33/41/26 
f 35/45/28 45/57/38 44/56/37 34/43/27 
f 27/47/20 37/58/30 45/57/38 35/45/28 
s 1
f 37/59/30 36/60/29 46/61/39 
f 36/60/29 38/62/31 46/61/39 
f 38/62/31 39/63/32 46/61/39 
f 39/63/32 40/64/33 46/61/39 
f 40/64/33 41/65/34 46/61/39 
f 41/65/34 42/66/35 46/61/39 
f 42/66/35 43/67/36 46/61/39 
f 43/67/36 44/68/37 46/61/39 
f 44/68/37 45/69/38 46/61/39 
f 45/69/38 37/59/30 46/61/39 
# 26 polygons - 20 triangles

