# 3ds Max Wavefront OBJ Exporter v0.97b - (c)2007 guruware
# File Created: 17.07.2020 17:35:40

mtllib PunchCard03.mtl

#
# object PunchCard03
#

v  -1.7870 0.5326 1.7489
v  -1.7870 1.2253 2.9872
v  1.7870 1.2253 2.9872
v  1.7870 0.5326 1.7489
v  -1.7870 -0.3923 0.7656
v  1.7870 -0.3923 0.7656
v  -1.7870 -1.5341 0.0155
v  1.7870 -1.5341 0.0155
v  -1.7870 -2.8771 -0.5230
v  1.7870 -2.8771 -0.5230
# 10 vertices

vn -0.0000 1.0344 -0.3811
vn -0.0000 1.0524 -0.2989
vn -0.0000 0.9595 -0.5544
vn -0.0000 0.9595 -0.5543
vn -0.0000 0.8117 -0.7278
vn -0.0000 0.7104 -0.8012
# 6 vertex normals

vt 0.0005 0.2804 0.0000
vt 0.0005 0.0005 0.0000
vt 0.6948 0.0005 0.0000
vt 0.6948 0.2804 0.0000
vt 0.0005 0.5285 0.0000
vt 0.6948 0.5285 0.0000
vt 0.0005 0.7555 0.0000
vt 0.6948 0.7555 0.0000
vt 0.0005 0.9995 0.0000
vt 0.6948 0.9995 0.0000
# 10 texture coords

o PunchCard03
g PunchCard03
usemtl wire_198225087
s 1
f 1/1/1 2/2/2 3/3/2 4/4/1 
f 5/5/3 1/1/1 4/4/1 6/6/4 
f 7/7/5 5/5/3 6/6/4 8/8/5 
f 9/9/6 7/7/5 8/8/5 10/10/6 
# 4 polygons

