# 3ds Max Wavefront OBJ Exporter v0.97b - (c)2007 guruware
# File Created: 03.07.2020 11:33:26

mtllib ChunkyBrokenWall08_Lowpoly.mtl

#
# object ChunkyBrokenWall08_Lowpoly
#

v  -21.8581 11.7192 -13.2183
v  -21.8581 11.7773 -17.0911
v  -21.8581 0.0000 -17.0911
v  -21.8581 0.0000 -13.2183
v  -16.8541 0.0000 6.1069
v  -15.8575 5.4259 6.1069
v  -21.8581 3.8514 6.1069
v  -21.8581 0.0000 6.1069
v  -12.7279 0.0000 -17.0911
v  -13.6847 0.0000 -17.0911
v  -13.6847 10.5773 -17.0911
v  -12.7279 9.3773 -17.0911
v  -21.8581 11.7773 -2.1794
v  -21.8581 0.0000 -2.1794
v  -21.8581 0.0000 0.5427
v  -21.8581 6.7832 0.5427
v  -21.8581 0.0000 -8.9127
v  -21.8581 0.0000 -6.0240
v  -21.8581 11.2782 -6.0240
v  -21.8581 9.6443 -8.9127
v  -10.7438 0.0000 6.1069
v  -9.7738 6.1931 6.1069
v  -11.2299 4.9168 6.1069
v  -12.1902 0.0000 6.1069
v  -14.5120 4.8772 6.1069
v  -15.4980 0.0000 6.1069
v  -5.3095 0.0000 6.1069
v  -4.5389 9.5045 6.1069
v  -5.6370 7.0607 6.1069
v  -6.6343 0.0000 6.1069
v  -2.4046 0.0000 6.1069
v  -2.4046 10.0079 6.1069
v  -8.7663 0.0000 6.1069
v  -7.7831 6.2133 6.1069
v  -16.5551 0.0000 -17.0911
v  -18.0693 0.0000 -17.0911
v  -18.0693 11.1531 -17.0911
v  -16.5551 11.7773 -17.0911
v  -20.3823 0.0000 -15.6460
v  -20.3823 11.7773 -15.6460
v  -20.3823 11.7192 -13.2183
v  -20.3823 0.0000 -13.2183
v  -20.3823 3.8514 4.5540
v  -15.8575 5.4259 4.5540
v  -16.8541 0.0000 4.5540
v  -20.3823 0.0000 4.5540
v  -16.5551 11.7773 -15.6460
v  -16.5551 0.0000 -15.6460
v  -13.6847 0.0000 -15.6460
v  -13.6847 10.5773 -15.6460
v  -20.3823 0.0000 0.5427
v  -20.3823 0.0000 -2.1794
v  -20.3823 11.7773 -2.1794
v  -20.3823 6.7832 0.5427
v  -20.3823 11.2782 -6.0240
v  -20.3823 0.0000 -6.0240
v  -20.3823 0.0000 -8.9127
v  -20.3823 9.6443 -8.9127
v  -11.2299 4.9168 4.5540
v  -9.7738 6.1931 4.5540
v  -10.7438 0.0000 4.5540
v  -12.1902 0.0000 4.5540
v  -14.5120 4.8772 4.5540
v  -15.4980 0.0000 4.5540
v  -5.6370 7.0607 4.5540
v  -4.5389 9.5045 4.5540
v  -5.3095 0.0000 4.5540
v  -6.6343 0.0000 4.5540
v  -2.4046 10.0079 4.5540
v  -2.4046 0.0000 4.5540
v  -7.7831 6.2133 4.5540
v  -8.7663 0.0000 4.5540
v  -18.0693 11.1531 -15.6460
v  -18.0693 0.0000 -15.6460
v  -21.8581 12.1050 -17.0501
v  -21.8581 12.0487 -13.2941
v  -20.3847 12.0494 -13.2941
v  -20.3847 12.1046 -15.5987
v  -13.1586 10.9094 -17.0911
v  -13.5470 10.8927 -17.0911
v  -13.5470 10.8927 -15.6460
v  -13.1586 10.9094 -15.6460
v  -12.7279 9.3773 -15.6460
v  -12.7279 0.0000 -15.6460
v  -21.8581 12.0439 -8.7175
v  -21.8581 12.0164 -6.1936
v  -20.3823 12.0164 -6.1936
v  -20.3823 12.0439 -8.7175
v  -11.0773 6.8137 6.1069
v  -9.7554 6.8450 6.1069
v  -9.7554 6.8450 4.5540
v  -11.0773 6.8137 4.5540
v  -15.6633 5.8705 6.1069
v  -15.0007 5.8424 6.1069
v  -15.0007 5.8424 4.5540
v  -15.6633 5.8705 4.5540
v  -4.1466 11.1087 6.1069
v  -2.5889 11.1087 6.1069
v  -2.5889 11.1087 4.5540
v  -4.1466 11.1087 4.5540
v  -9.6680 7.0824 6.1069
v  -7.7694 7.1016 6.1069
v  -7.7694 7.1016 4.5540
v  -9.6680 7.0824 4.5540
v  -16.5887 12.1363 -17.0911
v  -17.9324 12.0867 -17.0911
v  -17.9324 12.0867 -15.6460
v  -16.5887 12.1363 -15.6460
v  -11.1724 6.7194 6.1069
v  -7.7647 6.8652 6.1069
v  -7.7647 6.8652 4.5540
v  -11.1724 6.7194 4.5540
v  -9.7582 6.9893 6.1069
v  -9.7582 6.9893 4.5540
v  -14.5266 5.3624 6.1069
v  -15.8515 5.6941 6.1069
v  -14.5266 5.3624 4.5540
v  -15.8515 5.6941 4.5540
v  -21.8581 11.8816 -8.8838
v  -20.3823 11.8816 -8.8838
v  -18.0631 11.9521 -17.0911
v  -18.0631 11.9521 -15.6460
v  -21.8581 11.9654 -13.2136
v  -21.8581 12.0645 -17.0911
v  -20.3841 11.9654 -13.2136
v  -20.3844 12.0646 -15.6405
v  -2.4046 10.9244 6.1069
v  -4.5378 10.7178 6.1069
v  -2.4046 10.9244 4.5540
v  -4.5378 10.7178 4.5540
v  -12.7171 10.4823 -15.6460
v  -13.6892 10.7402 -15.6460
v  -12.7171 10.4823 -17.0911
v  -13.6892 10.7402 -17.0911
# 134 vertices

vn -0.8509 0.2751 0.4475
vn -0.5693 0.2280 -0.7899
vn -0.5774 -0.5774 -0.5774
vn -0.7071 -0.7071 -0.0000
vn 0.0000 -0.7071 0.7071
vn -0.4080 0.3018 0.8617
vn -0.6024 0.4766 0.6402
vn -0.5774 -0.5774 0.5774
vn 0.5774 -0.5774 -0.5774
vn 0.0000 -0.7071 -0.7071
vn -0.1782 0.2599 -0.9491
vn 0.7060 -0.0035 -0.7082
vn -0.5993 0.7132 0.3635
vn -0.7613 0.4337 0.4820
vn -0.8930 0.3694 0.2570
vn -0.9502 0.2649 -0.1640
vn 0.0000 0.0000 1.0000
vn -0.3060 0.3122 0.8994
vn 0.2982 0.3110 0.9024
vn -0.6384 0.1371 0.7574
vn -0.4120 0.4315 0.8025
vn 0.5774 -0.5774 0.5774
vn 0.7071 0.0000 0.7071
vn 0.1839 0.2622 0.9473
vn -0.2491 0.2958 -0.9222
vn 0.4331 0.3186 -0.8431
vn 0.3015 -0.9045 0.3015
vn 0.9055 0.4169 -0.0791
vn 0.8509 0.2773 0.4462
vn 0.7071 -0.7071 -0.0000
vn 0.5093 0.8117 -0.2859
vn -0.4122 0.3000 -0.8603
vn 0.3015 -0.9045 -0.3015
vn 0.4331 0.3186 0.8431
vn -0.1782 0.2599 0.9491
vn 0.5993 0.7132 0.3635
vn 0.7598 0.4284 0.4891
vn 0.8930 0.3694 0.2571
vn 0.9502 0.2649 -0.1640
vn -0.3062 0.3122 -0.8993
vn 0.0000 -0.0000 -1.0000
vn 0.2982 0.3110 -0.9024
vn -0.4120 0.4315 -0.8025
vn -0.6384 0.1371 -0.7574
vn 0.7071 -0.0000 -0.7071
vn 0.1839 0.2622 -0.9473
vn -0.2180 0.2870 0.9328
vn -0.4457 0.7701 -0.4563
vn -0.6303 0.7124 0.3086
vn 0.6276 0.7128 0.3131
vn 0.6887 0.7135 -0.1285
vn 0.2762 0.7274 -0.6281
vn -0.3247 0.7047 -0.6309
vn -0.3247 0.7047 0.6309
vn 0.2762 0.7274 0.6281
vn 0.7060 -0.0035 0.7082
vn -0.6303 0.7206 -0.2889
vn -0.5909 0.6284 0.5059
vn 0.5909 0.6284 0.5060
vn 0.6303 0.7206 -0.2889
vn -0.3033 0.7126 0.6326
vn -0.3087 0.2955 0.9041
vn -0.3087 0.2955 -0.9041
vn -0.3033 0.7126 -0.6326
vn -0.2703 0.7285 0.6294
vn 0.3134 0.7076 0.6333
vn 0.3134 0.7076 -0.6333
vn -0.2703 0.7285 -0.6294
vn -0.2969 0.7173 0.6303
vn 0.2971 0.7173 0.6303
vn 0.2971 0.7173 -0.6303
vn -0.2969 0.7173 -0.6303
vn -0.3062 0.7138 0.6299
vn 0.5684 0.5857 0.5779
vn 0.5684 0.5857 -0.5779
vn -0.3062 0.7138 -0.6299
vn 0.5370 0.6121 -0.5804
vn -0.3149 0.7080 -0.6321
vn -0.3149 0.7080 0.6321
vn 0.5370 0.6121 0.5804
vn -0.7100 0.3092 0.6327
vn 0.7124 -0.0030 0.7017
vn 0.7124 -0.0030 -0.7017
vn -0.7100 0.3092 -0.6327
vn -0.7227 0.2847 0.6299
vn -0.7227 0.2847 -0.6299
vn 0.7114 0.3047 0.6333
vn -0.7095 0.3170 0.6294
vn 0.7114 0.3047 -0.6333
vn -0.7095 0.3170 -0.6294
vn -0.6303 0.3060 -0.7135
vn 0.6303 0.3060 -0.7135
vn -0.7169 0.2941 -0.6322
vn -0.7169 0.2941 0.6322
vn -0.6301 0.2840 0.7227
vn -0.3353 0.3160 -0.8875
vn 0.6294 0.2853 0.7228
vn 0.8676 0.2445 -0.4330
vn 0.7173 0.2971 0.6303
vn -0.7171 0.2976 0.6303
vn 0.7173 0.2971 -0.6303
vn -0.7171 0.2976 -0.6303
vn 0.7179 0.3002 0.6281
vn -0.7257 0.2744 0.6309
vn 0.7179 0.3002 -0.6281
vn -0.7257 0.2744 -0.6309
# 106 vertex normals

vt 0.2493 0.2313 0.0000
vt 0.1749 0.2308 0.0000
vt 0.1800 0.0045 0.0000
vt 0.2544 0.0062 0.0000
vt 0.7219 0.0168 0.0000
vt 0.7387 0.1215 0.0000
vt 0.6240 0.0886 0.0000
vt 0.6257 0.0146 0.0000
vt 0.0046 0.0005 0.0000
vt 0.0414 0.0013 0.0000
vt 0.0367 0.2046 0.0000
vt 0.0005 0.1807 0.0000
vt 0.4614 0.2373 0.0000
vt 0.4665 0.0110 0.0000
vt 0.5188 0.0122 0.0000
vt 0.5159 0.1425 0.0000
vt 0.3372 0.0081 0.0000
vt 0.3927 0.0093 0.0000
vt 0.3877 0.2260 0.0000
vt 0.3329 0.1934 0.0000
vt 0.8393 0.0195 0.0000
vt 0.8552 0.1389 0.0000
vt 0.8278 0.1137 0.0000
vt 0.8115 0.0189 0.0000
vt 0.7647 0.1115 0.0000
vt 0.7479 0.0174 0.0000
vt 0.9437 0.0219 0.0000
vt 0.9543 0.2048 0.0000
vt 0.9343 0.1574 0.0000
vt 0.9182 0.0213 0.0000
vt 0.9995 0.0231 0.0000
vt 0.9951 0.2154 0.0000
vt 0.8773 0.0203 0.0000
vt 0.8934 0.1402 0.0000
vt 0.0781 0.0022 0.0000
vt 0.1072 0.0028 0.0000
vt 0.1024 0.2171 0.0000
vt 0.0730 0.2285 0.0000
vt 0.8082 0.2367 0.0000
vt 0.8091 0.4528 0.0000
vt 0.7660 0.4523 0.0000
vt 0.7636 0.2371 0.0000
vt 0.4380 0.3113 0.0000
vt 0.3555 0.3410 0.0000
vt 0.3726 0.2415 0.0000
vt 0.4372 0.2407 0.0000
vt 0.8808 0.4520 0.0000
vt 0.8784 0.2360 0.0000
vt 0.9135 0.2397 0.0000
vt 0.9155 0.4255 0.0000
vt 0.5109 0.2399 0.0000
vt 0.5609 0.2393 0.0000
vt 0.5632 0.4556 0.0000
vt 0.5122 0.3644 0.0000
vt 0.6337 0.4457 0.0000
vt 0.6315 0.2385 0.0000
vt 0.6845 0.2379 0.0000
vt 0.6865 0.4151 0.0000
vt 0.2707 0.3326 0.0000
vt 0.2443 0.3563 0.0000
vt 0.2608 0.2427 0.0000
vt 0.2873 0.2424 0.0000
vt 0.3307 0.3312 0.0000
vt 0.3478 0.2418 0.0000
vt 0.1687 0.3730 0.0000
vt 0.1488 0.4180 0.0000
vt 0.1613 0.2438 0.0000
vt 0.1856 0.2435 0.0000
vt 0.1105 0.4286 0.0000
vt 0.1081 0.2433 0.0000
vt 0.2078 0.3570 0.0000
vt 0.2246 0.2431 0.0000
vt 0.8528 0.4408 0.0000
vt 0.8506 0.2363 0.0000
vt 0.5956 0.9618 0.0000
vt 0.5205 0.9645 0.0000
vt 0.5200 0.9347 0.0000
vt 0.5682 0.9350 0.0000
vt 0.3711 0.8522 0.0000
vt 0.4454 0.8522 0.0000
vt 0.4177 0.8805 0.0000
vt 0.3711 0.8805 0.0000
vt 0.5335 0.9255 0.0000
vt 0.4073 0.9241 0.0000
vt 0.5047 0.8928 0.0000
vt 0.2776 0.8130 0.0000
vt 0.3736 0.8130 0.0000
vt 0.3453 0.8428 0.0000
vt 0.2776 0.8428 0.0000
vt 0.0739 0.8014 0.0000
vt 0.0372 0.8014 0.0000
vt 0.0372 0.7737 0.0000
vt 0.0739 0.7737 0.0000
vt 0.9910 0.4192 0.0000
vt 0.9913 0.4443 0.0000
vt 0.9509 0.4494 0.0000
vt 0.9506 0.4260 0.0000
vt 0.9892 0.2510 0.0000
vt 0.9907 0.3905 0.0000
vt 0.9503 0.3990 0.0000
vt 0.9486 0.2433 0.0000
vt 0.1072 0.8522 0.0000
vt 0.1594 0.8522 0.0000
vt 0.1594 0.8805 0.0000
vt 0.1072 0.8805 0.0000
vt 0.2173 0.9702 0.0000
vt 0.1016 0.9726 0.0000
vt 0.1011 0.9421 0.0000
vt 0.2167 0.9402 0.0000
vt 0.2331 0.8522 0.0000
vt 0.2885 0.8522 0.0000
vt 0.2885 0.8805 0.0000
vt 0.2331 0.8805 0.0000
vt 0.3628 0.9675 0.0000
vt 0.3115 0.9685 0.0000
vt 0.3110 0.9385 0.0000
vt 0.3623 0.9375 0.0000
vt 0.2595 0.9226 0.0000
vt 0.2351 0.9224 0.0000
vt 0.2353 0.8936 0.0000
vt 0.2598 0.8938 0.0000
vt 0.1604 0.8130 0.0000
vt 0.1882 0.8130 0.0000
vt 0.1882 0.8428 0.0000
vt 0.1604 0.8428 0.0000
vt 0.3955 0.9235 0.0000
vt 0.3832 0.9235 0.0000
vt 0.3834 0.8947 0.0000
vt 0.3957 0.8948 0.0000
vt 0.2516 0.8130 0.0000
vt 0.2516 0.8428 0.0000
vt 0.1439 0.9227 0.0000
vt 0.0910 0.9223 0.0000
vt 0.0912 0.8916 0.0000
vt 0.1441 0.8920 0.0000
vt 0.0562 0.8130 0.0000
vt 0.0816 0.8130 0.0000
vt 0.0816 0.8428 0.0000
vt 0.0562 0.8428 0.0000
vt 0.0005 0.8130 0.0000
vt 0.0005 0.8428 0.0000
vt 0.0546 0.9217 0.0000
vt 0.0250 0.9213 0.0000
vt 0.0252 0.8917 0.0000
vt 0.0549 0.8917 0.0000
vt 0.1225 0.8130 0.0000
vt 0.1225 0.8428 0.0000
vt 0.2290 0.9224 0.0000
vt 0.1934 0.9224 0.0000
vt 0.1937 0.8931 0.0000
vt 0.2292 0.8935 0.0000
vt 0.1765 0.9227 0.0000
vt 0.1767 0.8925 0.0000
vt 0.3572 0.9233 0.0000
vt 0.2964 0.9228 0.0000
vt 0.2966 0.8941 0.0000
vt 0.3574 0.8945 0.0000
vt 0.0005 0.8522 0.0000
vt 0.0303 0.8805 0.0000
vt 0.0005 0.9972 0.0000
vt 0.0325 0.9636 0.0000
vt 0.2961 0.9688 0.0000
vt 0.2956 0.9388 0.0000
vt 0.5122 0.9647 0.0000
vt 0.4150 0.9665 0.0000
vt 0.4145 0.9365 0.0000
vt 0.5116 0.9347 0.0000
vt 0.1029 0.8014 0.0000
vt 0.1029 0.7737 0.0000
vt 0.9921 0.5231 0.0000
vt 0.9925 0.5542 0.0000
vt 0.9520 0.5547 0.0000
vt 0.9517 0.5235 0.0000
vt 0.1756 0.8014 0.0000
vt 0.1473 0.7737 0.0000
vt 0.1038 0.1500 0.0000
vt 0.1276 0.1734 0.0000
vt 0.1290 0.2171 0.0000
vt 0.8553 0.1514 0.0000
vt 0.8299 0.1503 0.0000
vt 0.8281 0.1484 0.0000
vt 0.8935 0.1527 0.0000
vt 0.1892 0.8929 0.0000
vt 0.1889 0.9225 0.0000
vt 0.2441 0.3682 0.0000
vt 0.2076 0.3690 0.0000
vt 0.2700 0.3656 0.0000
vt 0.2682 0.3674 0.0000
vt 0.2630 0.9226 0.0000
vt 0.2632 0.8938 0.0000
vt 0.2324 0.9224 0.0000
vt 0.2326 0.8936 0.0000
vt 0.8933 0.1572 0.0000
vt 0.8569 0.1560 0.0000
vt 0.8552 0.1542 0.0000
vt 0.2441 0.3708 0.0000
vt 0.2425 0.3726 0.0000
vt 0.2078 0.3733 0.0000
vt 0.7643 0.1209 0.0000
vt 0.7549 0.1299 0.0000
vt 0.7422 0.1301 0.0000
vt 0.7387 0.1267 0.0000
vt 0.3664 0.8946 0.0000
vt 0.3662 0.9233 0.0000
vt 0.3554 0.3459 0.0000
vt 0.3520 0.3492 0.0000
vt 0.3399 0.3488 0.0000
vt 0.3311 0.3401 0.0000
vt 0.4075 0.8944 0.0000
vt 0.4023 0.9238 0.0000
vt 0.4025 0.8946 0.0000
vt 0.3841 0.2401 0.0000
vt 0.3356 0.2396 0.0000
vt 0.3325 0.2364 0.0000
vt 0.6864 0.4562 0.0000
vt 0.6834 0.4592 0.0000
vt 0.6370 0.4592 0.0000
vt 0.3695 0.9674 0.0000
vt 0.3690 0.9374 0.0000
vt 0.1019 0.2325 0.0000
vt 0.0993 0.2350 0.0000
vt 0.0735 0.2354 0.0000
vt 0.1295 0.2325 0.0000
vt 0.8803 0.4586 0.0000
vt 0.8555 0.4580 0.0000
vt 0.8530 0.4555 0.0000
vt 0.9516 0.5174 0.0000
vt 0.9921 0.5170 0.0000
vt 0.2493 0.2361 0.0000
vt 0.2477 0.2376 0.0000
vt 0.1755 0.2371 0.0000
vt 0.1747 0.2363 0.0000
vt 0.5166 0.9347 0.0000
vt 0.5172 0.9646 0.0000
vt 0.8090 0.4582 0.0000
vt 0.8083 0.4589 0.0000
vt 0.7674 0.4584 0.0000
vt 0.7659 0.4568 0.0000
vt 0.8386 0.4526 0.0000
vt 0.8386 0.4579 0.0000
vt 0.9947 0.2330 0.0000
vt 0.9911 0.2365 0.0000
vt 0.9612 0.2358 0.0000
vt 0.9538 0.2281 0.0000
vt 0.0005 0.9212 0.0000
vt 0.0007 0.8915 0.0000
vt 0.0182 0.8917 0.0000
vt 0.0180 0.9213 0.0000
vt 0.1487 0.4395 0.0000
vt 0.1418 0.4465 0.0000
vt 0.1143 0.4468 0.0000
vt 0.1110 0.4436 0.0000
vt 0.0691 0.9219 0.0000
vt 0.0693 0.8917 0.0000
vt 0.8086 0.4593 0.0000
vt 0.8382 0.4590 0.0000
vt 0.1019 0.2363 0.0000
vt 0.1295 0.2363 0.0000
vt 0.0790 0.2425 0.0000
vt 0.0814 0.4301 0.0000
vt 0.0005 0.8014 0.0000
vt 0.0005 0.7737 0.0000
vt 0.9914 0.4537 0.0000
vt 0.9510 0.4582 0.0000
# 264 texture coords

o ChunkyBrokenWall08_Lowpoly
g ChunkyBrokenWall08_Lowpoly
usemtl house_Material
s 1
f 1/1/1 2/2/2 3/3/3 4/4/4 
s 2
f 5/5/5 6/6/6 7/7/7 8/8/8 
f 9/9/9 10/10/10 11/11/11 12/12/12 
s 1
f 13/13/13 14/14/4 15/15/4 16/16/14 
f 17/17/4 18/18/4 19/19/15 20/20/16 
s 2
f 21/21/5 22/22/17 23/23/18 24/24/5 
f 25/25/19 6/6/6 5/5/5 26/26/5 
f 27/27/5 28/28/20 29/29/21 30/30/5 
f 27/27/5 31/31/22 32/32/23 28/28/20 
f 21/21/5 33/33/5 34/34/24 22/22/17 
f 30/30/5 29/29/21 34/34/24 33/33/5 
f 26/26/5 24/24/5 23/23/18 25/25/19 
s 1
f 15/15/4 8/8/8 7/7/7 16/16/14 
f 14/14/4 13/13/13 19/19/15 18/18/4 
f 1/1/1 4/4/4 17/17/4 20/20/16 
s 2
f 35/35/10 36/36/10 37/37/25 38/38/26 
f 36/36/10 3/3/3 2/2/2 37/37/25 
s 1
f 39/39/27 40/40/28 41/41/29 42/42/30 
s 2
f 43/43/31 44/44/32 45/45/10 46/46/33 
f 47/47/34 48/48/5 49/49/5 50/50/35 
s 1
f 51/51/30 52/52/30 53/53/36 54/54/37 
f 55/55/38 56/56/30 57/57/30 58/58/39 
s 2
f 59/59/40 60/60/41 61/61/10 62/62/10 
f 45/45/10 44/44/32 63/63/42 64/64/10 
f 65/65/43 66/66/44 67/67/10 68/68/10 
f 69/69/45 70/70/9 67/67/10 66/66/44 
f 71/71/46 72/72/10 61/61/10 60/60/41 
f 71/71/46 65/65/43 68/68/10 72/72/10 
f 59/59/40 62/62/10 64/64/10 63/63/42 
s 1
f 43/43/31 46/46/33 51/51/30 54/54/37 
f 55/55/38 53/53/36 52/52/30 56/56/30 
f 57/57/30 42/42/30 41/41/29 58/58/39 
s 2
f 73/73/47 74/74/5 48/48/5 47/47/34 
f 40/40/28 39/39/27 74/74/5 73/73/47 
f 75/75/48 76/76/49 77/77/50 78/78/51 
s 4
f 4/79/4 3/80/3 39/81/27 42/82/30 
f 7/83/7 6/84/6 43/85/31 
f 5/86/5 8/87/8 46/88/33 45/89/10 
f 35/90/10 10/91/10 49/92/5 48/93/5 
s 1
f 79/94/52 80/95/53 81/96/54 82/97/55 
f 9/98/9 12/99/12 83/100/56 84/101/22 
s 4
f 15/102/4 14/103/4 52/104/30 51/105/30 
s 8
f 13/106/13 16/107/14 54/108/37 53/109/36 
s 4
f 18/110/4 17/111/4 57/112/30 56/113/30 
s 2
f 85/114/57 86/115/58 87/116/59 88/117/60 
s 1
f 89/118/61 90/119/62 91/120/63 92/121/64 
s 4
f 21/122/5 24/123/5 62/124/10 61/125/10 
s 1
f 93/126/65 94/127/66 95/128/67 96/129/68 
s 4
f 26/130/5 5/86/5 45/89/10 64/131/10 
s 1
f 29/132/21 28/133/20 66/134/44 65/135/43 
s 4
f 27/136/5 30/137/5 68/138/10 67/139/10 
f 31/140/22 27/136/5 67/139/10 70/141/9 
s 1
f 97/142/69 98/143/70 99/144/71 100/145/72 
s 4
f 33/146/5 21/122/5 61/125/10 72/147/10 
s 1
f 101/148/73 102/149/74 103/150/75 104/151/76 
s 4
f 34/152/24 29/132/21 65/135/43 71/153/46 
f 30/137/5 33/146/5 72/147/10 68/138/10 
f 24/123/5 26/130/5 64/131/10 62/124/10 
s 1
f 25/154/19 23/155/18 59/156/40 63/157/42 
s 4
f 8/158/8 15/102/4 51/105/30 46/159/33 
s 8
f 16/107/14 7/160/7 43/161/31 
s 2
f 19/162/15 13/106/13 53/109/36 55/163/38 
s 4
f 14/103/4 18/110/4 56/113/30 52/104/30 
f 17/111/4 4/79/4 42/82/30 57/112/30 
s 2
f 1/164/1 20/165/16 58/166/39 41/167/29 
s 4
f 36/168/10 35/90/10 48/93/5 74/169/5 
s 1
f 105/170/77 106/171/78 107/172/79 108/173/80 
s 4
f 3/174/3 36/168/10 74/169/5 39/175/27 
f 37/37/25 2/176/2 40/177/28 73/178/47 
s 2
f 23/23/18 22/22/17 90/179/62 89/180/61 109/181/81 
f 22/22/17 34/34/24 110/182/82 90/179/62 
s 8
f 34/152/24 71/153/46 111/183/83 110/184/82 
s 2
f 71/71/46 60/60/41 91/185/63 111/186/83 
f 60/60/41 59/59/40 112/187/84 92/188/64 91/185/63 
s 4
f 59/156/40 23/155/18 109/189/81 112/190/84 
f 91/120/63 90/119/62 113/191/85 114/192/86 
s 2
f 90/179/62 110/182/82 102/193/74 101/194/73 113/195/85 
s 8
f 110/184/82 111/183/83 103/150/75 102/149/74 
s 2
f 111/186/83 91/185/63 114/196/86 104/197/76 103/198/75 
f 6/6/6 25/25/19 115/199/87 94/200/66 93/201/65 116/202/88 
s 4
f 25/154/19 63/157/42 117/203/89 115/204/87 
s 2
f 63/63/42 44/44/32 118/205/90 96/206/68 95/207/67 117/208/89 
s 1
f 44/209/32 6/84/6 116/210/88 118/211/90 
f 20/20/16 19/19/15 86/212/58 85/213/57 119/214/91 
s 4
f 19/162/15 55/163/38 87/116/59 86/115/58 
s 1
f 55/55/38 58/58/39 120/215/92 88/216/60 87/217/59 
s 4
f 58/166/39 20/165/16 119/218/91 120/219/92 
s 2
f 38/38/26 37/37/25 121/220/93 106/221/78 105/222/77 
s 1
f 37/37/25 73/178/47 122/223/94 121/220/93 
s 2
f 73/73/47 47/47/34 108/224/80 107/225/79 122/226/94 
s 4
f 47/227/34 38/228/26 105/170/77 108/173/80 
s 1
f 2/2/2 1/1/1 123/229/95 76/230/49 75/231/48 124/232/96 
s 4
f 1/164/1 41/167/29 125/233/97 123/234/95 
s 1
f 41/41/29 40/40/28 126/235/98 78/236/51 77/237/50 125/238/97 
s 8
f 40/40/28 2/239/2 124/240/96 126/235/98 
s 2
f 28/28/20 32/32/23 127/241/99 98/242/70 97/243/69 128/244/100 
s 1
f 32/245/23 69/246/45 129/247/101 127/248/99 
s 2
f 69/69/45 66/66/44 130/249/102 100/250/72 99/251/71 129/252/101 
s 1
f 66/134/44 28/133/20 128/253/100 130/254/102 
s 4
f 6/84/6 44/209/32 43/85/31 
s 8
f 43/161/31 54/108/37 16/107/14 
s 4
f 98/143/70 127/248/99 129/247/101 99/144/71 
f 100/145/72 130/254/102 128/253/100 97/142/69 
s 8
f 104/151/76 114/192/86 113/191/85 101/148/73 
f 92/121/64 112/190/84 109/189/81 89/118/61 
f 94/127/66 115/204/87 117/203/89 95/128/67 
s 4
f 96/129/68 118/211/90 116/210/88 93/126/65 
s 8
f 88/117/60 120/219/92 119/218/91 85/114/57 
f 76/76/49 123/234/95 125/233/97 77/77/50 
s 4
f 78/255/51 126/235/98 124/240/96 75/256/48 
f 106/257/78 121/220/93 122/223/94 107/258/79 
s 1
f 31/259/22 70/70/9 69/69/45 32/260/23 
s 2
f 10/10/10 35/35/10 38/38/26 11/11/11 
f 49/49/5 84/101/22 83/100/56 50/50/35 
s 4
f 10/91/10 9/261/9 84/262/22 49/92/5 
s 1
f 11/263/11 38/228/26 47/227/34 50/264/35 
s 2
f 50/264/35 83/100/56 131/100/103 132/264/104 
s 1
f 83/100/56 12/99/12 133/99/105 131/100/103 
s 2
f 134/263/106 80/95/53 79/94/52 133/99/105 
s 4
f 11/263/11 50/264/35 132/264/104 134/263/106 
f 82/97/55 131/100/103 133/99/105 79/94/52 
s 8
f 80/95/53 134/263/106 132/264/104 81/96/54 
s 2
f 133/99/105 12/99/12 11/263/11 134/263/106 
f 131/100/103 82/97/55 81/96/54 132/264/104 
# 120 polygons - 4 triangles

