# 3ds Max Wavefront OBJ Exporter v0.97b - (c)2007 guruware
# File Created: 03.07.2020 11:54:53

mtllib ChunkyBrokenWall09_Lowpoly.mtl

#
# object ChunkyBrokenWall09_Lowpoly
#

v  -6.4774 0.0000 -10.1098
v  -6.4774 13.5758 -10.1098
v  -7.4553 11.7447 -10.1301
v  -38.0335 0.0000 -10.7662
v  -7.4553 13.5758 -10.1301
v  -29.5091 11.1020 -10.5889
v  -8.3374 11.7447 -10.1485
v  -28.1058 12.3908 -10.5597
v  -8.3374 13.0055 -10.1485
v  -9.8571 13.0055 -10.1801
v  -28.1058 13.0908 -10.5597
v  -9.8571 13.4655 -10.1801
v  -11.3567 13.4655 -10.2113
v  -26.6344 13.7184 -10.5291
v  -11.3567 13.8055 -10.2113
v  -13.2554 14.3660 -10.2508
v  -26.6344 14.9784 -10.5291
v  -13.9577 15.3141 -10.2654
v  -24.6748 14.9784 -10.4883
v  -14.7175 15.3141 -10.2812
v  -24.6748 15.8384 -10.4883
v  -16.1299 15.8184 -10.3106
v  -21.9086 15.8184 -10.4308
v  -21.9086 16.5384 -10.4308
v  -23.2951 15.8384 -10.4596
v  -23.2951 16.5384 -10.4596
v  -38.0335 11.1020 -10.7662
v  -6.4208 0.0000 -12.8290
v  -6.4356 15.9849 -12.1182
v  -6.4332 21.1099 -12.2311
v  -6.4356 18.2849 -12.1182
v  -6.4208 22.9344 -12.8290
v  -6.4479 19.7928 -11.5261
v  -6.4479 21.1099 -11.5261
v  -36.2125 0.0000 -12.1453
v  -36.1289 0.0000 -16.1644
v  -36.1289 11.1020 -16.1644
v  -36.2125 11.1020 -12.1453
v  -43.4320 6.2234 23.2689
v  -43.4320 9.9343 23.2689
v  -44.7959 9.9343 23.2405
v  -44.7959 6.2234 23.2405
v  -43.4562 0.0000 24.4286
v  -42.9487 0.0000 0.0339
v  -43.3372 8.4820 18.7082
v  -43.1348 6.5620 8.9788
v  -43.2423 6.5620 14.1476
v  -43.0497 5.8046 4.8906
v  -43.0701 5.8046 5.8704
v  -43.0371 6.5620 4.2851
v  -43.0497 6.2246 4.8906
v  -42.9766 7.3984 1.3736
v  -42.9766 6.5620 1.3736
v  -42.9487 7.3984 0.0339
v  -43.2652 8.4820 15.2478
v  -43.4015 10.6420 21.8017
v  -43.3481 10.6420 19.2339
v  -37.9503 11.1020 -14.7653
v  -37.9503 0.0000 -14.7653
v  -46.8783 0.0000 -0.0478
v  -46.8425 7.0524 -1.7678
v  -46.8645 7.8020 -0.7132
v  -46.8783 9.4820 -0.0478
v  -46.5684 0.0000 -14.9446
v  -46.7968 7.0524 -3.9673
v  -46.5684 7.8020 -14.9446
v  -46.7768 7.8020 -4.9296
v  -43.9895 9.4820 0.0123
v  -7.3826 0.0000 -13.6260
v  -7.3826 22.9344 -13.6260
v  -5.0105 18.1658 -13.5767
v  5.9463 0.0000 -13.3488
v  -4.3306 20.2258 -13.5626
v  -5.0105 20.2258 -13.5767
v  3.5380 22.9344 -13.3989
v  -4.3306 18.1658 -13.5626
v  5.9463 24.2949 -13.3488
v  4.7466 24.2949 -13.3737
v  4.7304 24.2949 -12.5970
v  3.5218 22.9344 -12.6221
v  4.9786 0.0000 -12.5918
v  4.9786 24.2949 -12.5918
v  -4.3468 20.2258 -12.7858
v  -4.3468 18.1658 -12.7858
v  -5.0266 20.2258 -12.8000
v  -5.0266 18.1658 -12.8000
v  -7.3988 22.9344 -12.8493
v  -7.4259 11.7447 -11.5465
v  -8.3079 11.7447 -11.5648
v  -8.3079 13.0055 -11.5648
v  -9.8276 13.0055 -11.5964
v  -9.8276 13.4655 -11.5964
v  -11.3273 13.4655 -11.6276
v  -11.3273 13.8055 -11.6276
v  -13.2259 14.3660 -11.6671
v  -13.9282 15.3141 -11.6817
v  -14.6881 15.3141 -11.6976
v  -16.1004 15.8184 -11.7269
v  -21.8792 15.8184 -11.8472
v  -21.8792 16.5384 -11.8472
v  -7.4259 19.7928 -11.5465
v  -7.4259 21.1099 -11.5465
v  -7.4112 21.1099 -12.2515
v  -7.4136 18.2849 -12.1385
v  -7.4136 15.9849 -12.1385
v  -7.4259 0.0000 -11.5465
v  -28.0764 13.0908 -11.9761
v  -26.6049 13.7184 -11.9454
v  -26.6049 14.9784 -11.9454
v  -24.6454 14.9784 -11.9047
v  -24.6454 15.8384 -11.9047
v  -23.2657 15.8384 -11.8760
v  -23.2657 16.5384 -11.8760
v  -28.0764 12.3908 -11.9761
v  -29.4796 11.1020 -12.0053
v  -48.1465 0.0000 -16.4144
v  -48.1465 7.9436 -16.4144
v  -42.7439 7.9436 -16.3020
v  -42.7439 9.2236 -16.3020
v  -39.5072 10.5820 -16.2347
v  -39.5072 11.1020 -16.2347
v  -39.5371 11.1020 -14.7983
v  -48.1764 7.8020 -14.9781
v  -46.5684 7.9436 -14.9446
v  -48.1764 7.9436 -14.9781
v  -39.5371 10.5820 -14.7983
v  -42.7738 9.2236 -14.8657
v  -42.7738 7.9436 -14.8657
v  -48.5141 9.4820 1.2584
v  -48.4862 9.4820 -0.0813
v  -48.4724 7.8020 -0.7467
v  -48.5141 0.0000 1.2584
v  -48.4505 7.0524 -1.8012
v  -48.4047 7.0524 -4.0007
v  -48.3847 7.8020 -4.9630
v  -44.0174 9.4820 1.3520
v  -44.6061 6.5620 14.1192
v  -44.4986 6.5620 8.9505
v  -44.3404 6.5620 1.3452
v  -44.3404 0.0000 1.3452
v  -44.7010 8.4820 18.6799
v  -44.6290 8.4820 15.2194
v  -44.7654 10.6420 21.7733
v  -44.7119 10.6420 19.2056
v  -44.4136 6.2246 4.8623
v  -44.4010 6.5620 4.2567
v  -44.4136 5.8046 4.8623
v  -44.4340 5.8046 5.8421
v  -44.8200 0.0000 24.4003
# 149 vertices

vn -0.1079 0.0000 0.9942
vn 0.9942 0.0000 0.1079
vn -0.9942 0.0000 -0.1079
vn 0.1079 -0.0000 -0.9942
vn -0.7432 0.6642 -0.0806
vn -0.0000 1.0000 0.0000
vn 0.0000 -1.0000 -0.0000
vn 0.2814 0.9591 0.0305
vn 0.7988 0.5953 0.0867
vn 0.3343 0.9418 0.0363
vn -0.1025 0.3115 0.9447
vn -0.1004 -0.3655 0.9254
vn -0.0828 0.6404 0.7635
vn -0.3900 0.9198 -0.0423
vn -0.6724 0.7366 -0.0729
vn -0.3847 0.9221 -0.0417
vn -0.0663 0.7889 0.6109
vn 0.0625 0.8151 -0.5759
vn 0.1003 0.3683 -0.9243
vn 0.8893 0.4470 0.0965
vn -0.0469 0.9007 0.4319
vn 0.1048 0.2365 -0.9660
vn 0.0936 0.4972 -0.8625
vn -0.0525 0.8736 0.4838
vn 0.0255 0.9716 -0.2353
vn -0.1060 0.1832 0.9773
vn 0.5451 0.0000 0.8384
vn 0.0000 1.0000 -0.0000
# 28 vertex normals

vt 0.7516 0.5935 0.0000
vt 0.7516 0.8089 0.0000
vt 0.7362 0.7799 0.0000
vt 0.2537 0.5935 0.0000
vt 0.7362 0.8089 0.0000
vt 0.3882 0.7697 0.0000
vt 0.7223 0.7799 0.0000
vt 0.4104 0.7901 0.0000
vt 0.7223 0.7999 0.0000
vt 0.6983 0.7999 0.0000
vt 0.4104 0.8012 0.0000
vt 0.6983 0.8072 0.0000
vt 0.6747 0.8072 0.0000
vt 0.4336 0.8112 0.0000
vt 0.6747 0.8126 0.0000
vt 0.6447 0.8215 0.0000
vt 0.4336 0.8312 0.0000
vt 0.6336 0.8365 0.0000
vt 0.4645 0.8312 0.0000
vt 0.6216 0.8365 0.0000
vt 0.4645 0.8448 0.0000
vt 0.5993 0.8445 0.0000
vt 0.5081 0.8445 0.0000
vt 0.5081 0.8559 0.0000
vt 0.4863 0.8448 0.0000
vt 0.4863 0.8559 0.0000
vt 0.2537 0.7697 0.0000
vt 0.0005 0.2157 0.0000
vt 0.0005 0.0005 0.0000
vt 0.0434 0.0005 0.0000
vt 0.0322 0.2538 0.0000
vt 0.0339 0.3351 0.0000
vt 0.0322 0.2903 0.0000
vt 0.0434 0.3640 0.0000
vt 0.0228 0.3142 0.0000
vt 0.0228 0.3351 0.0000
vt 0.9358 0.0005 0.0000
vt 0.9995 0.0005 0.0000
vt 0.9995 0.1764 0.0000
vt 0.9358 0.1764 0.0000
vt 0.0401 0.5172 0.0000
vt 0.0455 0.5758 0.0000
vt 0.0294 0.5793 0.0000
vt 0.0186 0.5210 0.0000
vt 0.0219 0.4190 0.0000
vt 0.4063 0.4188 0.0000
vt 0.1120 0.5532 0.0000
vt 0.2653 0.5228 0.0000
vt 0.1839 0.5228 0.0000
vt 0.3297 0.5108 0.0000
vt 0.3143 0.5108 0.0000
vt 0.3393 0.5228 0.0000
vt 0.3297 0.5174 0.0000
vt 0.3852 0.5360 0.0000
vt 0.3852 0.5228 0.0000
vt 0.4063 0.5360 0.0000
vt 0.1665 0.5532 0.0000
vt 0.0633 0.5874 0.0000
vt 0.1037 0.5874 0.0000
vt 0.1902 0.7697 0.0000
vt 0.1902 0.5935 0.0000
vt 0.4686 0.4188 0.0000
vt 0.4958 0.5305 0.0000
vt 0.4791 0.5424 0.0000
vt 0.4686 0.5690 0.0000
vt 0.7047 0.4188 0.0000
vt 0.5307 0.5305 0.0000
vt 0.7047 0.5424 0.0000
vt 0.5459 0.5424 0.0000
vt 0.4154 0.5690 0.0000
vt 0.4494 0.0005 0.0000
vt 0.4494 0.3640 0.0000
vt 0.4120 0.2884 0.0000
vt 0.2393 0.0005 0.0000
vt 0.4013 0.3210 0.0000
vt 0.4120 0.3210 0.0000
vt 0.2773 0.3640 0.0000
vt 0.4013 0.2884 0.0000
vt 0.2393 0.3855 0.0000
vt 0.2582 0.3855 0.0000
vt 0.2279 0.7756 0.0000
vt 0.2279 0.7884 0.0000
vt 0.2081 0.7884 0.0000
vt 0.2081 0.7756 0.0000
vt 0.2230 0.0005 0.0000
vt 0.2230 0.3855 0.0000
vt 0.2000 0.3640 0.0000
vt 0.2191 0.3855 0.0000
vt 0.0760 0.3210 0.0000
vt 0.0760 0.2884 0.0000
vt 0.0653 0.3210 0.0000
vt 0.0653 0.2884 0.0000
vt 0.2600 0.7843 0.0000
vt 0.2722 0.7843 0.0000
vt 0.2722 0.8169 0.0000
vt 0.2599 0.8169 0.0000
vt 0.2599 0.8276 0.0000
vt 0.2722 0.8276 0.0000
vt 0.2722 0.8602 0.0000
vt 0.2599 0.8602 0.0000
vt 0.2599 0.7735 0.0000
vt 0.2722 0.7735 0.0000
vt 0.0294 0.7884 0.0000
vt 0.0294 0.7756 0.0000
vt 0.0454 0.7756 0.0000
vt 0.1905 0.4150 0.0000
vt 0.1761 0.4155 0.0000
vt 0.1752 0.3925 0.0000
vt 0.1896 0.3919 0.0000
vt 0.2101 0.3911 0.0000
vt 0.2110 0.4142 0.0000
vt 0.2358 0.4133 0.0000
vt 0.2349 0.3902 0.0000
vt 0.2424 0.3899 0.0000
vt 0.2433 0.4130 0.0000
vt 0.2677 0.4120 0.0000
vt 0.2668 0.3890 0.0000
vt 0.2723 0.3888 0.0000
vt 0.2732 0.4118 0.0000
vt 0.3055 0.4106 0.0000
vt 0.3046 0.3875 0.0000
vt 0.3199 0.3869 0.0000
vt 0.3208 0.4100 0.0000
vt 0.3327 0.4096 0.0000
vt 0.3318 0.3865 0.0000
vt 0.3571 0.4086 0.0000
vt 0.3562 0.3855 0.0000
vt 0.4474 0.4052 0.0000
vt 0.4465 0.3821 0.0000
vt 0.4582 0.3816 0.0000
vt 0.4591 0.4047 0.0000
vt 0.4821 0.3142 0.0000
vt 0.4821 0.3351 0.0000
vt 0.4710 0.3351 0.0000
vt 0.4728 0.2903 0.0000
vt 0.4728 0.2538 0.0000
vt 0.4821 0.0005 0.0000
vt 0.4821 0.1866 0.0000
vt 0.5045 0.1866 0.0000
vt 0.5045 0.2157 0.0000
vt 0.4616 0.3640 0.0000
vt 0.0454 0.7443 0.0000
vt 0.0294 0.7443 0.0000
vt 0.0295 0.7327 0.0000
vt 0.0454 0.7327 0.0000
vt 0.0454 0.7112 0.0000
vt 0.0295 0.7112 0.0000
vt 0.0464 0.6865 0.0000
vt 0.0305 0.6865 0.0000
vt 0.0464 0.6488 0.0000
vt 0.0305 0.6488 0.0000
vt 0.0429 0.6094 0.0000
vt 0.0270 0.6094 0.0000
vt 0.5436 0.2139 0.0000
vt 0.8076 0.2080 0.0000
vt 0.7844 0.2179 0.0000
vt 0.5436 0.2193 0.0000
vt 0.7844 0.2379 0.0000
vt 0.5735 0.2282 0.0000
vt 0.7535 0.2379 0.0000
vt 0.5846 0.2432 0.0000
vt 0.7535 0.2515 0.0000
vt 0.5966 0.2432 0.0000
vt 0.7099 0.2512 0.0000
vt 0.7318 0.2515 0.0000
vt 0.7099 0.2626 0.0000
vt 0.7318 0.2626 0.0000
vt 0.6188 0.2512 0.0000
vt 0.5200 0.2139 0.0000
vt 0.5200 0.2066 0.0000
vt 0.4960 0.2066 0.0000
vt 0.8076 0.1969 0.0000
vt 0.4960 0.1866 0.0000
vt 0.8297 0.1764 0.0000
vt 0.4817 0.4039 0.0000
vt 0.4808 0.3808 0.0000
vt 0.4922 0.3803 0.0000
vt 0.4931 0.4034 0.0000
vt 0.5155 0.4026 0.0000
vt 0.5147 0.3795 0.0000
vt 0.5287 0.3789 0.0000
vt 0.5296 0.4020 0.0000
vt 0.5615 0.4008 0.0000
vt 0.5606 0.3777 0.0000
vt 0.5811 0.3769 0.0000
vt 0.5820 0.4000 0.0000
vt 0.6081 0.3990 0.0000
vt 0.6072 0.3759 0.0000
vt 0.6186 0.3755 0.0000
vt 0.6195 0.3986 0.0000
vt 0.6405 0.3985 0.0000
vt 0.6396 0.3755 0.0000
vt 0.7103 0.9913 0.0000
vt 0.7103 0.8658 0.0000
vt 0.7957 0.8658 0.0000
vt 0.9002 0.9913 0.0000
vt 0.9002 0.8159 0.0000
vt 0.7957 0.8456 0.0000
vt 0.8468 0.8241 0.0000
vt 0.8468 0.8159 0.0000
vt 0.7793 0.3932 0.0000
vt 0.7493 0.3713 0.0000
vt 0.7768 0.3281 0.0000
vt 0.7468 0.3058 0.0000
vt 0.8018 0.3037 0.0000
vt 0.8027 0.3271 0.0000
vt 0.9773 0.3227 0.0000
vt 0.9511 0.3237 0.0000
vt 0.9510 0.3214 0.0000
vt 0.9772 0.3204 0.0000
vt 0.8103 0.3034 0.0000
vt 0.8112 0.3268 0.0000
vt 0.8683 0.3246 0.0000
vt 0.8674 0.3012 0.0000
vt 0.8883 0.3004 0.0000
vt 0.8892 0.3238 0.0000
vt 0.9763 0.2970 0.0000
vt 0.1137 0.7196 0.0000
vt 0.0534 0.5935 0.0000
vt 0.1650 0.7614 0.0000
vt 0.1137 0.7399 0.0000
vt 0.1650 0.7697 0.0000
vt 0.0534 0.7196 0.0000
vt 0.0534 0.7173 0.0000
vt 0.4309 0.8415 0.0000
vt 0.4521 0.8415 0.0000
vt 0.4626 0.8680 0.0000
vt 0.4309 0.9913 0.0000
vt 0.4793 0.8799 0.0000
vt 0.5140 0.8799 0.0000
vt 0.5293 0.8680 0.0000
vt 0.6876 0.8680 0.0000
vt 0.6876 0.8658 0.0000
vt 0.9830 0.4713 0.0000
vt 0.9568 0.4723 0.0000
vt 0.9560 0.4524 0.0000
vt 0.9822 0.4514 0.0000
vt 0.9840 0.4995 0.0000
vt 0.9579 0.5006 0.0000
vt 0.9849 0.5206 0.0000
vt 0.9587 0.5216 0.0000
vt 0.9865 0.5631 0.0000
vt 0.9132 0.5659 0.0000
vt 0.9596 0.5463 0.0000
vt 0.9858 0.5453 0.0000
vt 0.9125 0.5481 0.0000
vt 0.6948 0.2726 0.0000
vt 0.6956 0.2944 0.0000
vt 0.6127 0.2976 0.0000
vt 0.6118 0.2757 0.0000
vt 0.3649 0.8876 0.0000
vt 0.3434 0.8876 0.0000
vt 0.3434 0.8744 0.0000
vt 0.3649 0.9913 0.0000
vt 0.3598 0.8415 0.0000
vt 0.3869 0.5690 0.0000
vt 0.7858 0.2691 0.0000
vt 0.7866 0.2910 0.0000
vt 0.7311 0.2931 0.0000
vt 0.7303 0.2712 0.0000
vt 0.8626 0.2661 0.0000
vt 0.8635 0.2880 0.0000
vt 0.8223 0.2896 0.0000
vt 0.8214 0.2677 0.0000
vt 0.8861 0.2652 0.0000
vt 0.8870 0.2871 0.0000
vt 0.5395 0.2785 0.0000
vt 0.5404 0.3004 0.0000
vt 0.5292 0.3008 0.0000
vt 0.5284 0.2789 0.0000
vt 0.5471 0.3001 0.0000
vt 0.5463 0.2782 0.0000
vt 0.5620 0.2776 0.0000
vt 0.5628 0.2995 0.0000
vt 0.4884 0.3024 0.0000
vt 0.4876 0.2805 0.0000
vt 0.0188 0.8930 0.0000
vt 0.0188 0.8343 0.0000
vt 0.0420 0.8232 0.0000
vt 0.0909 0.8573 0.0000
vt 0.0005 0.9913 0.0000
vt 0.1456 0.8573 0.0000
vt 0.1630 0.8876 0.0000
vt 0.2447 0.8876 0.0000
vt 0.2939 0.8996 0.0000
vt 0.3093 0.8996 0.0000
vt 0.3189 0.8876 0.0000
vt 0.3093 0.8930 0.0000
vt 0.0826 0.8232 0.0000
vt 0.0005 0.4232 0.0000
vt 0.2320 0.7756 0.0000
vt 0.2476 0.7884 0.0000
# 292 texture coords

o ChunkyBrokenWall09_Lowpoly
g ChunkyBrokenWall09_Lowpoly
usemtl 3d_model_wire_224198087
s off
f 1/1/1 2/2/1 3/3/1 4/4/1 
f 3/3/1 2/2/1 5/5/1 
f 6/6/1 4/4/1 3/3/1 7/7/1 
f 8/8/1 6/6/1 7/7/1 9/9/1 
f 10/10/1 11/11/1 8/8/1 9/9/1 
f 10/10/1 12/12/1 13/13/1 11/11/1 
f 14/14/1 11/11/1 13/13/1 15/15/1 
f 14/14/1 15/15/1 16/16/1 17/17/1 
f 16/16/1 18/18/1 19/19/1 17/17/1 
f 20/20/1 21/21/1 19/19/1 18/18/1 
f 20/20/1 22/22/1 23/23/1 21/21/1 
f 23/23/1 24/24/1 25/25/1 21/21/1 
f 25/25/1 24/24/1 26/26/1 
f 27/27/1 4/4/1 6/6/1 
f 2/28/2 1/29/2 28/30/2 29/31/2 
f 29/31/2 28/30/2 30/32/2 31/33/2 
f 30/32/2 28/30/2 32/34/2 
f 33/35/2 31/33/2 30/32/2 34/36/2 
f 35/37/2 36/38/2 37/39/2 38/40/2 
f 39/41/1 40/42/1 41/43/1 42/44/1 
f 43/45/2 44/46/2 45/47/2 39/41/2 
f 44/46/2 46/48/2 47/49/2 45/47/2 
f 44/46/2 48/50/2 49/51/2 46/48/2 
f 48/50/2 44/46/2 50/52/2 51/53/2 
f 44/46/2 52/54/2 53/55/2 50/52/2 
f 52/54/2 44/46/2 54/56/2 
f 45/47/2 47/49/2 55/57/2 
f 56/58/2 39/41/2 45/47/2 57/59/2 
f 56/58/2 40/42/2 39/41/2 
f 27/27/3 58/60/3 59/61/3 4/4/3 
f 60/62/2 61/63/2 62/64/2 63/65/2 
f 60/62/2 64/66/2 65/67/2 61/63/2 
f 65/67/2 64/66/2 66/68/2 67/69/2 
f 60/62/4 63/65/4 54/56/4 44/46/4 
f 54/56/4 63/65/4 68/70/4 
f 69/71/4 70/72/4 71/73/4 72/74/4 
f 70/72/4 73/75/4 74/76/4 71/73/4 
f 75/77/4 76/78/4 73/75/4 70/72/4 
f 76/78/4 75/77/4 77/79/4 72/74/4 
f 76/78/4 72/74/4 71/73/4 
f 77/79/4 75/77/4 78/80/4 
f 79/81/5 78/82/5 75/83/5 80/84/5 
f 81/85/1 82/86/1 80/87/1 28/30/1 
f 80/87/1 82/86/1 79/88/1 
f 80/87/1 83/89/1 84/90/1 28/30/1 
f 83/89/1 80/87/1 32/34/1 85/91/1 
f 86/92/1 85/91/1 32/34/1 28/30/1 
f 86/92/1 28/30/1 84/90/1 
f 83/93/3 73/94/3 76/95/3 84/96/3 
f 86/97/6 84/96/6 76/95/6 71/98/6 
f 86/97/2 71/98/2 74/99/2 85/100/2 
f 85/101/7 74/102/7 73/94/7 83/93/7 
f 70/103/6 87/104/6 32/105/6 75/83/6 
f 75/83/6 32/105/6 80/84/6 
f 7/106/6 3/107/6 88/108/6 89/109/6 
f 7/106/2 89/109/2 90/110/2 9/111/2 
f 10/112/6 9/111/6 90/110/6 91/113/6 
f 10/112/2 91/113/2 92/114/2 12/115/2 
f 13/116/6 12/115/6 92/114/6 93/117/6 
f 13/116/2 93/117/2 94/118/2 15/119/2 
f 16/120/8 15/119/8 94/118/8 95/121/8 
f 16/120/9 95/121/9 96/122/9 18/123/9 
f 20/124/6 18/123/6 96/122/6 97/125/6 
f 22/126/10 20/124/10 97/125/10 98/127/10 
f 23/128/6 22/126/6 98/127/6 99/129/6 
f 23/128/2 99/129/2 100/130/2 24/131/2 
f 101/132/3 102/133/3 103/134/3 104/135/3 
f 105/136/3 104/135/3 103/134/3 69/71/3 
f 69/71/3 106/137/3 88/138/3 105/136/3 
f 88/138/3 3/139/3 5/140/3 105/136/3 
f 103/134/3 87/141/3 70/72/3 69/71/3 
f 30/142/11 32/105/11 87/104/11 103/143/11 
f 102/144/6 34/145/6 30/142/6 103/143/6 
f 33/146/1 34/145/1 102/144/1 101/147/1 
f 31/148/12 33/146/12 101/147/12 104/149/12 
f 29/150/1 31/148/1 104/149/1 105/151/1 
f 2/152/13 29/150/13 105/151/13 5/153/13 
f 93/154/4 107/155/4 108/156/4 94/157/4 
f 108/156/4 109/158/4 95/159/4 94/157/4 
f 110/160/4 96/161/4 95/159/4 109/158/4 
f 110/160/4 111/162/4 97/163/4 96/161/4 
f 99/164/4 97/163/4 111/162/4 112/165/4 
f 100/166/4 99/164/4 112/165/4 113/167/4 
f 98/168/4 97/163/4 99/164/4 
f 93/154/4 92/169/4 91/170/4 107/155/4 
f 91/170/4 90/171/4 114/172/4 107/155/4 
f 114/172/4 90/171/4 89/173/4 115/174/4 
f 115/174/4 89/173/4 88/138/4 35/37/4 
f 35/37/4 88/138/4 106/137/4 
f 115/174/4 35/37/4 38/40/4 
f 26/175/3 113/176/3 112/177/3 25/178/3 
f 21/179/6 25/178/6 112/177/6 111/180/6 
f 21/179/3 111/180/3 110/181/3 19/182/3 
f 17/183/6 19/182/6 110/181/6 109/184/6 
f 17/183/3 109/184/3 108/185/3 14/186/3 
f 11/187/14 14/186/14 108/185/14 107/188/14 
f 11/187/3 107/188/3 114/189/3 8/190/3 
f 26/175/6 24/131/6 100/130/6 113/176/6 
f 6/191/15 8/190/15 114/189/15 115/192/15 
f 116/193/4 117/194/4 118/195/4 36/196/4 
f 37/197/4 36/196/4 118/195/4 119/198/4 
f 120/199/4 121/200/4 37/197/4 119/198/4 
f 27/201/6 6/191/6 38/202/6 58/203/6 
f 38/202/6 6/191/6 115/192/6 
f 37/204/6 121/205/6 58/203/6 38/202/6 
f 58/203/6 121/205/6 122/206/6 
f 123/207/1 66/208/1 124/209/1 125/210/1 
f 122/206/3 121/205/3 120/211/3 126/212/3 
f 127/213/16 126/212/16 120/211/16 119/214/16 
f 127/213/3 119/214/3 118/215/3 128/216/3 
f 117/217/6 125/210/6 124/209/6 118/215/6 
f 118/215/6 124/209/6 128/216/6 
f 59/61/1 58/60/1 128/218/1 64/219/1 
f 128/218/1 58/60/1 126/220/1 127/221/1 
f 126/220/1 58/60/1 122/222/1 
f 128/218/1 124/223/1 66/224/1 64/219/1 
f 129/225/3 130/226/3 131/227/3 132/228/3 
f 133/229/3 116/193/3 132/228/3 131/227/3 
f 134/230/3 135/231/3 116/193/3 133/229/3 
f 123/232/3 125/233/3 116/193/3 135/231/3 
f 116/193/3 125/233/3 117/194/3 
f 134/234/17 65/235/17 67/236/17 135/237/17 
f 133/238/6 61/239/6 65/235/6 134/234/6 
f 131/240/18 62/241/18 61/239/18 133/238/18 
f 135/237/6 67/236/6 66/208/6 123/207/6 
f 129/242/6 136/243/6 63/244/6 130/245/6 
f 63/244/6 136/243/6 68/246/6 
f 131/240/19 130/245/19 63/244/19 62/241/19 
f 137/247/6 47/248/6 46/249/6 138/250/6 
f 139/251/1 53/252/1 52/253/1 129/225/1 
f 139/251/1 129/225/1 132/228/1 140/254/1 
f 129/225/1 52/253/1 136/255/1 
f 52/54/20 54/56/20 68/70/20 136/256/20 
f 141/257/6 45/258/6 55/259/6 142/260/6 
f 143/261/6 56/262/6 57/263/6 144/264/6 
f 41/265/21 40/266/21 56/262/21 143/261/21 
f 141/257/22 144/264/22 57/263/22 45/258/22 
f 137/247/23 142/260/23 55/259/23 47/248/23 
f 145/267/24 51/268/24 50/269/24 146/270/24 
f 48/271/1 51/268/1 145/267/1 147/272/1 
f 148/273/6 49/274/6 48/271/6 147/272/6 
f 138/250/25 46/249/25 49/274/25 148/273/25 
f 146/270/6 50/269/6 53/275/6 139/276/6 
f 42/277/3 41/278/3 143/279/3 141/280/3 
f 141/280/3 140/254/3 149/281/3 42/277/3 
f 141/280/3 142/282/3 137/283/3 140/254/3 
f 137/283/3 138/284/3 148/285/3 140/254/3 
f 147/286/3 146/287/3 140/254/3 148/285/3 
f 146/287/3 147/286/3 145/288/3 
f 140/254/3 146/287/3 139/251/3 
f 141/280/3 143/279/3 144/289/3 
f 43/45/26 39/41/26 42/44/26 149/290/26 
f 82/86/27 81/85/27 72/74/27 77/79/27 
f 78/82/28 79/81/28 82/291/28 77/292/28 
# 128 polygons - 26 triangles

