# 3ds Max Wavefront OBJ Exporter v0.97b - (c)2007 guruware
# File Created: 25.06.2020 02:19:22

mtllib Gemstone01_Lowpoly.mtl

#
# object Gemstone01_Lowpoly
#

v  2.0169 0.5901 3.2731
v  0.4648 1.2293 3.1612
v  -0.4315 0.4815 3.2258
v  -1.1280 -1.5300 3.4414
v  -0.7853 -1.5428 3.4513
v  1.7936 1.3945 2.5215
v  1.1537 1.7726 2.3571
v  0.6975 1.8607 2.4273
v  -1.9631 2.3008 -1.7436
v  -2.3359 1.9980 -1.7302
v  2.9250 0.8466 0.3604
v  3.1861 0.4007 0.4022
v  2.0283 -0.6335 2.6041
v  3.1817 0.2832 0.3510
v  0.1737 -1.5013 -2.9316
v  -0.0987 -1.4911 -2.9394
v  -0.2108 -0.8904 -3.0116
v  -0.9901 1.0188 -2.9023
v  -2.5330 1.6358 -1.8328
v  -0.8797 2.0842 -2.3771
v  1.6220 1.6387 -0.4280
v  2.1709 -1.5954 -1.2698
v  1.3668 -1.6098 2.3898
v  -3.1044 -1.4084 -0.5540
# 24 vertices

vn 0.5826 0.1701 0.7948
vn -0.1771 0.5762 0.7979
vn -0.4804 0.3959 0.7826
vn -0.5227 -0.4947 0.6943
vn 0.0343 -0.6669 0.7443
vn 0.5401 0.7450 0.3916
vn 0.3144 0.8939 0.3194
vn -0.0777 0.9107 0.4056
vn -0.3831 0.8956 -0.2262
vn -0.7498 0.6372 -0.1782
vn 0.7664 0.5971 -0.2367
vn 0.9672 0.2215 -0.1246
vn 0.7150 -0.4537 0.5319
vn 0.9663 -0.1077 -0.2340
vn 0.3598 -0.5733 -0.7361
vn -0.2228 -0.6904 -0.6882
vn 0.0101 0.0468 -0.9989
vn -0.0511 0.1711 -0.9839
vn -0.8856 0.2879 -0.3645
vn 0.1712 0.7440 -0.6458
vn 0.5277 0.7565 -0.3862
vn 0.6571 -0.5998 -0.4566
vn 0.4052 -0.8312 0.3807
vn -0.8599 -0.5075 -0.0553
# 24 vertex normals

vt 0.5061 0.4680 0.0000
vt 0.5106 0.3601 0.0000
vt 0.5635 0.3206 0.0000
vt 0.6769 0.3130 0.0000
vt 0.6705 0.3381 0.0000
vt 0.4469 0.4291 0.0000
vt 0.4378 0.3815 0.0000
vt 0.4471 0.3532 0.0000
vt 0.3100 0.1403 0.0000
vt 0.3864 0.0623 0.0000
vt 0.3521 0.4708 0.0000
vt 0.3401 0.4793 0.0000
vt 0.4380 0.5204 0.0000
vt 0.3236 0.4741 0.0000
vt 0.0589 0.2735 0.0000
vt 0.0627 0.2567 0.0000
vt 0.0899 0.2537 0.0000
vt 0.1862 0.2165 0.0000
vt 0.2304 0.1074 0.0000
vt 0.2968 0.1194 0.0000
vt 0.2670 0.2115 0.0000
vt 0.3314 0.3808 0.0000
vt 0.1871 0.5101 0.0000
vt 0.5818 0.5052 0.0000
vt 0.6506 0.4873 0.0000
vt 0.8601 0.3431 0.0000
vt 0.6978 0.3195 0.0000
vt 0.6467 0.0636 0.0000
vt 0.8957 0.0621 0.0000
vt 0.9128 0.0710 0.0000
vt 0.9995 0.2091 0.0000
vt 0.4221 0.5919 0.0000
vt 0.0005 0.0435 0.0000
vt 0.4623 0.0005 0.0000
# 34 texture coords

o Gemstone01_Lowpoly
g Gemstone01_Lowpoly
usemtl wire_020020020
s off
f 1/1/1 2/2/2 3/3/3 4/4/4 5/5/5 
f 2/2/2 1/1/1 6/6/6 7/7/7 8/8/8 
f 9/9/9 10/10/10 3/3/3 2/2/2 8/8/8 
f 11/11/11 6/6/6 1/1/1 12/12/12 
f 12/12/12 1/1/1 13/13/13 14/14/14 
f 15/15/15 16/16/16 17/17/17 
f 18/18/18 19/19/19 10/20/10 9/9/9 20/21/20 
f 20/21/20 9/9/9 8/8/8 7/7/7 21/22/21 
f 21/22/21 7/7/7 6/6/6 11/11/11 
f 12/12/12 14/14/14 22/23/22 15/15/15 17/17/17 18/18/18 20/21/20 21/22/21 11/11/11 
f 13/24/13 1/1/1 5/5/5 23/25/23 
f 23/26/23 5/27/5 4/4/4 24/28/24 16/29/16 15/30/15 22/31/22 
f 23/32/23 22/23/22 14/14/14 13/13/13 
f 19/19/19 18/18/18 17/17/17 16/16/16 24/33/24 
f 3/3/3 10/10/10 19/34/19 24/28/24 4/4/4 
# 14 polygons - 1 triangles

