# 3ds Max Wavefront OBJ Exporter v0.97b - (c)2007 guruware
# File Created: 26.06.2020 12:45:11

mtllib Gemstone03_Lowpoly.mtl

#
# object Gemstone03_Lowpoly
#

v  -3.1733 -3.0828 3.0503
v  -3.1407 -3.0856 1.6530
v  -3.1336 -4.2954 2.5563
v  -2.9248 -4.0802 4.3150
v  -0.9033 -4.0787 2.4408
v  -0.9313 -4.1822 4.4213
v  1.2735 -4.4372 2.6976
v  1.0133 -3.7844 3.9468
v  2.4537 -3.4544 1.9609
v  2.0001 -2.9844 2.9462
v  2.8935 -2.7259 1.4291
v  2.5528 -2.4820 2.3408
v  -3.0010 -2.9474 0.2651
v  -3.1407 -4.2736 0.5873
v  -0.8292 -3.9251 0.5068
v  1.2231 -4.3289 0.6144
v  3.0884 -4.0380 0.5399
v  3.1776 -2.9190 0.2632
v  -2.5495 -2.6461 -0.9750
v  -2.0210 -3.2711 -1.1222
v  -1.0521 -4.4821 -1.4276
v  1.4327 -4.8172 -1.5154
v  3.3432 -4.3340 -1.3823
v  3.1498 -2.9100 -1.0444
v  -1.9973 -2.2530 -1.8469
v  -1.4413 -2.6115 -2.1189
v  -0.6342 -3.3445 -2.6705
v  0.9300 -3.5577 -2.8227
v  2.4120 -3.4083 -2.7144
v  2.6656 -2.5753 -2.0901
v  -1.7049 -2.0337 -2.5401
v  -1.1047 -2.1892 -2.7371
v  -0.4347 -2.7107 -3.3841
v  0.7677 -3.0646 -3.8256
v  1.7704 -2.7016 -3.4035
v  2.4214 -2.3968 -2.9991
v  -1.4279 1.5070 1.8847
v  -1.0071 1.8966 2.3807
v  -0.9168 1.7402 1.1515
v  -1.3730 1.4384 0.9316
v  -0.4016 2.7255 3.4135
v  -0.4121 2.7950 1.9384
v  0.5508 2.2943 2.8597
v  0.6397 2.7901 1.9410
v  1.1436 1.7337 2.1604
v  1.2588 1.9612 1.3180
v  1.6271 1.4756 1.8401
v  1.7554 1.6199 1.0612
v  -0.9289 1.7559 0.1412
v  -1.4383 1.5317 0.0705
v  -0.4440 2.9623 0.4290
v  0.8030 3.6113 0.5890
v  1.3957 2.2225 0.2441
v  1.7870 1.6635 0.0947
v  -1.1261 2.1513 -0.9934
v  -1.4707 1.5559 -0.8589
v  -0.5630 3.5677 -1.3605
v  0.9808 4.4220 -1.5780
v  1.5759 2.5485 -1.1324
v  1.7801 1.6355 -0.9011
v  -1.2717 2.4196 -2.4442
v  -1.5183 1.6179 -1.8409
v  -0.6948 4.1601 -3.7656
v  0.9245 4.1856 -3.7662
v  1.5591 2.5247 -2.5371
v  1.8403 1.7103 -1.9435
v  -1.3121 2.4987 -3.9192
v  -1.6323 1.7515 -2.9913
v  -0.5072 3.2980 -4.9071
v  0.6596 2.9014 -4.3925
v  1.4254 2.2623 -3.6381
v  1.8773 1.7672 -3.0119
v  -2.4482 -2.5503 4.3363
v  -2.5518 -1.8504 2.7974
v  -0.9475 -3.0980 5.2099
v  0.8697 -2.3622 3.8913
v  1.7144 -1.8336 2.8016
v  2.2460 -1.5680 2.2274
v  -1.9965 -1.0358 4.1389
v  -2.1281 -0.7811 2.5620
v  -0.7772 -1.3115 5.2503
v  0.7635 -0.9806 3.7852
v  1.4693 -0.7983 2.5808
v  1.9608 -0.6924 2.0583
v  -1.5821 0.3446 3.6135
v  -1.9086 0.1460 2.4462
v  -0.6093 0.5150 4.7769
v  0.6473 0.2984 3.3727
v  1.2950 0.1239 2.3694
v  1.7720 0.0620 1.9278
v  -1.2229 1.2581 2.8819
v  -1.6785 0.9413 2.2168
v  -0.5239 1.9722 4.3412
v  0.5781 1.3433 3.0367
v  1.1923 0.9533 2.2304
v  1.6806 0.7716 1.8732
v  2.4891 -1.6974 1.3420
v  2.6007 -1.7547 0.2087
v  2.5535 -1.7301 -0.9850
v  2.3567 -1.6382 -2.0337
v  2.1981 -1.5591 -2.9560
v  2.1441 -0.7267 1.2244
v  2.1138 -0.7400 0.1442
v  2.0896 -0.7471 -0.9135
v  2.1746 -0.7480 -2.0235
v  2.1338 -0.7413 -3.0592
v  1.9129 0.0967 1.1268
v  1.8337 0.0813 0.0997
v  1.8104 0.0689 -0.8619
v  1.9612 0.0958 -1.9495
v  2.1024 0.1159 -3.1859
v  1.8081 0.8669 1.0855
v  1.7526 0.8305 0.0867
v  1.7318 0.7995 -0.8630
v  1.8754 0.8993 -1.9443
v  1.9826 0.9721 -3.1279
v  1.6564 -1.7901 -3.4789
v  0.8601 -2.3538 -4.6291
v  -0.3884 -1.7560 -3.4046
v  -1.0138 -1.4350 -2.7254
v  -1.6237 -1.3604 -2.5800
v  1.7115 -0.8807 -3.8706
v  0.8534 -1.0789 -5.1359
v  -0.3837 -0.8286 -3.6386
v  -1.0154 -0.7014 -2.8808
v  -1.6275 -0.6934 -2.7162
v  1.5723 0.2215 -3.8219
v  0.7157 0.3648 -4.6530
v  -0.4127 0.2860 -4.1032
v  -1.0965 0.1400 -3.2240
v  -1.6915 0.0670 -2.9343
v  1.4640 1.2599 -3.7072
v  0.6704 1.6418 -4.5023
v  -0.4641 1.7438 -4.6837
v  -1.2125 1.2389 -3.6486
v  -1.7213 0.9563 -3.0809
v  -1.8863 -1.4878 -1.8751
v  -2.2520 -1.6909 -0.9598
v  -2.3651 -1.7374 0.2077
v  -2.5268 -1.8213 1.5043
v  -1.8838 -0.7376 -1.9772
v  -1.8510 -0.7205 -0.9091
v  -1.9475 -0.7394 0.1482
v  -2.1023 -0.7790 1.3576
v  -1.7383 0.0932 -1.9598
v  -1.6460 0.0834 -0.8957
v  -1.6705 0.0899 0.1032
v  -1.8501 0.1244 1.2542
v  -1.5737 0.8652 -1.8656
v  -1.4976 0.7952 -0.8613
v  -1.5237 0.8273 0.0860
v  -1.6917 0.9708 1.1826
# 152 vertices

vn -0.9630 0.1857 0.1951
vn -0.9818 0.1797 -0.0615
vn -0.6847 -0.7225 0.0955
vn -0.5879 -0.4820 0.6497
vn -0.0297 -0.9973 -0.0672
vn 0.1032 -0.8885 0.4471
vn 0.3036 -0.9180 0.2553
vn 0.5141 -0.3742 0.7718
vn 0.7986 -0.3269 0.5054
vn 0.7357 -0.0386 0.6762
vn 0.9614 0.0245 0.2742
vn 0.8470 0.0480 0.5294
vn -0.9514 0.2444 -0.1875
vn -0.6597 -0.6970 -0.2811
vn -0.0309 -0.9940 0.1047
vn -0.0273 -0.9962 0.0827
vn 0.7138 -0.6059 0.3513
vn 0.9794 0.1850 0.0815
vn -0.8831 -0.1247 -0.4523
vn -0.6589 -0.3837 -0.6470
vn -0.4850 -0.8452 -0.2245
vn 0.0766 -0.9590 -0.2730
vn 0.7987 -0.5471 -0.2505
vn 0.9405 0.3005 -0.1584
vn -0.8112 -0.2243 -0.5400
vn -0.6660 -0.3887 -0.6367
vn -0.4724 -0.5773 -0.6660
vn -0.0272 -0.8224 -0.5682
vn 0.5705 -0.3605 -0.7379
vn 0.9350 0.1615 -0.3159
vn -0.6532 -0.3485 -0.6722
vn -0.6068 -0.1562 -0.7793
vn -0.5635 -0.2776 -0.7781
vn 0.0040 -0.8249 -0.5652
vn 0.4895 -0.1698 -0.8553
vn 0.8053 -0.2096 -0.5545
vn -0.8076 0.5892 0.0251
vn -0.7866 0.6161 0.0404
vn -0.7337 0.6771 -0.0570
vn -0.7019 0.7107 0.0479
vn -0.1915 0.8975 0.3974
vn -0.5448 0.8357 0.0698
vn 0.6972 0.4054 0.5912
vn 0.4971 0.7287 0.4711
vn 0.7792 0.3805 0.4981
vn 0.7571 0.6017 0.2545
vn 0.7954 0.3800 0.4722
vn 0.8705 0.4766 0.1227
vn -0.7169 0.6740 0.1781
vn -0.7994 0.5953 0.0809
vn -0.7577 0.6291 0.1732
vn 0.3190 0.8441 0.4311
vn 0.8760 0.4309 0.2166
vn 0.9583 0.2854 0.0120
vn -0.8496 0.4686 0.2420
vn -0.9590 0.2787 0.0514
vn -0.7036 0.6698 0.2374
vn 0.3548 0.9303 0.0932
vn 0.9552 0.2823 0.0894
vn 0.9965 0.0803 0.0244
vn -0.9213 0.3743 0.1054
vn -0.9738 0.2114 0.0841
vn -0.5700 0.7959 -0.2039
vn 0.5319 0.6700 -0.5178
vn 0.9555 0.2798 -0.0934
vn 0.9755 0.2112 0.0610
vn -0.8853 0.2939 -0.3603
vn -0.9549 0.2969 0.0080
vn -0.1792 0.4046 -0.8968
vn 0.5906 0.1611 -0.7907
vn 0.8180 0.3437 -0.4613
vn 0.9046 0.4030 -0.1391
vn -0.7507 0.2646 0.6053
vn -0.8967 0.4248 0.1248
vn 0.0283 -0.3396 0.9401
vn 0.6643 0.1024 0.7404
vn 0.6637 0.2790 0.6940
vn 0.8019 0.3442 0.4884
vn -0.8017 0.3618 0.4758
vn -0.9509 0.3050 0.0524
vn 0.0259 0.0938 0.9953
vn 0.7476 0.1906 0.6362
vn 0.7422 0.2910 0.6037
vn 0.8286 0.3221 0.4579
vn -0.8011 0.4788 0.3590
vn -0.9595 0.2680 0.0870
vn -0.0032 0.2674 0.9636
vn 0.7898 0.2434 0.5630
vn 0.7616 0.2381 0.6028
vn 0.8597 0.2256 0.4583
vn -0.8338 0.4962 0.2421
vn -0.8964 0.3937 0.2035
vn -0.1099 0.5436 0.8321
vn 0.8081 0.1795 0.5610
vn 0.7276 0.1535 0.6686
vn 0.8516 0.1235 0.5094
vn 0.9229 0.3601 0.1365
vn 0.8981 0.4393 0.0199
vn 0.8937 0.4419 -0.0776
vn 0.9543 0.2590 -0.1492
vn 0.8778 0.1207 -0.4636
vn 0.9467 0.3116 0.0810
vn 0.9258 0.3769 -0.0272
vn 0.9272 0.3739 0.0234
vn 0.9749 0.2218 0.0174
vn 0.9667 0.0197 -0.2550
vn 0.9773 0.2065 0.0482
vn 0.9754 0.2142 -0.0520
vn 0.9751 0.2150 0.0547
vn 0.9774 0.1688 0.1274
vn 0.9503 0.0634 -0.3047
vn 0.9931 0.1032 0.0560
vn 0.9987 0.0332 -0.0396
vn 0.9981 0.0290 0.0548
vn 0.9905 0.0736 0.1163
vn 0.9456 0.1566 -0.2850
vn 0.7811 -0.1263 -0.6115
vn 0.0998 -0.5620 -0.8211
vn -0.7338 -0.0703 -0.6757
vn -0.5139 -0.0598 -0.8558
vn -0.6667 -0.0697 -0.7420
vn 0.8588 -0.0643 -0.5082
vn 0.0546 -0.0439 -0.9975
vn -0.7694 -0.2089 -0.6036
vn -0.5334 -0.2701 -0.8016
vn -0.6684 -0.2095 -0.7137
vn 0.7371 0.1359 -0.6620
vn 0.1541 0.2276 -0.9615
vn -0.5749 -0.3239 -0.7514
vn -0.5593 -0.3541 -0.7495
vn -0.8136 -0.1742 -0.5547
vn 0.7487 0.1117 -0.6535
vn 0.4689 0.0991 -0.8777
vn -0.3462 -0.2316 -0.9091
vn -0.6822 -0.2678 -0.6803
vn -0.9439 0.0072 -0.3301
vn -0.9346 0.0371 -0.3538
vn -0.9237 0.3360 -0.1839
vn -0.9038 0.4208 -0.0782
vn -0.9142 0.4024 -0.0480
vn -0.9848 0.0743 -0.1571
vn -0.9488 0.3145 -0.0287
vn -0.9339 0.3452 -0.0936
vn -0.9464 0.3164 -0.0655
vn -0.9817 0.1898 0.0150
vn -0.9740 0.2245 0.0310
vn -0.9635 0.2521 -0.0904
vn -0.9708 0.2156 -0.1050
vn -0.9855 0.1323 0.1060
vn -0.9922 0.1219 0.0250
vn -0.9826 0.1558 -0.1009
vn -0.9259 0.3714 -0.0686
# 152 vertex normals

vt 0.4401 0.3077 0.0000
vt 0.3674 0.3020 0.0000
vt 0.4194 0.2426 0.0000
vt 0.5025 0.2255 0.0000
vt 0.3598 0.1430 0.0000
vt 0.4514 0.0959 0.0000
vt 0.3184 0.0367 0.0000
vt 0.3822 0.0182 0.0000
vt 0.6776 0.3428 0.0000
vt 0.7505 0.3527 0.0000
vt 0.7522 0.4168 0.0000
vt 0.6961 0.4071 0.0000
vt 0.7528 0.4639 0.0000
vt 0.7067 0.4467 0.0000
vt 0.2946 0.3037 0.0000
vt 0.3230 0.2635 0.0000
vt 0.2691 0.1868 0.0000
vt 0.2240 0.0899 0.0000
vt 0.1750 0.0060 0.0000
vt 0.2558 0.0005 0.0000
vt 0.8303 0.4348 0.0000
vt 0.8083 0.4908 0.0000
vt 0.2289 0.3144 0.0000
vt 0.2236 0.2813 0.0000
vt 0.2001 0.2421 0.0000
vt 0.1207 0.1352 0.0000
vt 0.0541 0.0594 0.0000
vt 0.9211 0.4803 0.0000
vt 0.8637 0.5307 0.0000
vt 0.1819 0.3313 0.0000
vt 0.1692 0.3116 0.0000
vt 0.1408 0.2754 0.0000
vt 0.0875 0.2069 0.0000
vt 0.0249 0.1513 0.0000
vt 0.9498 0.5599 0.0000
vt 0.8981 0.5765 0.0000
vt 0.1538 0.3445 0.0000
vt 0.1351 0.3319 0.0000
vt 0.1041 0.2984 0.0000
vt 0.0777 0.2568 0.0000
vt 0.0201 0.2047 0.0000
vt 0.9578 0.6108 0.0000
vt 0.9314 0.6116 0.0000
vt 0.3611 0.5419 0.0000
vt 0.3853 0.5642 0.0000
vt 0.3226 0.5513 0.0000
vt 0.3100 0.5328 0.0000
vt 0.4698 0.6237 0.0000
vt 0.3587 0.6091 0.0000
vt 0.4942 0.6516 0.0000
vt 0.5450 0.6400 0.0000
vt 0.5727 0.6819 0.0000
vt 0.5380 0.7121 0.0000
vt 0.5871 0.6316 0.0000
vt 0.6161 0.6667 0.0000
vt 0.6085 0.6303 0.0000
vt 0.6373 0.6600 0.0000
vt 0.2714 0.5539 0.0000
vt 0.2660 0.5358 0.0000
vt 0.2795 0.6118 0.0000
vt 0.6127 0.7449 0.0000
vt 0.5819 0.7747 0.0000
vt 0.6539 0.7103 0.0000
vt 0.6771 0.6910 0.0000
vt 0.2087 0.5639 0.0000
vt 0.2181 0.5335 0.0000
vt 0.1840 0.6362 0.0000
vt 0.6826 0.8364 0.0000
vt 0.6307 0.8513 0.0000
vt 0.7026 0.7657 0.0000
vt 0.7204 0.7199 0.0000
vt 0.1322 0.5721 0.0000
vt 0.1668 0.5328 0.0000
vt 0.0565 0.6574 0.0000
vt 0.7682 0.9106 0.0000
vt 0.6974 0.9534 0.0000
vt 0.7632 0.8071 0.0000
vt 0.7625 0.7545 0.0000
vt 0.0551 0.5703 0.0000
vt 0.1064 0.5351 0.0000
vt 0.0005 0.6079 0.0000
vt 0.8419 0.9691 0.0000
vt 0.8313 0.8785 0.0000
vt 0.8629 0.9306 0.0000
vt 0.8180 0.8292 0.0000
vt 0.8062 0.7892 0.0000
vt 0.5029 0.3396 0.0000
vt 0.4220 0.3709 0.0000
vt 0.5961 0.2956 0.0000
vt 0.5768 0.3335 0.0000
vt 0.6390 0.4060 0.0000
vt 0.6675 0.4604 0.0000
vt 0.6839 0.4891 0.0000
vt 0.4885 0.4186 0.0000
vt 0.4055 0.4256 0.0000
vt 0.5475 0.4087 0.0000
vt 0.5998 0.4670 0.0000
vt 0.6456 0.5111 0.0000
vt 0.6647 0.5314 0.0000
vt 0.4557 0.4883 0.0000
vt 0.3957 0.4733 0.0000
vt 0.5140 0.5013 0.0000
vt 0.5788 0.5339 0.0000
vt 0.6268 0.5568 0.0000
vt 0.6474 0.5675 0.0000
vt 0.4140 0.5329 0.0000
vt 0.3806 0.5138 0.0000
vt 0.4870 0.5759 0.0000
vt 0.5616 0.5886 0.0000
vt 0.6077 0.5963 0.0000
vt 0.6283 0.5993 0.0000
vt 0.7255 0.5103 0.0000
vt 0.7755 0.5420 0.0000
vt 0.8255 0.5791 0.0000
vt 0.8674 0.6147 0.0000
vt 0.9043 0.6459 0.0000
vt 0.7012 0.5551 0.0000
vt 0.7476 0.5872 0.0000
vt 0.7928 0.6188 0.0000
vt 0.8401 0.6523 0.0000
vt 0.8840 0.6838 0.0000
vt 0.6805 0.5931 0.0000
vt 0.7247 0.6235 0.0000
vt 0.7660 0.6520 0.0000
vt 0.8115 0.6860 0.0000
vt 0.8635 0.7242 0.0000
vt 0.6590 0.6272 0.0000
vt 0.7026 0.6558 0.0000
vt 0.7440 0.6831 0.0000
vt 0.7870 0.7200 0.0000
vt 0.8352 0.7589 0.0000
vt 0.9335 0.6519 0.0000
vt 0.9868 0.6081 0.0000
vt 0.9995 0.6626 0.0000
vt 0.0989 0.3510 0.0000
vt 0.0376 0.3150 0.0000
vt 0.1263 0.3697 0.0000
vt 0.1446 0.3782 0.0000
vt 0.9227 0.7024 0.0000
vt 0.9826 0.7322 0.0000
vt 0.0830 0.3983 0.0000
vt 0.0061 0.3793 0.0000
vt 0.1155 0.4068 0.0000
vt 0.1350 0.4119 0.0000
vt 0.8874 0.7479 0.0000
vt 0.9153 0.7799 0.0000
vt 0.0544 0.4544 0.0000
vt 0.0254 0.4563 0.0000
vt 0.1009 0.4496 0.0000
vt 0.1240 0.4507 0.0000
vt 0.8512 0.7886 0.0000
vt 0.8729 0.8295 0.0000
vt 0.9570 0.8144 0.0000
vt 0.9117 0.8708 0.0000
vt 0.0742 0.5058 0.0000
vt 0.0183 0.5280 0.0000
vt 0.1049 0.4934 0.0000
vt 0.1774 0.3710 0.0000
vt 0.2258 0.3641 0.0000
vt 0.2868 0.3664 0.0000
vt 0.3546 0.3672 0.0000
vt 0.1691 0.4097 0.0000
vt 0.2246 0.4148 0.0000
vt 0.2797 0.4181 0.0000
vt 0.3428 0.4209 0.0000
vt 0.1667 0.4530 0.0000
vt 0.2221 0.4567 0.0000
vt 0.2740 0.4611 0.0000
vt 0.3338 0.4674 0.0000
vt 0.1685 0.4935 0.0000
vt 0.2210 0.4939 0.0000
vt 0.2702 0.4994 0.0000
vt 0.3267 0.5112 0.0000
# 173 texture coords

o Gemstone03_Lowpoly
g Gemstone03_Lowpoly
usemtl wire_020020020
s 2
f 1/1/1 2/2/2 3/3/3 4/4/4 
f 4/4/4 3/3/3 5/5/5 6/6/6 
f 6/6/6 5/5/5 7/7/7 8/8/8 
f 8/9/8 7/10/7 9/11/9 10/12/10 
f 10/12/10 9/11/9 11/13/11 12/14/12 
f 2/2/2 13/15/13 14/16/14 3/3/3 
f 3/3/3 14/16/14 15/17/15 5/5/5 
f 5/5/5 15/17/15 16/18/16 7/7/7 
f 7/7/7 16/18/16 17/19/17 9/20/9 
f 9/11/9 17/21/17 18/22/18 11/13/11 
f 13/15/13 19/23/19 20/24/20 14/16/14 
f 14/16/14 20/24/20 21/25/21 15/17/15 
f 15/17/15 21/25/21 22/26/22 16/18/16 
f 16/18/16 22/26/22 23/27/23 17/19/17 
f 17/21/17 23/28/23 24/29/24 18/22/18 
f 19/23/19 25/30/25 26/31/26 20/24/20 
f 20/24/20 26/31/26 27/32/27 21/25/21 
f 21/25/21 27/32/27 28/33/28 22/26/22 
f 22/26/22 28/33/28 29/34/29 23/27/23 
f 23/28/23 29/35/29 30/36/30 24/29/24 
f 25/30/25 31/37/31 32/38/32 26/31/26 
f 26/31/26 32/38/32 33/39/33 27/32/27 
f 27/32/27 33/39/33 34/40/34 28/33/28 
f 28/33/28 34/40/34 35/41/35 29/34/29 
f 29/35/29 35/42/35 36/43/36 30/36/30 
s 4
f 37/44/37 38/45/38 39/46/39 40/47/40 
f 38/45/38 41/48/41 42/49/42 39/46/39 
f 41/50/41 43/51/43 44/52/44 42/53/42 
f 43/51/43 45/54/45 46/55/46 44/52/44 
f 45/54/45 47/56/47 48/57/48 46/55/46 
f 40/47/40 39/46/39 49/58/49 50/59/50 
f 39/46/39 42/49/42 51/60/51 49/58/49 
f 42/53/42 44/52/44 52/61/52 51/62/51 
f 44/52/44 46/55/46 53/63/53 52/61/52 
f 46/55/46 48/57/48 54/64/54 53/63/53 
f 50/59/50 49/58/49 55/65/55 56/66/56 
f 49/58/49 51/60/51 57/67/57 55/65/55 
f 51/62/51 52/61/52 58/68/58 57/69/57 
f 52/61/52 53/63/53 59/70/59 58/68/58 
f 53/63/53 54/64/54 60/71/60 59/70/59 
f 56/66/56 55/65/55 61/72/61 62/73/62 
f 55/65/55 57/67/57 63/74/63 61/72/61 
f 57/69/57 58/68/58 64/75/64 63/76/63 
f 58/68/58 59/70/59 65/77/65 64/75/64 
f 59/70/59 60/71/60 66/78/66 65/77/65 
f 62/73/62 61/72/61 67/79/67 68/80/68 
f 61/72/61 63/74/63 69/81/69 67/79/67 
f 63/82/63 64/75/64 70/83/70 69/84/69 
f 64/75/64 65/77/65 71/85/71 70/83/70 
f 65/77/65 66/78/66 72/86/72 71/85/71 
s 8
f 1/1/1 4/4/4 73/87/73 74/88/74 
f 4/4/4 6/89/6 75/90/75 73/87/73 
f 6/89/6 8/9/8 76/91/76 75/90/75 
f 8/9/8 10/12/10 77/92/77 76/91/76 
f 10/12/10 12/14/12 78/93/78 77/92/77 
f 74/88/74 73/87/73 79/94/79 80/95/80 
f 73/87/73 75/90/75 81/96/81 79/94/79 
f 75/90/75 76/91/76 82/97/82 81/96/81 
f 76/91/76 77/92/77 83/98/83 82/97/82 
f 77/92/77 78/93/78 84/99/84 83/98/83 
f 80/95/80 79/94/79 85/100/85 86/101/86 
f 79/94/79 81/96/81 87/102/87 85/100/85 
f 81/96/81 82/97/82 88/103/88 87/102/87 
f 82/97/82 83/98/83 89/104/89 88/103/88 
f 83/98/83 84/99/84 90/105/90 89/104/89 
f 86/101/86 85/100/85 91/106/91 92/107/92 
f 85/100/85 87/102/87 93/108/93 91/106/91 
f 87/102/87 88/103/88 94/109/94 93/108/93 
f 88/103/88 89/104/89 95/110/95 94/109/94 
f 89/104/89 90/105/90 96/111/96 95/110/95 
f 92/107/92 91/106/91 38/45/38 37/44/37 
f 91/106/91 93/108/93 41/48/41 38/45/38 
f 93/108/93 94/109/94 43/51/43 41/48/41 
f 94/109/94 95/110/95 45/54/45 43/51/43 
f 95/110/95 96/111/96 47/56/47 45/54/45 
s 16
f 12/14/12 11/13/11 97/112/97 78/93/78 
f 11/13/11 18/22/18 98/113/98 97/112/97 
f 18/22/18 24/29/24 99/114/99 98/113/98 
f 24/29/24 30/36/30 100/115/100 99/114/99 
f 30/36/30 36/43/36 101/116/101 100/115/100 
f 78/93/78 97/112/97 102/117/102 84/99/84 
f 97/112/97 98/113/98 103/118/103 102/117/102 
f 98/113/98 99/114/99 104/119/104 103/118/103 
f 99/114/99 100/115/100 105/120/105 104/119/104 
f 100/115/100 101/116/101 106/121/106 105/120/105 
f 84/99/84 102/117/102 107/122/107 90/105/90 
f 102/117/102 103/118/103 108/123/108 107/122/107 
f 103/118/103 104/119/104 109/124/109 108/123/108 
f 104/119/104 105/120/105 110/125/110 109/124/109 
f 105/120/105 106/121/106 111/126/111 110/125/110 
f 90/105/90 107/122/107 112/127/112 96/111/96 
f 107/122/107 108/123/108 113/128/113 112/127/112 
f 108/123/108 109/124/109 114/129/114 113/128/113 
f 109/124/109 110/125/110 115/130/115 114/129/114 
f 110/125/110 111/126/111 116/131/116 115/130/115 
f 96/111/96 112/127/112 48/57/48 47/56/47 
f 112/127/112 113/128/113 54/64/54 48/57/48 
f 113/128/113 114/129/114 60/71/60 54/64/54 
f 114/129/114 115/130/115 66/78/66 60/71/60 
f 115/130/115 116/131/116 72/86/72 66/78/66 
s 32
f 36/43/36 35/42/35 117/132/117 101/116/101 
f 35/42/35 34/133/34 118/134/118 117/132/117 
f 34/40/34 33/39/33 119/135/119 118/136/118 
f 33/39/33 32/38/32 120/137/120 119/135/119 
f 32/38/32 31/37/31 121/138/121 120/137/120 
f 101/116/101 117/132/117 122/139/122 106/121/106 
f 117/132/117 118/134/118 123/140/123 122/139/122 
f 118/136/118 119/135/119 124/141/124 123/142/123 
f 119/135/119 120/137/120 125/143/125 124/141/124 
f 120/137/120 121/138/121 126/144/126 125/143/125 
f 106/121/106 122/139/122 127/145/127 111/126/111 
f 122/139/122 123/140/123 128/146/128 127/145/127 
f 123/142/123 124/141/124 129/147/129 128/148/128 
f 124/141/124 125/143/125 130/149/130 129/147/129 
f 125/143/125 126/144/126 131/150/131 130/149/130 
f 111/126/111 127/145/127 132/151/132 116/131/116 
f 127/145/127 128/146/128 133/152/133 132/151/132 
f 128/146/128 129/153/129 134/154/134 133/152/133 
f 129/147/129 130/149/130 135/155/135 134/156/134 
f 130/149/130 131/150/131 136/157/136 135/155/135 
f 116/131/116 132/151/132 71/85/71 72/86/72 
f 132/151/132 133/152/133 70/83/70 71/85/71 
f 133/152/133 134/154/134 69/84/69 70/83/70 
f 134/156/134 135/155/135 67/79/67 69/81/69 
f 135/155/135 136/157/136 68/80/68 67/79/67 
s 64
f 31/37/31 25/30/25 137/158/137 121/138/121 
f 25/30/25 19/23/19 138/159/138 137/158/137 
f 19/23/19 13/15/13 139/160/139 138/159/138 
f 13/15/13 2/2/2 140/161/140 139/160/139 
f 2/2/2 1/1/1 74/88/74 140/161/140 
f 121/138/121 137/158/137 141/162/141 126/144/126 
f 137/158/137 138/159/138 142/163/142 141/162/141 
f 138/159/138 139/160/139 143/164/143 142/163/142 
f 139/160/139 140/161/140 144/165/144 143/164/143 
f 140/161/140 74/88/74 80/95/80 144/165/144 
f 126/144/126 141/162/141 145/166/145 131/150/131 
f 141/162/141 142/163/142 146/167/146 145/166/145 
f 142/163/142 143/164/143 147/168/147 146/167/146 
f 143/164/143 144/165/144 148/169/148 147/168/147 
f 144/165/144 80/95/80 86/101/86 148/169/148 
f 131/150/131 145/166/145 149/170/149 136/157/136 
f 145/166/145 146/167/146 150/171/150 149/170/149 
f 146/167/146 147/168/147 151/172/151 150/171/150 
f 147/168/147 148/169/148 152/173/152 151/172/151 
f 148/169/148 86/101/86 92/107/92 152/173/152 
f 136/157/136 149/170/149 62/73/62 68/80/68 
f 149/170/149 150/171/150 56/66/56 62/73/62 
f 150/171/150 151/172/151 50/59/50 56/66/56 
f 151/172/151 152/173/152 40/47/40 50/59/50 
f 152/173/152 92/107/92 37/44/37 40/47/40 
# 150 polygons

