# 3ds Max Wavefront OBJ Exporter v0.97b - (c)2007 guruware
# File Created: 26.06.2020 00:46:23

mtllib Sandstone04_Lowpoly.mtl

#
# object Sandstone04_Lowpoly
#

v  1.1250 -0.8209 -1.2016
v  1.3342 -0.8209 -0.9501
v  0.4368 -0.8209 -0.0429
v  1.5985 -0.8209 -0.7352
v  1.7861 -0.8209 -0.4184
v  1.8383 -0.8209 -0.0523
v  -0.3717 -0.8209 -1.4484
v  0.0683 -0.8209 -1.5536
v  0.5039 -0.8209 -1.5719
v  0.8501 -0.8209 -1.4805
v  -1.2053 -0.8209 -0.0183
v  -1.1748 -0.8209 -0.4257
v  -1.1144 -0.8209 -0.7580
v  -0.8314 -0.8209 -1.0700
v  -0.3435 -0.8209 1.2170
v  -0.6853 -0.8209 1.0232
v  -0.8732 -0.8209 0.8211
v  -1.1048 -0.8209 0.3638
v  1.1928 -0.8209 1.4340
v  0.8753 -0.8209 1.5020
v  0.4886 -0.8209 1.5000
v  0.0911 -0.8209 1.4581
v  1.8870 -0.8209 0.3448
v  1.7726 -0.8209 0.7405
v  1.4681 -0.8209 1.1367
v  1.7117 -0.8209 -2.3039
v  2.2145 -0.8209 -1.8903
v  2.3362 -0.8209 -1.1812
v  2.7720 -0.8209 -4.0941
v  3.0554 -0.8209 -2.9387
v  3.5786 -0.8209 -1.5327
v  3.7696 -0.8209 -0.2925
v  4.3843 -0.8209 0.6191
v  2.7735 -0.8209 0.1876
v  2.6411 -0.8209 -0.4329
v  -0.8854 -0.8209 -2.0974
v  -0.2342 -0.8209 -2.5434
v  0.4833 -0.8209 -2.5702
v  -1.8835 -0.8209 -3.2671
v  -0.6969 -0.8209 -3.8257
v  0.5592 -0.8209 -3.9097
v  1.6393 -0.8209 -4.1939
v  1.1350 -0.8209 -2.4068
v  -2.3080 -0.8209 -0.0190
v  -2.3220 -0.8209 -0.6582
v  -1.8582 -0.8209 -1.1444
v  -4.3768 -0.8209 -0.5187
v  -3.8898 -0.8209 -1.4246
v  -3.1315 -0.8209 -2.0494
v  -2.5442 -0.8209 -2.7058
v  -1.3952 -0.8209 -1.8059
v  -0.8612 -0.8209 2.2456
v  -1.3082 -0.8209 1.8605
v  -1.8660 -0.8209 1.3517
v  -1.2869 -0.8209 4.1193
v  -2.3088 -0.8209 3.2777
v  -3.0126 -0.8209 1.9032
v  -3.6776 -0.8209 0.5643
v  -2.0898 -0.8209 0.6714
v  1.7266 -0.8209 2.0534
v  1.2008 -0.8209 2.4974
v  0.5468 -0.8209 2.4705
v  3.1497 -0.8209 3.6889
v  2.0458 -0.8209 3.5550
v  0.9049 -0.8209 3.7511
v  -0.1251 -0.8209 3.9905
v  -0.1395 -0.8209 2.4295
v  2.7336 -0.8209 0.8208
v  2.4729 -0.8209 1.3898
v  3.8703 -0.8209 1.5201
v  3.3455 -0.8209 2.4362
v  3.3356 -0.8209 3.2258
v  2.1994 -0.8209 1.8075
v  1.1991 0.8132 -0.7649
v  0.8389 0.8132 -1.1170
v  0.5370 0.8132 -0.1577
v  1.5320 0.8132 -0.3543
v  1.9452 0.8132 0.4111
v  1.7885 0.8132 0.0206
v  -0.2860 0.8132 -1.6673
v  -0.6939 0.8132 -1.3884
v  0.1280 0.8132 -1.6817
v  0.4967 0.8132 -1.3953
v  -1.2581 0.8132 -0.4321
v  -1.1121 0.8132 -0.0047
v  -1.1967 0.8132 -0.8411
v  -1.0000 0.8132 -1.1447
v  -0.6135 0.8132 1.0085
v  -0.2746 0.8132 1.2544
v  -0.9221 0.8132 0.7092
v  -1.0064 0.8132 0.3299
v  0.8806 0.8132 1.5913
v  1.2584 0.8132 1.5807
v  0.4608 0.8132 1.4656
v  0.1001 0.8132 1.3175
v  1.8932 0.8132 0.8069
v  1.7513 0.8132 1.1720
v  1.5400 0.8132 1.4375
v  1.8359 0.8132 -1.4383
v  1.4977 0.8132 -1.8786
v  2.1866 0.8132 -0.8640
v  2.9761 0.8132 -2.8377
v  2.7263 0.8132 -3.8603
v  3.1795 0.8132 -1.4799
v  4.3338 0.8132 0.6748
v  3.7613 0.8132 -0.1078
v  2.5985 0.8132 -0.2136
v  2.8846 0.8132 0.4245
v  -0.4253 0.8132 -2.4895
v  -1.1070 0.8132 -2.2041
v  0.3020 0.8132 -2.6802
v  -0.7705 0.8132 -3.8762
v  -2.0339 0.8132 -3.5195
v  0.4932 0.8132 -3.9188
v  1.6304 0.8132 -3.7649
v  0.9430 0.8132 -2.3099
v  -2.4166 0.8132 -0.9937
v  -2.2642 0.8132 -0.3221
v  -2.2013 0.8132 -1.4513
v  -4.2428 0.8132 -1.6680
v  -4.4474 0.8132 -0.7159
v  -3.3486 0.8132 -2.3888
v  -2.6225 0.8132 -2.9075
v  -1.7173 0.8132 -1.7610
v  -1.3495 0.8132 1.8825
v  -0.6120 0.8132 2.2099
v  -1.7890 0.8132 1.1597
v  -2.1557 0.8132 2.9396
v  -1.0051 0.8132 4.1367
v  -3.0500 0.8132 1.7787
v  -3.6894 0.8132 0.2418
v  -2.0510 0.8132 0.3343
v  1.4750 0.8132 2.6849
v  1.9748 0.8132 2.5624
v  0.8194 0.8132 2.5381
v  2.4301 0.8132 3.9524
v  3.5367 0.8132 3.7796
v  1.2717 0.8132 3.8379
v  0.1238 0.8132 3.9091
v  0.1352 0.8132 2.2863
v  2.7203 0.8132 1.0678
v  2.4974 0.8132 1.6424
v  3.8748 0.8132 1.6965
v  3.6259 0.8132 2.5294
v  3.4250 0.8132 3.2775
v  2.2591 0.8132 2.1606
v  2.7908 -0.2762 -4.0877
v  3.1394 -0.2762 -3.0207
v  2.7774 0.2685 -4.0329
v  3.0358 0.2685 -2.9068
v  3.3502 -0.2762 -1.6210
v  3.2230 0.2685 -1.4152
v  3.8826 -0.2762 -0.2988
v  4.4535 -0.2762 0.5967
v  3.7333 0.2685 -0.1624
v  4.4017 0.2685 0.6168
v  -1.8869 -0.2762 -3.4785
v  -0.6653 -0.2762 -3.8045
v  -1.9838 0.2685 -3.4868
v  -0.7248 0.2685 -3.9246
v  0.5893 -0.2762 -4.0388
v  0.5450 0.2685 -3.8712
v  1.7088 -0.2762 -3.9242
v  1.6703 0.2685 -3.8605
v  -4.3205 -0.2762 -0.4759
v  -4.1282 -0.2762 -1.4009
v  -4.4557 0.2685 -0.5565
v  -4.2138 0.2685 -1.4630
v  -3.2284 -0.2762 -2.1035
v  -3.2156 0.2685 -2.3184
v  -2.4637 -0.2762 -2.7527
v  -2.5679 0.2685 -2.8017
v  -1.3191 -0.2762 4.0906
v  -2.2584 -0.2762 3.0868
v  -1.2106 0.2685 4.2224
v  -2.2113 0.2685 3.0496
v  -3.0237 -0.2762 1.8641
v  -3.0642 0.2685 1.7143
v  -3.5883 -0.2762 0.6258
v  -3.6648 0.2685 0.4861
v  3.2530 -0.2762 3.5799
v  2.1587 -0.2762 3.8312
v  3.3571 0.2685 3.7550
v  2.2550 0.2685 3.8291
v  0.9948 -0.2762 3.6910
v  1.0918 0.2685 3.8157
v  -0.1868 -0.2762 3.8463
v  -0.0726 0.2685 3.9185
v  3.8779 -0.2762 1.4615
v  3.8098 0.2685 1.6106
v  3.5058 -0.2762 2.3761
v  3.5574 0.2685 2.5250
v  3.3686 -0.2762 3.1387
v  3.4359 0.2685 3.3489
# 194 vertices

vn 0.0000 -1.0000 -0.0000
vn 0.5125 -0.6015 -0.6128
vn 0.5944 -0.7826 -0.1851
vn 0.8125 -0.5481 -0.1983
vn 0.5377 -0.8178 -0.2052
vn 0.7573 -0.6528 -0.0186
vn -0.3432 -0.7863 -0.5138
vn -0.1949 -0.6481 -0.7362
vn -0.0937 -0.7998 -0.5929
vn -0.0807 -0.4864 -0.8700
vn -0.8215 -0.5701 0.0121
vn -0.4798 -0.7675 -0.4250
vn -0.4284 -0.7871 -0.4438
vn -0.5177 -0.6766 -0.5237
vn -0.2115 -0.6159 0.7589
vn -0.6360 -0.5528 0.5384
vn -0.6369 -0.7007 0.3214
vn -0.6271 -0.6897 0.3620
vn 0.3537 -0.5537 0.7539
vn 0.0192 -0.8752 0.4834
vn 0.1463 -0.6871 0.7117
vn 0.1380 -0.5902 0.7954
vn 0.6266 -0.6922 0.3583
vn 0.5269 -0.8401 0.1288
vn 0.7187 -0.6771 0.1583
vn 0.0000 1.0000 -0.0000
vn 0.6576 0.7425 -0.1273
vn 0.4489 0.6951 -0.5615
vn 0.6365 0.7518 -0.1721
vn 0.7507 0.6583 -0.0552
vn 0.5861 0.7359 -0.3391
vn -0.1139 0.7076 -0.6974
vn -0.4105 0.6154 -0.6729
vn 0.0340 0.6582 -0.7521
vn 0.0175 0.7892 -0.6139
vn -0.6906 0.5416 -0.4794
vn -0.7560 0.6442 0.1162
vn -0.4813 0.6082 -0.6312
vn -0.4971 0.6526 -0.5719
vn -0.4889 0.7654 0.4185
vn -0.1443 0.6958 0.7036
vn -0.6426 0.6649 0.3807
vn -0.5050 0.8016 0.3198
vn 0.0416 0.5890 0.8070
vn 0.7581 0.4639 0.4582
vn -0.0242 0.7154 0.6983
vn 0.0806 0.7143 0.6952
vn 0.7030 0.6627 0.2581
vn 0.7178 0.6658 0.2038
vn 0.6341 0.7728 0.0263
vn 0.5255 0.0441 -0.8497
vn 0.9712 0.0233 -0.2371
vn 0.5451 0.1924 -0.8160
vn 0.9699 0.1739 -0.1707
vn 0.9177 0.3232 -0.2309
vn 0.9476 0.1785 -0.2649
vn 0.8865 0.0793 -0.4559
vn 0.9999 -0.0152 -0.0032
vn 0.8420 0.1746 -0.5105
vn 0.9888 0.1154 -0.0950
vn -0.5096 -0.2086 -0.8347
vn -0.2187 -0.0922 -0.9714
vn -0.5671 -0.1079 -0.8166
vn -0.1438 -0.0755 -0.9867
vn -0.0346 0.0318 -0.9989
vn 0.0254 0.1074 -0.9939
vn -0.0295 0.2808 -0.9593
vn -0.0719 0.1393 -0.9876
vn -0.9723 -0.0617 0.2253
vn -0.8318 -0.2615 -0.4897
vn -0.9764 -0.0615 0.2072
vn -0.8420 -0.2076 -0.4979
vn -0.6125 -0.2333 -0.7553
vn -0.5997 -0.2640 -0.7554
vn -0.7214 -0.0743 -0.6885
vn -0.6666 -0.1991 -0.7183
vn -0.3495 -0.0600 0.9350
vn -0.7816 0.1931 0.5932
vn -0.2995 0.0428 0.9531
vn -0.7929 0.1539 0.5896
vn -0.8780 0.0417 0.4769
vn -0.8752 0.0162 0.4834
vn -0.8789 0.0436 0.4751
vn -0.8486 0.1028 0.5189
vn 0.7243 -0.1890 0.6630
vn 0.0486 -0.2329 0.9713
vn 0.5898 -0.2796 0.7576
vn 0.0261 -0.1154 0.9930
vn 0.0054 -0.0578 0.9983
vn 0.0403 -0.1434 0.9888
vn 0.1736 0.0535 0.9834
vn 0.1769 -0.1081 0.9783
vn 0.8778 0.0078 0.4789
vn 0.9204 -0.0771 0.3833
vn 0.9361 -0.2059 0.2852
vn 0.9706 -0.1346 0.1996
vn 0.9717 -0.1118 0.2080
vn 0.9826 -0.0719 0.1710
# 98 vertex normals

vt 0.3268 0.5701 0.0000
vt 0.3335 0.5887 0.0000
vt 0.2638 0.6216 0.0000
vt 0.3441 0.6063 0.0000
vt 0.3482 0.6282 0.0000
vt 0.3436 0.6500 0.0000
vt 0.2470 0.5252 0.0000
vt 0.2741 0.5283 0.0000
vt 0.2992 0.5362 0.0000
vt 0.3170 0.5486 0.0000
vt 0.1701 0.5891 0.0000
vt 0.1803 0.5666 0.0000
vt 0.1906 0.5490 0.0000
vt 0.2131 0.5371 0.0000
vt 0.1935 0.6770 0.0000
vt 0.1781 0.6590 0.0000
vt 0.1717 0.6436 0.0000
vt 0.1680 0.6129 0.0000
vt 0.2762 0.7211 0.0000
vt 0.2568 0.7184 0.0000
vt 0.2349 0.7103 0.0000
vt 0.2132 0.6997 0.0000
vt 0.3381 0.6736 0.0000
vt 0.3235 0.6937 0.0000
vt 0.2980 0.7099 0.0000
vt 0.3829 0.5196 0.0000
vt 0.4029 0.5535 0.0000
vt 0.3951 0.5963 0.0000
vt 0.4800 0.4400 0.0000
vt 0.4723 0.5114 0.0000
vt 0.4729 0.6020 0.0000
vt 0.4581 0.6763 0.0000
vt 0.4742 0.7407 0.0000
vt 0.3917 0.6830 0.0000
vt 0.3970 0.6450 0.0000
vt 0.2312 0.4777 0.0000
vt 0.2774 0.4659 0.0000
vt 0.3187 0.4792 0.0000
vt 0.1988 0.3907 0.0000
vt 0.2776 0.3835 0.0000
vt 0.3507 0.4047 0.0000
vt 0.4178 0.4109 0.0000
vt 0.3523 0.5019 0.0000
vt 0.1076 0.5663 0.0000
vt 0.1200 0.5297 0.0000
vt 0.1564 0.5117 0.0000
vt 0.0005 0.4952 0.0000
vt 0.0468 0.4538 0.0000
vt 0.1028 0.4341 0.0000
vt 0.1497 0.4089 0.0000
vt 0.1963 0.4837 0.0000
vt 0.1429 0.7247 0.0000
vt 0.1255 0.6936 0.0000
vt 0.1044 0.6532 0.0000
vt 0.0801 0.8222 0.0000
vt 0.0394 0.7534 0.0000
vt 0.0279 0.6608 0.0000
vt 0.0178 0.5711 0.0000
vt 0.1057 0.6100 0.0000
vt 0.2937 0.7672 0.0000
vt 0.2547 0.7816 0.0000
vt 0.2182 0.7665 0.0000
vt 0.3407 0.8894 0.0000
vt 0.2808 0.8590 0.0000
vt 0.2120 0.8466 0.0000
vt 0.1486 0.8389 0.0000
vt 0.1801 0.7500 0.0000
vt 0.3763 0.7181 0.0000
vt 0.3498 0.7450 0.0000
vt 0.4264 0.7812 0.0000
vt 0.3777 0.8224 0.0000
vt 0.3608 0.8670 0.0000
vt 0.3257 0.7630 0.0000
vt 0.6570 0.3130 0.0000
vt 0.6788 0.2918 0.0000
vt 0.6970 0.3497 0.0000
vt 0.6369 0.3378 0.0000
vt 0.6120 0.3841 0.0000
vt 0.6214 0.3605 0.0000
vt 0.7467 0.2585 0.0000
vt 0.7714 0.2754 0.0000
vt 0.7217 0.2577 0.0000
vt 0.6995 0.2750 0.0000
vt 0.8054 0.3331 0.0000
vt 0.7966 0.3589 0.0000
vt 0.8017 0.3084 0.0000
vt 0.7898 0.2901 0.0000
vt 0.7665 0.4201 0.0000
vt 0.7460 0.4350 0.0000
vt 0.7851 0.4021 0.0000
vt 0.7902 0.3792 0.0000
vt 0.6763 0.4553 0.0000
vt 0.6535 0.4547 0.0000
vt 0.7016 0.4477 0.0000
vt 0.7234 0.4388 0.0000
vt 0.6151 0.4080 0.0000
vt 0.6237 0.4300 0.0000
vt 0.6364 0.4460 0.0000
vt 0.6186 0.2724 0.0000
vt 0.6390 0.2458 0.0000
vt 0.5974 0.3071 0.0000
vt 0.5497 0.1879 0.0000
vt 0.5648 0.1261 0.0000
vt 0.5374 0.2699 0.0000
vt 0.4677 0.4000 0.0000
vt 0.5023 0.3527 0.0000
vt 0.5725 0.3463 0.0000
vt 0.5552 0.3849 0.0000
vt 0.7551 0.2089 0.0000
vt 0.7963 0.2261 0.0000
vt 0.7112 0.1974 0.0000
vt 0.7760 0.1251 0.0000
vt 0.8523 0.1467 0.0000
vt 0.6997 0.1226 0.0000
vt 0.6310 0.1319 0.0000
vt 0.6725 0.2197 0.0000
vt 0.8754 0.2992 0.0000
vt 0.8662 0.3398 0.0000
vt 0.8624 0.2716 0.0000
vt 0.9857 0.2585 0.0000
vt 0.9980 0.3160 0.0000
vt 0.9317 0.2150 0.0000
vt 0.8878 0.1836 0.0000
vt 0.8332 0.2529 0.0000
vt 0.8109 0.4729 0.0000
vt 0.7664 0.4927 0.0000
vt 0.8375 0.4293 0.0000
vt 0.8596 0.5368 0.0000
vt 0.7902 0.6091 0.0000
vt 0.9136 0.4667 0.0000
vt 0.9523 0.3738 0.0000
vt 0.8533 0.3794 0.0000
vt 0.6404 0.5214 0.0000
vt 0.6102 0.5140 0.0000
vt 0.6800 0.5125 0.0000
vt 0.5827 0.5979 0.0000
vt 0.5159 0.5875 0.0000
vt 0.6527 0.5910 0.0000
vt 0.7220 0.5953 0.0000
vt 0.7213 0.4973 0.0000
vt 0.5652 0.4237 0.0000
vt 0.5786 0.4584 0.0000
vt 0.4954 0.4617 0.0000
vt 0.5105 0.5120 0.0000
vt 0.5226 0.5572 0.0000
vt 0.5930 0.4897 0.0000
vt 0.0785 0.9949 0.0000
vt 0.0047 0.9947 0.0000
vt 0.0076 0.9612 0.0000
vt 0.0735 0.9612 0.0000
vt 0.0110 0.9276 0.0000
vt 0.0805 0.9276 0.0000
vt 0.0168 0.8939 0.0000
vt 0.0848 0.8939 0.0000
vt 0.1654 0.9949 0.0000
vt 0.1599 0.9612 0.0000
vt 0.1726 0.9276 0.0000
vt 0.1686 0.8939 0.0000
vt 0.2982 0.9949 0.0000
vt 0.2419 0.9949 0.0000
vt 0.2416 0.9612 0.0000
vt 0.2969 0.9612 0.0000
vt 0.2500 0.9276 0.0000
vt 0.2981 0.9276 0.0000
vt 0.2534 0.8939 0.0000
vt 0.3017 0.8939 0.0000
vt 0.7526 0.1205 0.0000
vt 0.6698 0.1112 0.0000
vt 0.6779 0.0742 0.0000
vt 0.7593 0.0845 0.0000
vt 0.6760 0.0373 0.0000
vt 0.7599 0.0477 0.0000
vt 0.6765 0.0005 0.0000
vt 0.7614 0.0111 0.0000
vt 0.8363 0.1311 0.0000
vt 0.8428 0.0950 0.0000
vt 0.8445 0.0584 0.0000
vt 0.8456 0.0217 0.0000
vt 0.9864 0.1498 0.0000
vt 0.9082 0.1401 0.0000
vt 0.9174 0.1044 0.0000
vt 0.9895 0.1135 0.0000
vt 0.9194 0.0678 0.0000
vt 0.9931 0.0771 0.0000
vt 0.9213 0.0312 0.0000
vt 0.9995 0.0405 0.0000
vt 0.5419 0.1201 0.0000
vt 0.4808 0.1241 0.0000
vt 0.4755 0.0876 0.0000
vt 0.5378 0.0834 0.0000
vt 0.4785 0.0505 0.0000
vt 0.5396 0.0464 0.0000
vt 0.4868 0.0131 0.0000
vt 0.5510 0.0088 0.0000
vt 0.5840 0.1173 0.0000
vt 0.5852 0.0803 0.0000
vt 0.5973 0.0426 0.0000
vt 0.5996 0.0056 0.0000
vt 0.6282 0.1143 0.0000
vt 0.6290 0.0774 0.0000
vt 0.6298 0.0404 0.0000
vt 0.6345 0.0032 0.0000
vt 0.2248 0.1411 0.0000
vt 0.1681 0.1449 0.0000
vt 0.1676 0.1080 0.0000
vt 0.2352 0.1035 0.0000
vt 0.1562 0.0719 0.0000
vt 0.2353 0.0666 0.0000
vt 0.1596 0.0348 0.0000
vt 0.2403 0.0294 0.0000
vt 0.3175 0.1350 0.0000
vt 0.3177 0.0981 0.0000
vt 0.3253 0.0607 0.0000
vt 0.3186 0.0242 0.0000
vt 0.4078 0.1290 0.0000
vt 0.4012 0.0925 0.0000
vt 0.4082 0.0552 0.0000
vt 0.4222 0.0173 0.0000
vt 0.5867 0.9938 0.0000
vt 0.5032 0.9943 0.0000
vt 0.4966 0.9607 0.0000
vt 0.5797 0.9601 0.0000
vt 0.4988 0.9270 0.0000
vt 0.5738 0.9265 0.0000
vt 0.4940 0.8934 0.0000
vt 0.5630 0.8928 0.0000
vt 0.6572 0.9938 0.0000
vt 0.6516 0.9601 0.0000
vt 0.6456 0.9265 0.0000
vt 0.6345 0.8928 0.0000
vt 0.7925 0.9938 0.0000
vt 0.7208 0.9938 0.0000
vt 0.7246 0.9601 0.0000
vt 0.7945 0.9601 0.0000
vt 0.7175 0.9265 0.0000
vt 0.7878 0.9265 0.0000
vt 0.7054 0.8928 0.0000
vt 0.7751 0.8928 0.0000
vt 0.3539 0.9949 0.0000
vt 0.3503 0.9612 0.0000
vt 0.3595 0.9276 0.0000
vt 0.3648 0.8939 0.0000
vt 0.4104 0.9949 0.0000
vt 0.4067 0.9612 0.0000
vt 0.4159 0.9276 0.0000
vt 0.4162 0.8939 0.0000
vt 0.4592 0.9949 0.0000
vt 0.4538 0.9612 0.0000
vt 0.4668 0.9276 0.0000
vt 0.4624 0.8939 0.0000
# 250 texture coords

o Sandstone04_Lowpoly
g Sandstone04_Lowpoly
usemtl wire_020020020
s 1
f 1/1/1 2/2/1 3/3/1 
f 2/2/1 4/4/1 3/3/1 
f 5/5/1 6/6/1 3/3/1 
f 3/3/1 4/4/1 5/5/1 
f 7/7/1 8/8/1 3/3/1 
f 8/8/1 9/9/1 3/3/1 
f 10/10/1 1/1/1 3/3/1 
f 3/3/1 9/9/1 10/10/1 
f 11/11/1 12/12/1 3/3/1 
f 12/12/1 13/13/1 3/3/1 
f 14/14/1 7/7/1 3/3/1 
f 3/3/1 13/13/1 14/14/1 
f 15/15/1 16/16/1 3/3/1 
f 16/16/1 17/17/1 3/3/1 
f 18/18/1 11/11/1 3/3/1 
f 3/3/1 17/17/1 18/18/1 
f 19/19/1 20/20/1 3/3/1 
f 20/20/1 21/21/1 3/3/1 
f 22/22/1 15/15/1 3/3/1 
f 3/3/1 21/21/1 22/22/1 
f 6/6/1 23/23/1 3/3/1 
f 23/23/1 24/24/1 3/3/1 
f 25/25/1 19/19/1 3/3/1 
f 3/3/1 24/24/1 25/25/1 
f 2/2/1 1/1/1 26/26/1 27/27/1 
f 27/27/1 28/28/1 4/4/1 2/2/1 
f 29/29/2 30/30/3 27/27/1 26/26/1 
f 30/30/3 31/31/4 28/28/1 27/27/1 
f 32/32/5 33/33/6 34/34/1 35/35/1 
f 35/35/1 28/28/1 31/31/4 32/32/5 
f 6/6/1 5/5/1 35/35/1 34/34/1 
f 5/5/1 4/4/1 28/28/1 35/35/1 
f 8/8/1 7/7/1 36/36/1 37/37/1 
f 37/37/1 38/38/1 9/9/1 8/8/1 
f 39/39/7 40/40/8 37/37/1 36/36/1 
f 40/40/8 41/41/9 38/38/1 37/37/1 
f 42/42/10 29/29/2 26/26/1 43/43/1 
f 43/43/1 38/38/1 41/41/9 42/42/10 
f 1/1/1 10/10/1 43/43/1 26/26/1 
f 10/10/1 9/9/1 38/38/1 43/43/1 
f 12/12/1 11/11/1 44/44/1 45/45/1 
f 45/45/1 46/46/1 13/13/1 12/12/1 
f 47/47/11 48/48/12 45/45/1 44/44/1 
f 48/48/12 49/49/13 46/46/1 45/45/1 
f 50/50/14 39/39/7 36/36/1 51/51/1 
f 51/51/1 46/46/1 49/49/13 50/50/14 
f 7/7/1 14/14/1 51/51/1 36/36/1 
f 14/14/1 13/13/1 46/46/1 51/51/1 
f 16/16/1 15/15/1 52/52/1 53/53/1 
f 53/53/1 54/54/1 17/17/1 16/16/1 
f 55/55/15 56/56/16 53/53/1 52/52/1 
f 56/56/16 57/57/17 54/54/1 53/53/1 
f 58/58/18 47/47/11 44/44/1 59/59/1 
f 59/59/1 54/54/1 57/57/17 58/58/18 
f 11/11/1 18/18/1 59/59/1 44/44/1 
f 18/18/1 17/17/1 54/54/1 59/59/1 
f 20/20/1 19/19/1 60/60/1 61/61/1 
f 61/61/1 62/62/1 21/21/1 20/20/1 
f 63/63/19 64/64/20 61/61/1 60/60/1 
f 64/64/20 65/65/21 62/62/1 61/61/1 
f 66/66/22 55/55/15 52/52/1 67/67/1 
f 67/67/1 62/62/1 65/65/21 66/66/22 
f 15/15/1 22/22/1 67/67/1 52/52/1 
f 22/22/1 21/21/1 62/62/1 67/67/1 
f 23/23/1 6/6/1 34/34/1 68/68/1 
f 68/68/1 69/69/1 24/24/1 23/23/1 
f 33/33/6 70/70/23 68/68/1 34/34/1 
f 70/70/23 71/71/24 69/69/1 68/68/1 
f 72/72/25 63/63/19 60/60/1 73/73/1 
f 73/73/1 69/69/1 71/71/24 72/72/25 
f 19/19/1 25/25/1 73/73/1 60/60/1 
f 25/25/1 24/24/1 69/69/1 73/73/1 
f 74/74/26 75/75/26 76/76/26 
f 76/76/26 77/77/26 74/74/26 
f 76/76/26 78/78/26 79/79/26 
f 79/79/26 77/77/26 76/76/26 
f 80/80/26 81/81/26 76/76/26 
f 82/82/26 80/80/26 76/76/26 
f 75/75/26 83/83/26 76/76/26 
f 83/83/26 82/82/26 76/76/26 
f 84/84/26 85/85/26 76/76/26 
f 86/86/26 84/84/26 76/76/26 
f 81/81/26 87/87/26 76/76/26 
f 87/87/26 86/86/26 76/76/26 
f 88/88/26 89/89/26 76/76/26 
f 90/90/26 88/88/26 76/76/26 
f 85/85/26 91/91/26 76/76/26 
f 91/91/26 90/90/26 76/76/26 
f 92/92/26 93/93/26 76/76/26 
f 76/76/26 94/94/26 92/92/26 
f 76/76/26 89/89/26 95/95/26 
f 95/95/26 94/94/26 76/76/26 
f 96/96/26 78/78/26 76/76/26 
f 76/76/26 97/97/26 96/96/26 
f 76/76/26 93/93/26 98/98/26 
f 98/98/26 97/97/26 76/76/26 
f 75/75/26 74/74/26 99/99/26 100/100/26 
f 101/101/26 99/99/26 74/74/26 77/77/26 
f 102/102/27 103/103/28 100/100/26 99/99/26 
f 104/104/29 102/102/27 99/99/26 101/101/26 
f 105/105/30 106/106/31 107/107/26 108/108/26 
f 101/101/26 107/107/26 106/106/31 104/104/29 
f 79/79/26 78/78/26 108/108/26 107/107/26 
f 77/77/26 79/79/26 107/107/26 101/101/26 
f 81/81/26 80/80/26 109/109/26 110/110/26 
f 111/111/26 109/109/26 80/80/26 82/82/26 
f 112/112/32 113/113/33 110/110/26 109/109/26 
f 114/114/34 112/112/32 109/109/26 111/111/26 
f 103/103/28 115/115/35 116/116/26 100/100/26 
f 111/111/26 116/116/26 115/115/35 114/114/34 
f 83/83/26 75/75/26 100/100/26 116/116/26 
f 82/82/26 83/83/26 116/116/26 111/111/26 
f 85/85/26 84/84/26 117/117/26 118/118/26 
f 119/119/26 117/117/26 84/84/26 86/86/26 
f 120/120/36 121/121/37 118/118/26 117/117/26 
f 122/122/38 120/120/36 117/117/26 119/119/26 
f 113/113/33 123/123/39 124/124/26 110/110/26 
f 119/119/26 124/124/26 123/123/39 122/122/38 
f 87/87/26 81/81/26 110/110/26 124/124/26 
f 86/86/26 87/87/26 124/124/26 119/119/26 
f 89/89/26 88/88/26 125/125/26 126/126/26 
f 127/127/26 125/125/26 88/88/26 90/90/26 
f 128/128/40 129/129/41 126/126/26 125/125/26 
f 130/130/42 128/128/40 125/125/26 127/127/26 
f 121/121/37 131/131/43 132/132/26 118/118/26 
f 127/127/26 132/132/26 131/131/43 130/130/42 
f 91/91/26 85/85/26 118/118/26 132/132/26 
f 90/90/26 91/91/26 132/132/26 127/127/26 
f 93/93/26 92/92/26 133/133/26 134/134/26 
f 135/135/26 133/133/26 92/92/26 94/94/26 
f 136/136/44 137/137/45 134/134/26 133/133/26 
f 138/138/46 136/136/44 133/133/26 135/135/26 
f 129/129/41 139/139/47 140/140/26 126/126/26 
f 135/135/26 140/140/26 139/139/47 138/138/46 
f 95/95/26 89/89/26 126/126/26 140/140/26 
f 94/94/26 95/95/26 140/140/26 135/135/26 
f 78/78/26 96/96/26 141/141/26 108/108/26 
f 142/142/26 141/141/26 96/96/26 97/97/26 
f 143/143/48 105/105/30 108/108/26 141/141/26 
f 144/144/49 143/143/48 141/141/26 142/142/26 
f 137/137/45 145/145/50 146/146/26 134/134/26 
f 142/142/26 146/146/26 145/145/50 144/144/49 
f 98/98/26 93/93/26 134/134/26 146/146/26 
f 97/97/26 98/98/26 146/146/26 142/142/26 
s 2
f 30/147/3 29/148/2 147/149/51 148/150/52 
f 148/150/52 147/149/51 149/151/53 150/152/54 
f 150/152/54 149/151/53 103/153/28 102/154/27 
f 31/155/4 30/147/3 148/150/52 151/156/55 
f 151/156/55 148/150/52 150/152/54 152/157/56 
f 152/157/56 150/152/54 102/154/27 104/158/29 
f 33/159/6 32/160/5 153/161/57 154/162/58 
f 154/162/58 153/161/57 155/163/59 156/164/60 
f 156/164/60 155/163/59 106/165/31 105/166/30 
f 32/160/5 31/155/4 151/156/55 153/161/57 
f 153/161/57 151/156/55 152/157/56 155/163/59 
f 155/163/59 152/157/56 104/158/29 106/165/31 
s 4
f 40/167/8 39/168/7 157/169/61 158/170/62 
f 158/170/62 157/169/61 159/171/63 160/172/64 
f 160/172/64 159/171/63 113/173/33 112/174/32 
f 41/175/9 40/167/8 158/170/62 161/176/65 
f 161/176/65 158/170/62 160/172/64 162/177/66 
f 162/177/66 160/172/64 112/174/32 114/178/34 
f 29/179/2 42/180/10 163/181/67 147/182/51 
f 147/182/51 163/181/67 164/183/68 149/184/53 
f 149/184/53 164/183/68 115/185/35 103/186/28 
f 42/180/10 41/175/9 161/176/65 163/181/67 
f 163/181/67 161/176/65 162/177/66 164/183/68 
f 164/183/68 162/177/66 114/178/34 115/185/35 
f 48/187/12 47/188/11 165/189/69 166/190/70 
f 166/190/70 165/189/69 167/191/71 168/192/72 
f 168/192/72 167/191/71 121/193/37 120/194/36 
f 49/195/13 48/187/12 166/190/70 169/196/73 
f 169/196/73 166/190/70 168/192/72 170/197/74 
f 170/197/74 168/192/72 120/194/36 122/198/38 
f 39/168/7 50/199/14 171/200/75 157/169/61 
f 157/169/61 171/200/75 172/201/76 159/171/63 
f 159/171/63 172/201/76 123/202/39 113/173/33 
f 50/199/14 49/195/13 169/196/73 171/200/75 
f 171/200/75 169/196/73 170/197/74 172/201/76 
f 172/201/76 170/197/74 122/198/38 123/202/39 
s 2
f 56/203/16 55/204/15 173/205/77 174/206/78 
f 174/206/78 173/205/77 175/207/79 176/208/80 
f 176/208/80 175/207/79 129/209/41 128/210/40 
f 57/211/17 56/203/16 174/206/78 177/212/81 
f 177/212/81 174/206/78 176/208/80 178/213/82 
f 178/213/82 176/208/80 128/210/40 130/214/42 
f 47/188/11 58/215/18 179/216/83 165/189/69 
f 165/189/69 179/216/83 180/217/84 167/191/71 
f 167/191/71 180/217/84 131/218/43 121/193/37 
f 58/215/18 57/211/17 177/212/81 179/216/83 
f 179/216/83 177/212/81 178/213/82 180/217/84 
f 180/217/84 178/213/82 130/214/42 131/218/43 
s 4
f 64/219/20 63/220/19 181/221/85 182/222/86 
f 182/222/86 181/221/85 183/223/87 184/224/88 
f 184/224/88 183/223/87 137/225/45 136/226/44 
f 65/227/21 64/219/20 182/222/86 185/228/89 
f 185/228/89 182/222/86 184/224/88 186/229/90 
f 186/229/90 184/224/88 136/226/44 138/230/46 
f 55/231/15 66/232/22 187/233/91 173/234/77 
f 173/234/77 187/233/91 188/235/92 175/236/79 
f 175/236/79 188/235/92 139/237/47 129/238/41 
f 66/232/22 65/227/21 185/228/89 187/233/91 
f 187/233/91 185/228/89 186/229/90 188/235/92 
f 188/235/92 186/229/90 138/230/46 139/237/47 
s 8
f 70/239/23 33/159/6 154/162/58 189/240/93 
f 189/240/93 154/162/58 156/164/60 190/241/94 
f 190/241/94 156/164/60 105/166/30 143/242/48 
f 71/243/24 70/239/23 189/240/93 191/244/95 
f 191/244/95 189/240/93 190/241/94 192/245/96 
f 192/245/96 190/241/94 143/242/48 144/246/49 
f 63/220/19 72/247/25 193/248/97 181/221/85 
f 181/221/85 193/248/97 194/249/98 183/223/87 
f 183/223/87 194/249/98 145/250/50 137/225/45 
f 72/247/25 71/243/24 191/244/95 193/248/97 
f 193/248/97 191/244/95 192/245/96 194/249/98 
f 194/249/98 192/245/96 144/246/49 145/250/50 
# 168 polygons - 48 triangles

