# 3ds Max Wavefront OBJ Exporter v0.97b - (c)2007 guruware
# File Created: 25.07.2020 18:02:51

mtllib SingleBrick_Lowpoly.mtl

#
# object SingleBrick_Lowpoly
#

v  -1.1103 0.1875 1.0527
v  1.1103 0.1875 1.0527
v  1.1103 0.1875 -1.0526
v  -1.1103 0.1875 -1.0526
v  -1.1687 -0.1875 1.0527
v  -1.1687 0.0625 1.0527
v  -1.1687 0.0625 -1.0526
v  -1.1687 -0.1875 -1.0526
v  1.1103 -0.1875 1.1697
v  1.1103 0.0625 1.1697
v  -1.1103 0.0625 1.1697
v  -1.1103 -0.1875 1.1697
v  1.1687 -0.1875 -1.0526
v  1.1687 0.0625 -1.0526
v  1.1687 0.0625 1.0527
v  1.1687 -0.1875 1.0527
v  -1.1103 -0.1875 -1.1697
v  -1.1103 0.0625 -1.1697
v  1.1103 0.0625 -1.1697
v  1.1103 -0.1875 -1.1697
v  -1.1103 0.1563 -1.1404
v  -1.1468 0.1406 -1.1257
v  -1.1541 0.1563 -1.0526
v  -1.1541 0.1563 1.0527
v  -1.1468 0.1406 1.1258
v  -1.1103 0.1563 1.1405
v  1.1103 0.1563 1.1405
v  1.1468 0.1406 1.1258
v  1.1541 0.1563 1.0527
v  1.1541 0.1563 -1.0526
v  1.1468 0.1406 -1.1257
v  1.1103 0.1563 -1.1404
v  -1.1541 0.0625 1.1405
v  -1.1541 0.0625 -1.1404
v  1.1541 0.0625 1.1405
v  1.1541 0.0625 -1.1404
v  -1.1541 -0.1875 1.1405
v  -1.1541 -0.1875 -1.1404
v  1.1541 -0.1875 1.1405
v  1.1541 -0.1875 -1.1404
# 40 vertices

vn -0.2927 0.9430 0.1584
vn 0.2927 0.9430 0.1584
vn 0.2927 0.9430 -0.1584
vn -0.2927 0.9430 -0.1584
vn -0.9966 0.0000 0.0823
vn -0.9937 0.0766 0.0817
vn -0.9937 0.0766 -0.0817
vn -0.9966 0.0000 -0.0823
vn 0.2898 0.0000 0.9571
vn 0.2802 0.1412 0.9495
vn -0.2802 0.1412 0.9495
vn -0.2898 0.0000 0.9571
vn 0.9966 0.0000 -0.0823
vn 0.9937 0.0766 -0.0817
vn 0.9937 0.0766 0.0817
vn 0.9966 0.0000 0.0823
vn -0.2898 0.0000 -0.9571
vn -0.2802 0.1412 -0.9495
vn 0.2802 0.1412 -0.9495
vn 0.2898 0.0000 -0.9571
vn -0.2456 0.6736 -0.6971
vn -0.7439 0.4604 -0.4845
vn -0.8394 0.5348 -0.0970
vn -0.8394 0.5348 0.0970
vn -0.7439 0.4604 0.4845
vn -0.2457 0.6736 0.6970
vn 0.2457 0.6736 0.6970
vn 0.7439 0.4604 0.4845
vn 0.8394 0.5349 0.0970
vn 0.8394 0.5348 -0.0969
vn 0.7439 0.4604 -0.4845
vn 0.2456 0.6736 -0.6971
vn -0.8299 0.0885 0.5508
vn -0.8299 0.0885 -0.5508
vn 0.8299 0.0885 0.5508
vn 0.8299 0.0885 -0.5508
vn -0.8398 0.0000 0.5429
vn -0.8398 0.0000 -0.5429
vn 0.8399 0.0000 0.5428
vn 0.8399 0.0000 -0.5428
# 40 vertex normals

vt 0.1327 0.9214 0.0000
vt 0.1327 0.0785 0.0000
vt 0.8673 0.0785 0.0000
vt 0.8673 0.9214 0.0000
vt 0.1327 0.9994 0.0000
vt 0.1327 0.9543 0.0000
vt 0.8673 0.9543 0.0000
vt 0.8673 0.9994 0.0000
vt 0.0005 0.0772 0.0000
vt 0.0811 0.0772 0.0000
vt 0.0811 0.9226 0.0000
vt 0.0005 0.9226 0.0000
vt 0.8673 0.0005 0.0000
vt 0.8673 0.0444 0.0000
vt 0.1327 0.0444 0.0000
vt 0.1327 0.0005 0.0000
vt 0.9995 0.9226 0.0000
vt 0.9189 0.9226 0.0000
vt 0.9189 0.0772 0.0000
vt 0.9995 0.0772 0.0000
vt 0.8920 0.9214 0.0000
vt 0.8920 0.9373 0.0000
vt 0.8673 0.9385 0.0000
vt 0.1327 0.9385 0.0000
vt 0.1080 0.9373 0.0000
vt 0.1080 0.9214 0.0000
vt 0.1080 0.0772 0.0000
vt 0.1080 0.0626 0.0000
vt 0.1327 0.0614 0.0000
vt 0.8673 0.0614 0.0000
vt 0.8920 0.0626 0.0000
vt 0.8920 0.0772 0.0000
vt 0.1013 0.9543 0.0000
vt 0.8987 0.9543 0.0000
vt 0.0811 0.0602 0.0000
vt 0.0811 0.9397 0.0000
vt 0.8987 0.0444 0.0000
vt 0.1013 0.0444 0.0000
vt 0.9189 0.9397 0.0000
vt 0.9189 0.0602 0.0000
vt 0.1013 0.9994 0.0000
vt 0.8987 0.9994 0.0000
vt 0.0005 0.0602 0.0000
vt 0.0005 0.9397 0.0000
vt 0.8987 0.0005 0.0000
vt 0.1013 0.0005 0.0000
vt 0.9995 0.9397 0.0000
vt 0.9995 0.0602 0.0000
# 48 texture coords

o SingleBrick_Lowpoly
g SingleBrick_Lowpoly
usemtl 10x10x4_Lowpoly_wire_028089177
s 1
f 1/1/1 2/2/2 3/3/3 4/4/4 
s 2
f 5/5/5 6/6/6 7/7/7 8/8/8 
s 4
f 9/9/9 10/10/10 11/11/11 12/12/12 
s 2
f 13/13/13 14/14/14 15/15/15 16/16/16 
s 4
f 17/17/17 18/18/18 19/19/19 20/20/20 
s 1
f 4/4/4 21/21/21 22/22/22 23/23/23 
f 1/1/1 24/24/24 25/25/25 26/26/26 
f 2/2/2 27/27/27 28/28/28 29/29/29 
f 3/3/3 30/30/30 31/31/31 32/32/32 
s 2
f 6/6/6 33/33/33 25/25/25 24/24/24 
f 7/7/7 23/23/23 22/22/22 34/34/34 
s 4
f 10/10/10 35/35/35 28/28/28 27/27/27 
f 11/11/11 26/26/26 25/25/25 33/36/33 
s 2
f 14/14/14 36/37/36 31/31/31 30/30/30 
f 15/15/15 29/29/29 28/28/28 35/38/35 
s 4
f 18/18/18 34/39/34 22/22/22 21/21/21 
f 19/19/19 32/32/32 31/31/31 36/40/36 
s 1
f 4/4/4 23/23/23 24/24/24 1/1/1 
f 1/1/1 26/26/26 27/27/27 2/2/2 
f 2/2/2 29/29/29 30/30/30 3/3/3 
f 3/3/3 32/32/32 21/21/21 4/4/4 
s 2
f 5/5/5 37/41/37 33/33/33 6/6/6 
f 6/6/6 24/24/24 23/23/23 7/7/7 
f 7/7/7 34/34/34 38/42/38 8/8/8 
s 4
f 9/9/9 39/43/39 35/35/35 10/10/10 
f 10/10/10 27/27/27 26/26/26 11/11/11 
f 11/11/11 33/36/33 37/44/37 12/12/12 
s 2
f 13/13/13 40/45/40 36/37/36 14/14/14 
f 14/14/14 30/30/30 29/29/29 15/15/15 
f 15/15/15 35/38/35 39/46/39 16/16/16 
s 4
f 17/17/17 38/47/38 34/39/34 18/18/18 
f 18/18/18 21/21/21 32/32/32 19/19/19 
f 19/19/19 36/40/36 40/48/40 20/20/20 
# 33 polygons

