# 3ds Max Wavefront OBJ Exporter v0.97b - (c)2007 guruware
# File Created: 03.07.2020 13:20:25

mtllib ChunkyBrokenWall10_Lowpoly.mtl

#
# object ChunkyBrokenWall10_Lowpoly
#

v  -14.5544 4.7583 -0.1753
v  -14.6602 4.1863 -1.3840
v  -14.6602 4.2723 -1.3840
v  -14.5142 6.0956 0.2845
v  -14.5142 12.7365 0.2845
v  -14.6602 12.7365 -1.3840
v  -15.7946 12.7365 -1.2848
v  -15.5704 6.0956 1.2779
v  -15.6978 5.6642 -0.1783
v  -15.5704 12.7365 1.2779
v  -15.7946 4.2723 -1.2848
v  -15.6978 4.7583 -0.1783
v  -15.7946 4.1912 -1.2848
v  12.0016 2.0770 1.2926
v  12.3630 -0.0000 1.2926
v  13.3582 -0.0000 1.2926
v  12.8465 3.4561 1.2926
v  -3.5970 12.8884 1.2926
v  -4.7303 12.8884 1.2926
v  -4.5387 -0.0000 1.2926
v  -3.4072 -0.0000 1.2926
v  -0.8933 -0.0000 1.2926
v  0.3636 -0.0000 1.2926
v  0.6846 2.4600 1.2926
v  0.6846 13.2225 1.2926
v  0.5280 13.3800 1.2926
v  -10.1171 0.9270 1.2926
v  -10.1171 -0.0000 1.2926
v  -7.9893 -0.0000 1.2926
v  -8.2421 12.7365 1.2926
v  -5.9659 -0.0000 1.2926
v  -6.0650 13.2077 1.2926
v  -2.1502 -0.0000 1.2926
v  -2.3363 13.3800 1.2926
v  3.9681 -0.0000 1.2926
v  3.5478 2.4600 1.2926
v  6.3156 -0.0000 1.2926
v  11.0107 -0.0000 1.2926
v  10.6893 1.4370 1.2926
v  6.7921 1.4370 1.2926
v  -9.9778 3.0193 1.2926
v  -9.6955 1.9773 1.2926
v  15.6188 5.9432 1.2926
v  14.6509 5.1961 1.2926
v  14.6509 3.4561 1.2926
v  14.7311 -0.0000 1.2926
v  15.7057 -0.0000 1.2926
v  15.7057 5.9001 1.2926
v  10.7989 2.0770 1.2926
v  11.4255 -0.0000 1.2926
v  10.6893 1.9667 1.2926
v  11.2120 -0.0000 1.2926
v  13.3582 -0.0000 0.2689
v  12.3630 -0.0000 0.2689
v  12.0016 2.0770 0.2689
v  12.8465 3.4561 0.2689
v  -4.5387 -0.0000 0.2689
v  -4.7303 12.8884 0.2689
v  -3.5970 12.8884 0.2689
v  -3.4072 -0.0000 0.2689
v  0.6846 2.4600 0.2689
v  0.3636 -0.0000 0.2689
v  -0.8933 -0.0000 0.2689
v  0.5280 13.3800 0.2689
v  0.6846 13.2225 0.2689
v  -7.9893 -0.0000 0.2689
v  -10.1171 -0.0000 0.2689
v  -10.1171 0.9270 0.2689
v  -5.9659 -0.0000 0.2689
v  -8.2421 12.7365 0.2689
v  -6.0650 13.2077 0.2689
v  -2.3363 13.3800 0.2689
v  -2.1502 -0.0000 0.2689
v  3.5478 2.4600 0.2689
v  3.9681 -0.0000 0.2689
v  10.6893 1.4370 0.2689
v  11.0107 -0.0000 0.2689
v  6.3156 -0.0000 0.2689
v  6.7921 1.4370 0.2689
v  -9.9778 3.0193 0.2689
v  -9.6956 1.9773 0.2689
v  14.6509 3.4561 0.2689
v  14.6509 5.1961 0.2689
v  15.6188 5.9432 0.2689
v  15.7057 5.9001 0.2689
v  15.7057 -0.0000 0.2689
v  14.7311 -0.0000 0.2689
v  11.4255 -0.0000 0.2689
v  10.7989 2.0770 0.2689
v  11.2120 -0.0000 0.2689
v  10.6893 1.9667 0.2689
# 91 vertices

vn 0.6537 -0.5238 0.5462
vn 0.5155 -0.7023 -0.4910
vn 0.6428 0.0000 -0.7660
vn 0.4187 -0.7282 -0.5425
vn 0.3017 0.8944 -0.3301
vn 0.5248 0.5774 -0.6255
vn -0.6255 0.5774 -0.5248
vn -0.6115 -0.4760 0.6320
vn -0.8799 -0.1791 0.4401
vn -0.5499 0.5822 0.5989
vn -0.7660 0.0000 -0.6428
vn -0.5754 -0.4141 0.7053
vn -0.5936 -0.7073 -0.3840
vn -0.2687 0.4799 0.8352
vn -0.0000 -0.7071 0.7071
vn -0.3865 0.6901 0.6119
vn -0.1220 0.6487 0.7512
vn 0.0795 0.6740 0.7344
vn 0.0000 -0.7071 0.7071
vn 0.3015 0.3015 0.9045
vn 0.7175 0.2960 0.6305
vn 0.2982 0.7170 0.6300
vn -0.7317 0.1414 0.6668
vn -0.5774 -0.5774 0.5774
vn -0.0732 0.6774 0.7320
vn 0.0081 0.7509 0.6604
vn -0.1376 0.7315 0.6678
vn 0.1123 0.7297 0.6745
vn -0.3015 0.3015 0.9045
vn 0.1018 0.6615 0.7430
vn -0.4651 -0.3648 0.8066
vn -0.6171 0.0362 0.7860
vn -0.0782 0.7924 0.6050
vn -0.7042 0.3461 0.6200
vn 0.5774 -0.5774 0.5773
vn 0.6763 0.4195 0.6055
vn -0.2982 0.7170 0.6301
vn -0.7176 0.2960 0.6305
vn -0.0000 -0.7071 -0.7071
vn 0.0000 -0.7071 -0.7071
vn -0.2687 0.4798 -0.8352
vn -0.3865 0.6901 -0.6119
vn 0.0795 0.6740 -0.7344
vn -0.1220 0.6487 -0.7512
vn 0.3015 0.3015 -0.9045
vn 0.2982 0.7170 -0.6300
vn 0.7175 0.2960 -0.6305
vn -0.5774 -0.5774 -0.5774
vn -0.7317 0.1414 -0.6668
vn -0.0733 0.6773 -0.7320
vn 0.0081 0.7509 -0.6604
vn -0.1376 0.7315 -0.6678
vn 0.1123 0.7298 -0.6744
vn -0.3015 0.3015 -0.9045
vn 0.1018 0.6615 -0.7430
vn -0.4949 -0.3522 -0.7944
vn -0.6171 0.0362 -0.7861
vn -0.7042 0.3460 -0.6201
vn -0.0783 0.7924 -0.6049
vn 0.6763 0.4195 -0.6055
vn 0.5773 -0.5773 -0.5774
vn -0.2983 0.7170 -0.6300
vn -0.7175 0.2959 -0.6305
# 63 vertex normals

vt 0.6547 0.5282 0.0000
vt 0.6926 0.5103 0.0000
vt 0.6926 0.5130 0.0000
vt 0.6403 0.5699 0.0000
vt 0.0667 0.9470 0.0000
vt 0.0612 0.9995 0.0000
vt 0.0255 0.9958 0.0000
vt 0.6073 0.9415 0.0000
vt 0.5727 0.9748 0.0000
vt 0.5683 0.9266 0.0000
vt 0.8084 0.5699 0.0000
vt 0.8084 0.7773 0.0000
vt 0.7628 0.5565 0.0000
vt 0.7281 0.7773 0.0000
vt 0.7281 0.5130 0.0000
vt 0.5686 0.8960 0.0000
vt 0.5653 0.8586 0.0000
vt 0.6037 0.8552 0.0000
vt 0.6072 0.8961 0.0000
vt 0.6926 0.7773 0.0000
vt 0.0340 0.9152 0.0000
vt 0.7281 0.5105 0.0000
vt 0.6403 0.7773 0.0000
vt 0.7628 0.5282 0.0000
vt 0.8638 0.5252 0.0000
vt 0.8750 0.4603 0.0000
vt 0.9060 0.4603 0.0000
vt 0.8901 0.5683 0.0000
vt 0.3782 0.8631 0.0000
vt 0.3429 0.8631 0.0000
vt 0.3489 0.4603 0.0000
vt 0.3841 0.4603 0.0000
vt 0.4623 0.4603 0.0000
vt 0.5015 0.4603 0.0000
vt 0.5115 0.5372 0.0000
vt 0.5115 0.8735 0.0000
vt 0.5066 0.8784 0.0000
vt 0.1752 0.4893 0.0000
vt 0.1752 0.4603 0.0000
vt 0.2415 0.4603 0.0000
vt 0.2336 0.8583 0.0000
vt 0.3044 0.4603 0.0000
vt 0.3014 0.8731 0.0000
vt 0.4232 0.4603 0.0000
vt 0.4174 0.8784 0.0000
vt 0.6137 0.4603 0.0000
vt 0.6006 0.5372 0.0000
vt 0.6868 0.4603 0.0000
vt 0.8329 0.4603 0.0000
vt 0.8229 0.5052 0.0000
vt 0.7016 0.5052 0.0000
vt 0.0055 0.6508 0.0000
vt 0.1796 0.5547 0.0000
vt 0.1883 0.5221 0.0000
vt 0.0055 0.8583 0.0000
vt 0.9764 0.6461 0.0000
vt 0.9462 0.6227 0.0000
vt 0.9462 0.5683 0.0000
vt 0.9487 0.4603 0.0000
vt 0.9791 0.4603 0.0000
vt 0.9791 0.6447 0.0000
vt 0.8263 0.5252 0.0000
vt 0.8458 0.4603 0.0000
vt 0.8229 0.5218 0.0000
vt 0.8392 0.4603 0.0000
vt 0.1055 0.0438 0.0000
vt 0.1365 0.0433 0.0000
vt 0.1491 0.1080 0.0000
vt 0.1234 0.1515 0.0000
vt 0.6632 0.0351 0.0000
vt 0.6751 0.4378 0.0000
vt 0.6399 0.4383 0.0000
vt 0.6279 0.0357 0.0000
vt 0.5015 0.1145 0.0000
vt 0.5104 0.0375 0.0000
vt 0.5496 0.0369 0.0000
vt 0.5117 0.4557 0.0000
vt 0.5068 0.4508 0.0000
vt 0.7707 0.0335 0.0000
vt 0.8370 0.0324 0.0000
vt 0.8370 0.0614 0.0000
vt 0.7076 0.0344 0.0000
vt 0.7844 0.4313 0.0000
vt 0.7169 0.4471 0.0000
vt 0.6009 0.4543 0.0000
vt 0.5887 0.0363 0.0000
vt 0.4124 0.1159 0.0000
vt 0.3981 0.0393 0.0000
vt 0.1896 0.0874 0.0000
vt 0.1787 0.0427 0.0000
vt 0.3250 0.0404 0.0000
vt 0.3109 0.0855 0.0000
vt 0.8337 0.1268 0.0000
vt 0.9764 0.2208 0.0000
vt 0.8244 0.0944 0.0000
vt 0.9797 0.4283 0.0000
vt 0.0673 0.1524 0.0000
vt 0.0681 0.2068 0.0000
vt 0.0370 0.2313 0.0000
vt 0.0356 0.2293 0.0000
vt 0.0324 0.0449 0.0000
vt 0.0628 0.0445 0.0000
vt 0.1658 0.0429 0.0000
vt 0.1865 0.1075 0.0000
vt 0.1724 0.0428 0.0000
vt 0.1899 0.1040 0.0000
vt 0.1047 0.0119 0.0000
vt 0.1358 0.0114 0.0000
vt 0.1745 0.9139 0.0000
vt 0.1468 0.9139 0.0000
vt 0.1468 0.8802 0.0000
vt 0.1745 0.8802 0.0000
vt 0.3753 0.9207 0.0000
vt 0.4110 0.9213 0.0000
vt 0.4104 0.9535 0.0000
vt 0.3747 0.9529 0.0000
vt 0.6276 0.0038 0.0000
vt 0.6629 0.0032 0.0000
vt 0.5100 0.0056 0.0000
vt 0.5492 0.0050 0.0000
vt 0.5408 0.9236 0.0000
vt 0.5458 0.9237 0.0000
vt 0.5452 0.9559 0.0000
vt 0.5403 0.9558 0.0000
vt 0.5433 0.5372 0.0000
vt 0.5433 0.8735 0.0000
vt 0.8585 0.9726 0.0000
vt 0.8277 0.9728 0.0000
vt 0.8274 0.9390 0.0000
vt 0.8582 0.9387 0.0000
vt 0.7705 0.0015 0.0000
vt 0.8369 0.0005 0.0000
vt 0.7074 0.0025 0.0000
vt 0.2647 0.9188 0.0000
vt 0.3332 0.9200 0.0000
vt 0.3327 0.9522 0.0000
vt 0.2641 0.9510 0.0000
vt 0.4506 0.9220 0.0000
vt 0.4501 0.9542 0.0000
vt 0.5884 0.0044 0.0000
vt 0.3976 0.0073 0.0000
vt 0.5641 0.9139 0.0000
vt 0.4700 0.9139 0.0000
vt 0.4700 0.8802 0.0000
vt 0.5641 0.8802 0.0000
vt 0.1780 0.0107 0.0000
vt 0.3244 0.0085 0.0000
vt 0.3633 0.9139 0.0000
vt 0.2351 0.9138 0.0000
vt 0.2351 0.8802 0.0000
vt 0.3633 0.8802 0.0000
vt 0.7582 0.9738 0.0000
vt 0.7579 0.9399 0.0000
vt 0.7928 0.9743 0.0000
vt 0.7925 0.9405 0.0000
vt 0.0037 0.2299 0.0000
vt 0.0005 0.0454 0.0000
vt 0.0037 0.2326 0.0000
vt 0.0301 0.9138 0.0000
vt 0.0055 0.9166 0.0000
vt 0.0055 0.8830 0.0000
vt 0.0301 0.8802 0.0000
vt 0.0874 0.9138 0.0000
vt 0.0874 0.8802 0.0000
vt 0.0315 0.0130 0.0000
vt 0.0619 0.0125 0.0000
vt 0.1650 0.0109 0.0000
vt 0.2141 0.9139 0.0000
vt 0.2141 0.8802 0.0000
vt 0.1717 0.0108 0.0000
vt 0.2177 0.9138 0.0000
vt 0.2177 0.8802 0.0000
# 172 texture coords

o ChunkyBrokenWall10_Lowpoly
g ChunkyBrokenWall10_Lowpoly
usemtl 3d_model_wire_224198087
s 1
f 1/1/1 2/2/2 3/3/3 4/4/4 
s 2
f 5/5/5 6/6/6 7/7/7 
f 4/8/4 8/9/8 9/10/9 
s 1
f 8/11/8 10/12/10 9/13/9 
f 9/13/9 7/14/7 11/15/11 
s 2
f 12/16/12 13/17/13 2/18/2 1/19/1 
s 8
f 1/19/1 4/8/4 9/10/9 12/16/12 
s 4
f 3/3/3 11/15/11 7/14/7 6/20/6 
s 2
f 5/5/5 7/7/7 10/21/10 
s 1
f 10/12/10 7/14/7 9/13/9 
s 8
f 13/22/13 11/15/11 3/3/3 2/2/2 
s 1
f 6/20/6 5/23/5 4/4/4 
f 11/15/11 13/22/13 12/24/12 9/13/9 
f 4/4/4 3/3/3 6/20/6 
s 4
f 14/25/14 15/26/15 16/27/15 17/28/16 
f 18/29/17 19/30/18 20/31/15 21/32/19 
f 22/33/15 23/34/15 24/35/20 25/36/21 26/37/22 
f 27/38/23 28/39/24 29/40/19 
f 30/41/25 29/40/19 31/42/15 32/43/26 
f 19/30/18 32/43/26 31/42/15 20/31/15 
f 33/44/15 34/45/27 18/29/17 21/32/19 
f 23/34/15 35/46/19 36/47/28 24/35/20 
f 34/45/27 33/44/15 22/33/15 26/37/22 
f 37/48/19 38/49/15 39/50/29 40/51/30 
f 35/46/19 37/48/19 40/51/30 36/47/28 
f 30/41/25 8/52/8 41/53/31 
f 42/54/32 27/38/23 29/40/19 
f 41/53/31 42/54/32 29/40/19 30/41/25 
f 30/41/25 10/55/10 8/52/8 
f 43/56/33 44/57/34 45/58/29 46/59/15 47/60/35 48/61/36 
f 49/62/37 50/63/19 15/26/15 14/25/14 
f 51/64/38 52/65/15 50/63/19 49/62/37 
f 39/50/29 38/49/15 52/65/15 51/64/38 
f 45/58/29 17/28/16 16/27/15 46/59/15 
f 53/66/39 54/67/40 55/68/41 56/69/42 
f 57/70/40 58/71/43 59/72/44 60/73/39 
f 61/74/45 62/75/40 63/76/40 64/77/46 65/78/47 
f 66/79/39 67/80/48 68/81/49 
f 69/82/40 66/79/39 70/83/50 71/84/51 
f 69/82/40 71/84/51 58/71/43 57/70/40 
f 59/72/44 72/85/52 73/86/40 60/73/39 
f 74/87/53 75/88/39 62/75/40 61/74/45 
f 63/76/40 73/86/40 72/85/52 64/77/46 
f 76/89/54 77/90/39 78/91/40 79/92/55 
f 79/92/55 78/91/40 75/88/39 74/87/53 
f 80/93/56 4/94/4 70/83/50 
f 66/79/39 68/81/49 81/95/57 
f 66/79/39 81/95/57 80/93/56 70/83/50 
f 4/94/4 5/96/5 70/83/50 
f 82/97/54 83/98/58 84/99/59 85/100/60 86/101/61 87/102/39 
f 54/67/40 88/103/40 89/104/62 55/68/41 
f 88/103/40 90/105/39 91/106/63 89/104/62 
f 90/105/39 77/90/39 76/89/54 91/106/63 
f 53/66/39 56/69/42 82/97/54 87/102/39 
s 1
f 16/107/15 15/108/15 54/67/40 53/66/39 
f 14/109/14 17/110/16 56/111/42 55/112/41 
f 19/113/18 18/114/17 59/115/44 58/116/43 
f 21/117/19 20/118/15 57/70/40 60/73/39 
f 23/119/15 22/120/15 63/76/40 62/75/40 
s 2
f 26/121/22 25/122/21 65/123/47 64/124/46 
f 25/36/21 24/35/20 61/125/45 65/126/47 
f 28/127/24 27/128/23 68/129/49 67/130/48 
s 1
f 29/131/19 28/132/24 67/80/48 66/79/39 
f 31/133/15 29/131/19 66/79/39 69/82/40 
f 30/134/25 32/135/26 71/136/51 70/137/50 
f 32/135/26 19/113/18 58/116/43 71/136/51 
f 20/118/15 31/133/15 69/82/40 57/70/40 
f 18/114/17 34/138/27 72/139/52 59/115/44 
f 33/140/15 21/117/19 60/73/39 73/86/40 
f 35/141/19 23/119/15 62/75/40 75/88/39 
f 24/142/20 36/143/28 74/144/53 61/145/45 
f 22/120/15 33/140/15 73/86/40 63/76/40 
f 34/138/27 26/121/22 64/124/46 72/139/52 
f 38/146/15 37/147/19 78/91/40 77/90/39 
f 40/148/30 39/149/29 76/150/54 79/151/55 
f 37/147/19 35/141/19 75/88/39 78/91/40 
f 36/143/28 40/148/30 79/151/55 74/144/53 
s 2
f 41/152/31 8/9/8 4/8/4 80/153/56 
f 27/128/23 42/154/32 81/155/57 68/129/49 
f 42/154/32 41/152/31 80/153/56 81/155/57 
s 1
f 10/21/10 30/134/25 70/137/50 5/5/5 
s 2
f 48/156/36 47/157/35 86/101/61 85/100/60 
s 1
f 43/158/33 48/156/36 85/100/60 84/99/59 
s 2
f 44/159/34 43/160/33 84/161/59 83/162/58 
s 1
f 45/163/29 44/159/34 83/162/58 82/164/54 
f 47/165/35 46/166/15 87/102/39 86/101/61 
f 15/108/15 50/167/19 88/103/40 54/67/40 
s 2
f 49/168/37 14/109/14 55/112/41 89/169/62 
s 1
f 50/167/19 52/170/15 90/105/39 88/103/40 
s 8
f 51/171/38 49/168/37 89/169/62 91/172/63 
s 1
f 52/170/15 38/146/15 77/90/39 90/105/39 
s 8
f 39/149/29 51/171/38 91/172/63 76/150/54 
s 2
f 17/110/16 45/163/29 82/164/54 56/111/42 
s 1
f 46/166/15 16/107/15 53/66/39 87/102/39 
# 78 polygons - 16 triangles

