# 3ds Max Wavefront OBJ Exporter v0.97b - (c)2007 guruware
# File Created: 30.05.2020 13:21:47

mtllib StoneTile_Lowpoly.mtl

#
# object StoneTile_Lowpoly
#

v  -0.8091 -1.9855 1.3087
v  -0.8091 -1.9855 -1.3087
v  0.2208 -1.9855 -1.3087
v  0.2208 -1.9855 1.3087
v  0.2208 1.9853 1.3087
v  0.2208 1.9853 -1.3087
v  -0.8091 1.9853 -1.3087
v  -0.8091 1.9853 1.3087
v  0.2208 -1.6075 1.5439
v  0.2208 1.6073 1.5439
v  -0.8091 1.6073 1.5439
v  -0.8091 -1.6075 1.5439
v  0.8091 1.6073 -1.3087
v  0.8091 1.6073 1.3087
v  0.8091 -1.6075 1.3087
v  0.8091 -1.6075 -1.3087
v  -0.8091 -1.6075 -1.5438
v  -0.8091 1.6073 -1.5438
v  0.2208 1.6073 -1.5438
v  0.2208 -1.6075 -1.5438
v  -0.8091 1.6073 1.3087
v  -0.8091 1.6073 -1.3087
v  -0.8091 -1.6075 -1.3087
v  -0.8091 -1.6075 1.3087
v  0.2208 1.9853 1.5439
v  -0.8091 1.9853 1.5439
v  -0.8091 -1.9855 1.5439
v  0.2208 -1.9855 1.5439
v  0.2208 1.6073 1.3087
v  0.2208 1.6073 -1.3087
v  0.2208 -1.6075 -1.3087
v  0.2208 -1.6075 1.3087
v  -0.8091 1.9853 -1.5438
v  0.2208 1.9853 -1.5438
v  0.2208 -1.9855 -1.5438
v  -0.8091 -1.9855 -1.5438
# 36 vertices

vn -0.7071 -0.7071 -0.0000
vn 0.7071 -0.7071 -0.0000
vn 0.7071 0.7071 -0.0000
vn -0.7071 0.7071 -0.0000
vn 0.7071 0.0000 0.7071
vn -0.7071 0.0000 0.7071
vn 0.5774 0.5774 -0.5774
vn 0.5774 0.5774 0.5774
vn 0.5774 -0.5774 0.5774
vn 0.5774 -0.5774 -0.5774
vn -0.7071 0.0000 -0.7071
vn 0.7071 0.0000 -0.7071
vn -1.0000 0.0000 -0.0000
vn -0.5774 0.5774 0.5774
vn -0.5774 -0.5774 0.5774
vn 0.9045 0.3015 0.3015
vn 0.9045 0.3015 -0.3015
vn 0.9045 -0.3015 -0.3015
vn 0.9045 -0.3015 0.3015
vn -0.5774 0.5774 -0.5774
vn -0.5774 -0.5774 -0.5774
# 21 vertex normals

vt 0.6847 0.5359 0.0000
vt 0.6847 0.8329 0.0000
vt 0.5678 0.8329 0.0000
vt 0.5678 0.5359 0.0000
vt 0.1173 0.5359 0.0000
vt 0.1173 0.8329 0.0000
vt 0.0005 0.8329 0.0000
vt 0.0005 0.5359 0.0000
vt 0.5249 0.5092 0.0000
vt 0.1602 0.5092 0.0000
vt 0.1602 0.3924 0.0000
vt 0.5249 0.3924 0.0000
vt 0.9328 0.4319 0.0000
vt 0.6358 0.4319 0.0000
vt 0.6358 0.0672 0.0000
vt 0.9328 0.0672 0.0000
vt 0.5249 0.9764 0.0000
vt 0.1602 0.9764 0.0000
vt 0.1602 0.8595 0.0000
vt 0.5249 0.8595 0.0000
vt 0.1602 0.3657 0.0000
vt 0.1602 0.0688 0.0000
vt 0.5249 0.0688 0.0000
vt 0.5249 0.3657 0.0000
vt 0.1173 0.5092 0.0000
vt 0.1173 0.3924 0.0000
vt 0.5678 0.3924 0.0000
vt 0.5678 0.5092 0.0000
vt 0.1602 0.5359 0.0000
vt 0.1602 0.8329 0.0000
vt 0.5249 0.8329 0.0000
vt 0.5249 0.5359 0.0000
vt 0.1173 0.9764 0.0000
vt 0.1173 0.8595 0.0000
vt 0.5678 0.8595 0.0000
vt 0.5678 0.9764 0.0000
vt 0.1173 0.3657 0.0000
vt 0.1173 0.0688 0.0000
vt 0.5678 0.0688 0.0000
vt 0.5678 0.3657 0.0000
vt 0.6847 0.8595 0.0000
vt 0.6847 0.5092 0.0000
vt 0.0005 0.8595 0.0000
vt 0.0005 0.5092 0.0000
vt 0.1602 0.0421 0.0000
vt 0.5249 0.0421 0.0000
vt 0.1173 0.0421 0.0000
vt 0.5678 0.0421 0.0000
vt 0.9328 0.4987 0.0000
vt 0.6358 0.4987 0.0000
vt 0.5691 0.4319 0.0000
vt 0.5691 0.0672 0.0000
vt 0.6358 0.0005 0.0000
vt 0.9328 0.0005 0.0000
vt 0.9995 0.0672 0.0000
vt 0.9995 0.4319 0.0000
# 56 texture coords

o StoneTile_Lowpoly
g StoneTile_Lowpoly
usemtl wire_088199225
s 2
f 1/1/1 2/2/1 3/3/2 4/4/2 
s 4
f 5/5/3 6/6/3 7/7/4 8/8/4 
s 8
f 9/9/5 10/10/5 11/11/6 12/12/6 
s 16
f 13/13/7 14/14/8 15/15/9 16/16/10 
s 32
f 17/17/11 18/18/11 19/19/12 20/20/12 
s 64
f 21/21/13 22/22/13 23/23/13 24/24/13 
s 8
f 10/10/5 25/25/8 26/26/14 11/11/6 
f 12/12/6 27/27/15 28/28/9 9/9/5 
s 16
f 6/6/3 5/5/3 29/29/16 30/30/17 
f 4/4/2 3/3/2 31/31/18 32/32/19 
s 32
f 18/18/11 33/33/20 34/34/7 19/19/12 
f 20/20/12 35/35/10 36/36/21 17/17/11 
s 64
f 8/37/4 7/38/4 22/22/13 21/21/13 
f 2/39/1 1/40/1 24/24/13 23/23/13 
s 2
f 2/2/1 36/41/21 35/35/10 3/3/2 
f 4/4/2 28/28/9 27/42/15 1/1/1 
s 4
f 6/6/3 34/34/7 33/43/20 7/7/4 
f 8/8/4 26/44/14 25/25/8 5/5/3 
s 16
f 29/29/16 10/10/5 9/9/5 32/32/19 
f 31/31/18 20/20/12 19/19/12 30/30/17 
s 64
f 22/22/13 18/45/11 17/46/11 23/23/13 
f 24/24/13 12/12/6 11/11/6 21/21/13 
s 16
f 5/5/3 25/25/8 10/10/5 29/29/16 
f 30/30/17 19/19/12 34/34/7 6/6/3 
f 3/3/2 35/35/10 20/20/12 31/31/18 
f 32/32/19 9/9/5 28/28/9 4/4/2 
s 64
f 7/38/4 33/47/20 18/45/11 22/22/13 
f 21/21/13 11/11/6 26/26/14 8/37/4 
f 1/40/1 27/27/15 12/12/6 24/24/13 
f 23/23/13 17/46/11 36/48/21 2/39/1 
s off
f 30/49/17 29/50/16 14/14/8 13/13/7 
f 29/51/16 32/52/19 15/15/9 14/14/8 
f 32/53/19 31/54/18 16/16/10 15/15/9 
f 31/55/18 30/56/17 13/13/7 16/16/10 
# 34 polygons

