# 3ds Max Wavefront OBJ Exporter v0.97b - (c)2007 guruware
# File Created: 25.06.2020 01:14:35

mtllib Sandstone01_Lowpoly.mtl

#
# object Sandstone01_Lowpoly
#

v  6.2616 -0.8785 -1.7447
v  5.5584 -0.8785 -3.0610
v  5.6057 -0.3152 -3.0040
v  6.2952 -0.3051 -1.5954
v  5.7318 0.2693 -2.9647
v  6.3422 0.2841 -1.5999
v  5.6850 0.8844 -2.9531
v  6.1651 0.8844 -1.5917
v  6.1991 -0.8785 -0.0329
v  6.0767 -0.2871 -0.0272
v  6.0012 0.3023 -0.0233
v  5.6512 0.8844 -0.0578
v  5.5293 -0.8785 3.0620
v  6.3608 -0.8785 1.7535
v  6.2793 -0.3261 1.5826
v  5.5273 -0.2880 3.0210
v  6.3016 0.2627 1.6048
v  5.6420 0.2985 3.0103
v  6.0917 0.8844 1.5789
v  5.6122 0.8844 2.9603
v  -2.7175 -0.8785 -3.1538
v  -5.5850 -0.8785 -2.9508
v  -5.5334 -0.2513 -3.0246
v  -2.8036 -0.2945 -3.2298
v  -5.6805 0.3315 -2.9141
v  -2.9627 0.2965 -3.1450
v  -5.6896 0.8844 -3.0043
v  -3.1746 0.8844 -3.1939
v  0.0774 -0.8785 -3.1119
v  0.0544 -0.2689 -3.1518
v  0.1598 0.3211 -3.2353
v  -0.1057 0.8844 -3.3473
v  3.1228 -0.8785 -2.9625
v  3.0258 -0.2862 -2.9818
v  2.9341 0.2996 -3.0035
v  2.8201 0.8844 -3.1855
v  -6.1619 -0.8785 1.8031
v  -5.7832 -0.8785 2.8845
v  -5.6478 -0.2664 2.9490
v  -6.1894 -0.2827 1.7867
v  -5.9407 0.3196 2.8537
v  -6.2520 0.2962 1.4999
v  -5.8646 0.8844 2.8976
v  -6.1965 0.8844 1.4095
v  -6.2605 -0.8785 -0.1741
v  -6.2544 -0.3340 -0.0983
v  -5.9038 0.2625 -0.0740
v  -6.0595 0.8844 -0.0520
v  -6.1869 -0.8785 -1.8895
v  -6.2475 -0.2678 -1.9096
v  -6.3086 0.3091 -1.7372
v  -6.2565 0.8844 -1.6612
v  2.7304 -0.8785 3.0031
v  2.5825 -0.2729 3.0163
v  2.5808 0.3133 3.0953
v  2.6035 0.8844 3.2160
v  -0.0951 -0.8785 2.9640
v  -0.0597 -0.2995 3.0605
v  0.1348 0.2918 3.2022
v  -0.0636 0.8844 3.2874
v  -2.9097 -0.8785 3.1476
v  -2.8866 -0.2945 3.1887
v  -3.1104 0.2881 3.0889
v  -3.2729 0.8844 3.0811
v  -3.1989 0.8844 -1.6441
v  2.9325 -0.8785 -0.0699
v  3.0452 -0.8785 -1.7821
v  2.7668 0.8844 -1.6107
v  -0.0948 0.8844 -1.6268
v  -3.2238 0.8844 -0.0534
v  -0.0848 0.8844 -0.0550
v  2.7142 0.8844 -0.0564
v  -3.2473 0.8844 1.4502
v  -0.0750 0.8844 1.4939
v  2.6605 0.8844 1.5316
v  2.8117 -0.8785 1.7676
v  -2.8683 -0.8785 1.7900
v  -0.0614 -0.8785 1.7789
v  -2.8096 -0.8785 -0.1350
v  -0.0080 -0.8785 -0.1033
v  -2.7573 -0.8785 -1.8496
v  0.0406 -0.8785 -1.8171
# 82 vertices

vn 0.9061 -0.6694 -0.0833
vn 0.5440 -0.5621 -0.4809
vn 0.7361 0.0236 -0.5515
vn 1.2317 -0.0371 -0.0529
vn 0.8078 0.0060 -0.5199
vn 1.2308 0.0696 -0.0432
vn 0.6658 0.6164 -0.3946
vn 0.8363 0.7364 -0.0013
vn 0.9226 -0.6655 -0.0076
vn 1.2287 0.1105 0.0029
vn 1.2016 0.2350 0.0050
vn 0.6382 0.8563 0.0084
vn 0.5579 -0.5683 0.4725
vn 0.9686 -0.6039 0.1006
vn 1.2304 0.0478 0.0577
vn 0.7272 0.0057 0.5554
vn 1.2267 0.0947 0.0551
vn 0.7933 0.0157 0.5266
vn 0.8185 0.7494 0.0073
vn 0.6755 0.6333 0.3764
vn -0.0374 -0.7457 -0.4571
vn -0.6506 -0.6283 -0.3935
vn -0.7160 0.0082 -0.5599
vn -0.0501 0.0008 -0.6862
vn -0.8723 -0.0595 -0.4850
vn -0.1249 0.0160 -0.6832
vn -0.6679 0.5401 -0.4432
vn -0.1076 0.6558 -0.5150
vn 0.0493 -0.7272 -0.4706
vn 0.0920 -0.1265 -0.6794
vn 0.0751 -0.1930 -0.6726
vn -0.0127 0.5961 -0.5514
vn 0.0018 -0.7388 -0.4628
vn 0.0533 -0.0371 -0.6857
vn 0.1016 -0.1892 -0.6720
vn 0.1212 0.5711 -0.5597
vn -0.8788 -0.6988 0.0548
vn -0.7443 -0.5884 0.3707
vn -0.7353 -0.0182 0.5520
vn -1.2214 0.0032 0.1061
vn -0.9526 -0.0680 0.4353
vn -1.2360 -0.0139 -0.0076
vn -0.6719 0.5881 0.4114
vn -0.8677 0.7120 0.0123
vn -0.8845 -0.6986 -0.0004
vn -1.2148 0.1851 0.0066
vn -1.2294 0.1048 0.0041
vn -0.9278 0.6609 0.0033
vn -0.8681 -0.7027 -0.0788
vn -1.2126 -0.0332 -0.1319
vn -1.2337 0.0084 -0.0439
vn -0.8801 0.7007 -0.0327
vn -0.0275 -0.7195 0.4767
vn 0.0182 -0.0922 0.6838
vn 0.0785 -0.2035 0.6710
vn 0.0986 0.6012 0.5461
vn 0.0360 -0.7881 0.4223
vn 0.0701 -0.2426 0.6651
vn 0.0231 -0.2230 0.6694
vn -0.0429 0.6216 0.5375
vn -0.0225 -0.7071 0.4855
vn -0.0323 0.0566 0.6855
vn -0.1304 0.0863 0.6804
vn -0.1066 0.7035 0.4845
vn 0.0000 1.0000 0.0000
vn -0.0000 -1.0000 -0.0000
vn -0.0000 -1.0000 0.0000
vn -0.0000 1.0000 -0.0000
vn -0.0000 1.0000 0.0000
vn 0.0000 -1.0000 -0.0000
# 70 vertex normals

vt 0.9312 0.0005 0.0000
vt 0.9995 0.0083 0.0000
vt 0.9868 0.0223 0.0000
vt 0.9212 0.0184 0.0000
vt 0.9866 0.0424 0.0000
vt 0.9301 0.0439 0.0000
vt 0.9854 0.0647 0.0000
vt 0.9251 0.0658 0.0000
vt 0.8378 0.0033 0.0000
vt 0.8346 0.0249 0.0000
vt 0.8330 0.0463 0.0000
vt 0.8250 0.0676 0.0000
vt 0.6483 0.0067 0.0000
vt 0.7445 0.0050 0.0000
vt 0.7522 0.0249 0.0000
vt 0.6501 0.0281 0.0000
vt 0.7525 0.0463 0.0000
vt 0.6550 0.0493 0.0000
vt 0.7484 0.0690 0.0000
vt 0.6602 0.0705 0.0000
vt 0.4023 0.3130 0.0000
vt 0.3063 0.3164 0.0000
vt 0.3220 0.2945 0.0000
vt 0.4124 0.2951 0.0000
vt 0.3114 0.2745 0.0000
vt 0.4028 0.2747 0.0000
vt 0.3108 0.2553 0.0000
vt 0.3933 0.2560 0.0000
vt 0.4898 0.3126 0.0000
vt 0.4916 0.2933 0.0000
vt 0.4985 0.2728 0.0000
vt 0.4919 0.2559 0.0000
vt 0.6622 0.3114 0.0000
vt 0.5825 0.3134 0.0000
vt 0.5693 0.2931 0.0000
vt 0.6457 0.2932 0.0000
vt 0.5673 0.2728 0.0000
vt 0.6469 0.2730 0.0000
vt 0.5776 0.2524 0.0000
vt 0.6595 0.2482 0.0000
vt 0.0508 0.3192 0.0000
vt 0.0050 0.3197 0.0000
vt 0.0051 0.2985 0.0000
vt 0.0503 0.2986 0.0000
vt 0.0011 0.2783 0.0000
vt 0.0631 0.2784 0.0000
vt 0.0005 0.2587 0.0000
vt 0.0689 0.2580 0.0000
vt 0.1517 0.3181 0.0000
vt 0.1474 0.2993 0.0000
vt 0.1558 0.2786 0.0000
vt 0.1496 0.2571 0.0000
vt 0.2438 0.3171 0.0000
vt 0.2426 0.2960 0.0000
vt 0.2313 0.2761 0.0000
vt 0.2284 0.2562 0.0000
vt 0.5627 0.0075 0.0000
vt 0.5603 0.0303 0.0000
vt 0.5568 0.0516 0.0000
vt 0.5582 0.0699 0.0000
vt 0.4757 0.0085 0.0000
vt 0.4771 0.0308 0.0000
vt 0.4761 0.0523 0.0000
vt 0.4722 0.0711 0.0000
vt 0.3005 0.0106 0.0000
vt 0.3830 0.0114 0.0000
vt 0.3836 0.0326 0.0000
vt 0.3124 0.0349 0.0000
vt 0.3831 0.0538 0.0000
vt 0.3095 0.0563 0.0000
vt 0.3769 0.0756 0.0000
vt 0.3005 0.0795 0.0000
vt 0.2856 0.2168 0.0000
vt 0.3893 0.2118 0.0000
vt 0.7020 0.3498 0.0000
vt 0.7018 0.4025 0.0000
vt 0.5900 0.4024 0.0000
vt 0.5920 0.3497 0.0000
vt 0.5728 0.2073 0.0000
vt 0.4868 0.2083 0.0000
vt 0.6880 0.2026 0.0000
vt 0.2893 0.1697 0.0000
vt 0.3851 0.1659 0.0000
vt 0.4821 0.1641 0.0000
vt 0.5681 0.1629 0.0000
vt 0.6688 0.1584 0.0000
vt 0.2825 0.1272 0.0000
vt 0.3812 0.1226 0.0000
vt 0.4775 0.1206 0.0000
vt 0.5633 0.1174 0.0000
vt 0.6804 0.1103 0.0000
vt 0.7093 0.4574 0.0000
vt 0.5879 0.4591 0.0000
vt 0.6809 0.4980 0.0000
vt 0.5886 0.4984 0.0000
vt 0.4949 0.4991 0.0000
vt 0.3951 0.5034 0.0000
vt 0.3936 0.4616 0.0000
vt 0.4896 0.4604 0.0000
vt 0.3935 0.4023 0.0000
vt 0.4894 0.4024 0.0000
vt 0.3934 0.3495 0.0000
vt 0.4891 0.3496 0.0000
vt 0.3063 0.5006 0.0000
vt 0.2809 0.4631 0.0000
vt 0.2754 0.4023 0.0000
vt 0.2760 0.3494 0.0000
# 107 texture coords

o Sandstone01_Lowpoly
g Sandstone01_Lowpoly
usemtl wire_020020020
s 2
f 1/1/1 2/2/2 3/3/3 4/4/4 
f 4/4/4 3/3/3 5/5/5 6/6/6 
f 6/6/6 5/5/5 7/7/7 8/8/8 
f 9/9/9 1/1/1 4/4/4 10/10/10 
f 10/10/10 4/4/4 6/6/6 11/11/11 
f 11/11/11 6/6/6 8/8/8 12/12/12 
f 13/13/13 14/14/14 15/15/15 16/16/16 
f 16/16/16 15/15/15 17/17/17 18/18/18 
f 18/18/18 17/17/17 19/19/19 20/20/20 
f 14/14/14 9/9/9 10/10/10 15/15/15 
f 15/15/15 10/10/10 11/11/11 17/17/17 
f 17/17/17 11/11/11 12/12/12 19/19/19 
s 4
f 21/21/21 22/22/22 23/23/23 24/24/24 
f 24/24/24 23/23/23 25/25/25 26/26/26 
f 26/26/26 25/25/25 27/27/27 28/28/28 
f 29/29/29 21/21/21 24/24/24 30/30/30 
f 30/30/30 24/24/24 26/26/26 31/31/31 
f 31/31/31 26/26/26 28/28/28 32/32/32 
f 2/33/2 33/34/33 34/35/34 3/36/3 
f 3/36/3 34/35/34 35/37/35 5/38/5 
f 5/38/5 35/37/35 36/39/36 7/40/7 
f 33/34/33 29/29/29 30/30/30 34/35/34 
f 34/35/34 30/30/30 31/31/31 35/37/35 
f 35/37/35 31/31/31 32/32/32 36/39/36 
s 2
f 37/41/37 38/42/38 39/43/39 40/44/40 
f 40/44/40 39/43/39 41/45/41 42/46/42 
f 42/46/42 41/45/41 43/47/43 44/48/44 
f 45/49/45 37/41/37 40/44/40 46/50/46 
f 46/50/46 40/44/40 42/46/42 47/51/47 
f 47/51/47 42/46/42 44/48/44 48/52/48 
f 22/22/22 49/53/49 50/54/50 23/23/23 
f 23/23/23 50/54/50 51/55/51 25/25/25 
f 25/25/25 51/55/51 52/56/52 27/27/27 
f 49/53/49 45/49/45 46/50/46 50/54/50 
f 50/54/50 46/50/46 47/51/47 51/55/51 
f 51/55/51 47/51/47 48/52/48 52/56/52 
s 4
f 53/57/53 13/13/13 16/16/16 54/58/54 
f 54/58/54 16/16/16 18/18/18 55/59/55 
f 55/59/55 18/18/18 20/20/20 56/60/56 
f 57/61/57 53/57/53 54/58/54 58/62/58 
f 58/62/58 54/58/54 55/59/55 59/63/59 
f 59/63/59 55/59/55 56/60/56 60/64/60 
f 38/65/38 61/66/61 62/67/62 39/68/39 
f 39/68/39 62/67/62 63/69/63 41/70/41 
f 41/70/41 63/69/63 64/71/64 43/72/43 
f 61/66/61 57/61/57 58/62/58 62/67/62 
f 62/67/62 58/62/58 59/63/59 63/69/63 
f 63/69/63 59/63/59 60/64/60 64/71/64 
s off
f 28/28/28 27/27/27 52/73/52 65/74/65 
f 1/75/1 9/76/9 66/77/66 67/78/67 
f 68/79/68 36/39/36 32/32/32 69/80/69 
f 32/32/32 28/28/28 65/74/65 69/80/69 
f 8/81/8 7/40/7 36/39/36 68/79/68 
f 52/73/52 48/82/48 70/83/65 65/74/65 
f 65/74/65 70/83/65 71/84/69 69/80/69 
f 69/80/69 71/84/69 72/85/68 68/79/68 
f 68/79/68 72/85/68 12/86/12 8/81/8 
f 44/87/44 43/72/43 64/71/64 73/88/65 
f 73/88/65 64/71/64 60/64/60 74/89/68 
f 74/89/68 60/64/60 56/60/56 75/90/68 
f 75/90/68 56/60/56 20/20/20 19/91/19 
f 19/91/19 12/86/12 72/85/68 75/90/68 
f 75/90/68 72/85/68 71/84/69 74/89/68 
f 74/89/68 71/84/69 70/83/65 73/88/65 
f 73/88/65 70/83/65 48/82/48 44/87/44 
f 33/34/33 2/33/2 1/75/1 67/78/67 
f 9/76/9 14/92/14 76/93/70 66/77/66 
f 14/92/14 13/94/13 53/95/53 76/93/70 
f 57/96/57 61/97/61 77/98/70 78/99/70 
f 78/99/70 77/98/70 79/100/66 80/101/66 
f 80/101/66 79/100/66 81/102/67 82/103/70 
f 82/103/70 81/102/67 21/21/21 29/29/29 
f 29/29/29 33/34/33 67/78/67 82/103/70 
f 82/103/70 67/78/67 66/77/66 80/101/66 
f 80/101/66 66/77/66 76/93/70 78/99/70 
f 78/99/70 76/93/70 53/95/53 57/96/57 
f 61/97/61 38/104/38 37/105/37 77/98/70 
f 77/98/70 37/105/37 45/106/45 79/100/66 
f 79/100/66 45/106/45 49/107/49 81/102/67 
f 81/102/67 49/107/49 22/22/22 21/21/21 
# 80 polygons

