# 3ds Max Wavefront OBJ Exporter v0.97b - (c)2007 guruware
# File Created: 17.07.2020 19:49:31

mtllib BulletinBoard_Board_Lowpoly.mtl

#
# object BulletinBoard_Board_Lowpoly
#

v  -24.7641 -10.1009 -1.8606
v  -24.7641 -10.1009 -0.6681
v  -25.9659 -10.1009 -0.6681
v  -25.9659 -10.1009 -1.8606
v  -24.7641 10.1009 -1.8606
v  -25.9659 10.1009 -1.8606
v  -25.9659 10.1009 -0.6681
v  -24.7641 10.1009 -0.6681
v  -25.9659 -9.9993 -0.5665
v  -24.7641 -9.9993 -0.5665
v  -24.8657 -8.8894 -0.5665
v  -25.9659 -8.7878 -0.5665
v  26.0675 -8.7878 -1.8606
v  26.0675 -8.7878 -0.6681
v  26.0675 -9.9993 -0.6681
v  26.0675 -9.9993 -1.8606
v  24.7967 -8.7878 -1.9622
v  25.9659 -8.7878 -1.9622
v  25.9659 -9.9993 -1.9622
v  24.7967 -9.9993 -1.9622
v  -26.0675 -8.7878 -0.6681
v  -26.0675 -8.7878 -1.8606
v  -26.0675 -9.9993 -1.8606
v  -26.0675 -9.9993 -0.6681
v  24.7967 -10.1009 -0.6681
v  24.7967 -10.1009 -1.8606
v  24.7967 10.1009 -1.8606
v  24.7967 10.1009 -0.6681
v  24.8983 -8.8894 -0.5665
v  24.7967 -9.9993 -0.5665
v  -25.9659 -8.7878 -1.9622
v  -24.7641 -8.7878 -1.9622
v  -24.7641 -9.9993 -1.9622
v  -25.9659 -9.9993 -1.9622
v  25.9659 -10.1009 -0.6681
v  25.9659 -10.1009 -1.8606
v  25.9659 10.1009 -1.8606
v  25.9659 10.1009 -0.6681
v  25.9659 -9.9993 -0.5665
v  25.9659 -8.7878 -0.5665
v  -25.9659 8.8732 -0.5665
v  -24.8657 8.9748 -0.5665
v  26.0675 9.9993 -0.6681
v  26.0675 9.9993 -1.8606
v  25.9659 9.9993 -1.9622
v  24.7967 8.8732 -1.9622
v  24.7967 9.9993 -1.9622
v  -26.0675 8.8732 -1.8606
v  -26.0675 8.8732 -0.6681
v  -24.6625 8.7716 -1.0745
v  -24.6625 -8.6862 -1.0745
v  24.6951 -8.6862 -1.0745
v  24.6951 8.7716 -1.0745
v  -24.7641 8.8732 -1.9622
v  -25.9659 8.8732 -1.9622
v  24.8983 8.9748 -0.5665
v  25.9659 9.9993 -0.5665
v  24.7967 9.9993 -0.5665
v  -24.7641 9.9993 -0.5665
v  -25.9659 9.9993 -0.5665
v  -26.0675 9.9993 -1.8606
v  -26.0675 9.9993 -0.6681
v  -24.7641 9.9993 -1.9622
v  -25.9659 9.9993 -1.9622
v  -24.7641 -8.6862 -0.9729
v  -24.7641 8.7716 -0.9729
v  -24.7641 8.7716 -0.6681
v  -24.7641 -8.6862 -0.6681
v  24.6951 -8.7878 -0.9729
v  -24.6625 -8.7878 -0.9729
v  -24.6625 -8.7878 -0.6681
v  24.6951 -8.7878 -0.6681
v  24.7967 8.7716 -0.9729
v  24.7967 -8.6862 -0.9729
v  24.7967 -8.6862 -0.6681
v  24.7967 8.7716 -0.6681
v  -24.6625 8.8732 -0.9729
v  24.6951 8.8732 -0.9729
v  24.6951 8.8732 -0.6681
v  -24.6625 8.8732 -0.6681
# 80 vertices

vn 0.0000 -0.9239 -0.3827
vn 0.0000 -0.9239 0.3827
vn -0.3416 -0.8756 0.3416
vn -0.3416 -0.8756 -0.3416
vn 0.0000 0.9239 -0.3827
vn -0.3416 0.8756 -0.3416
vn -0.3416 0.8756 0.3416
vn 0.0000 0.9239 0.3827
vn -0.3416 -0.3416 0.8756
vn 0.0000 -0.3827 0.9239
vn 0.0991 0.0991 0.9901
vn -0.3827 0.0000 0.9239
vn 0.9239 0.0000 -0.3827
vn 0.9239 0.0000 0.3827
vn 0.8756 -0.3416 0.3416
vn 0.8756 -0.3416 -0.3416
vn 0.0000 0.0000 -1.0000
vn 0.3827 0.0000 -0.9239
vn 0.3416 -0.3416 -0.8756
vn 0.0000 -0.3827 -0.9239
vn -0.9239 0.0000 0.3827
vn -0.9239 0.0000 -0.3827
vn -0.8756 -0.3416 -0.3416
vn -0.8756 -0.3416 0.3416
vn -0.0991 0.0991 0.9901
vn -0.3827 0.0000 -0.9239
vn -0.3416 -0.3416 -0.8756
vn 0.3416 -0.8756 0.3416
vn 0.3416 -0.8756 -0.3416
vn 0.3416 0.8756 -0.3416
vn 0.3416 0.8756 0.3416
vn 0.3416 -0.3416 0.8756
vn 0.3827 0.0000 0.9239
vn 0.0991 -0.0991 0.9901
vn 0.8756 0.3416 0.3416
vn 0.8756 0.3416 -0.3416
vn 0.3416 0.3416 -0.8756
vn 0.0000 0.3827 -0.9239
vn 0.3416 0.3416 0.8756
vn -0.3416 0.3416 0.8756
vn -0.6938 -0.6937 -0.1935
vn 0.0000 0.3827 0.9239
vn -0.8756 0.3416 -0.3416
vn -0.8756 0.3416 0.3416
vn -0.3416 0.3416 -0.8756
vn 0.8269 -0.2549 0.5013
vn 0.8269 0.2549 0.5013
vn 0.2549 0.8269 0.5013
vn -0.2549 0.8269 0.5013
vn -0.8269 0.2549 0.5013
vn -0.8269 -0.2549 0.5013
vn -0.2549 -0.8269 0.5013
vn 0.2549 -0.8269 0.5013
# 53 vertex normals

vt 0.0250 0.0393 0.0000
vt 0.0250 0.0622 0.0000
vt 0.0020 0.0622 0.0000
vt 0.0020 0.0393 0.0000
vt 0.9750 0.0020 0.0000
vt 0.9980 0.0020 0.0000
vt 0.9980 0.0248 0.0000
vt 0.9750 0.0248 0.0000
vt 0.0020 0.0767 0.0000
vt 0.0250 0.0767 0.0000
vt 0.0231 0.0980 0.0000
vt 0.0020 0.0999 0.0000
vt 0.0252 0.9360 0.0000
vt 0.0252 0.9589 0.0000
vt 0.0020 0.9589 0.0000
vt 0.0020 0.9360 0.0000
vt 0.0244 0.1746 0.0000
vt 0.0020 0.1746 0.0000
vt 0.0020 0.1514 0.0000
vt 0.0244 0.1514 0.0000
vt 0.0252 0.9080 0.0000
vt 0.0252 0.9309 0.0000
vt 0.0020 0.9309 0.0000
vt 0.0020 0.9080 0.0000
vt 0.9756 0.0622 0.0000
vt 0.9756 0.0393 0.0000
vt 0.0244 0.0020 0.0000
vt 0.0244 0.0248 0.0000
vt 0.9775 0.0980 0.0000
vt 0.9755 0.0767 0.0000
vt 0.9979 0.1746 0.0000
vt 0.9748 0.1746 0.0000
vt 0.9748 0.1514 0.0000
vt 0.9979 0.1514 0.0000
vt 0.9980 0.0622 0.0000
vt 0.9980 0.0393 0.0000
vt 0.0020 0.0020 0.0000
vt 0.0020 0.0248 0.0000
vt 0.9979 0.0767 0.0000
vt 0.9979 0.0999 0.0000
vt 0.3994 0.9080 0.0000
vt 0.7381 0.9080 0.0000
vt 0.7401 0.9291 0.0000
vt 0.3975 0.9291 0.0000
vt 0.3857 0.9589 0.0000
vt 0.3857 0.9360 0.0000
vt 0.0020 0.5349 0.0000
vt 0.0244 0.5133 0.0000
vt 0.0244 0.5349 0.0000
vt 0.3641 0.9309 0.0000
vt 0.3641 0.9080 0.0000
vt 0.0020 0.9019 0.0000
vt 0.0020 0.5671 0.0000
vt 0.9485 0.5671 0.0000
vt 0.9485 0.9019 0.0000
vt 0.9748 0.5133 0.0000
vt 0.9979 0.5133 0.0000
vt 0.0201 0.9646 0.0000
vt 0.3627 0.9646 0.0000
vt 0.3608 0.9850 0.0000
vt 0.0005 0.9850 0.0000
vt 0.0005 0.9626 0.0000
vt 0.0231 0.1155 0.0000
vt 0.0250 0.1352 0.0000
vt 0.0020 0.1352 0.0000
vt 0.0020 0.1136 0.0000
vt 0.3857 0.9309 0.0000
vt 0.3857 0.9080 0.0000
vt 0.9774 0.1155 0.0000
vt 0.9755 0.1352 0.0000
vt 0.9748 0.5349 0.0000
vt 0.9979 0.5349 0.0000
vt 0.3994 0.9360 0.0000
vt 0.7344 0.9360 0.0000
vt 0.7344 0.9419 0.0000
vt 0.3994 0.9419 0.0000
vt 0.9491 0.5590 0.0000
vt 0.0024 0.5590 0.0000
vt 0.0024 0.5531 0.0000
vt 0.9491 0.5531 0.0000
vt 0.0024 0.9921 0.0000
vt 0.3375 0.9921 0.0000
vt 0.3375 0.9979 0.0000
vt 0.0024 0.9979 0.0000
vt 0.9491 0.5449 0.0000
vt 0.0024 0.5449 0.0000
vt 0.0024 0.5391 0.0000
vt 0.9491 0.5391 0.0000
vt 0.0017 0.0743 0.0000
vt -0.0004 0.0760 0.0000
vt -0.0004 0.9312 0.0000
vt 0.0012 0.9332 0.0000
vt 0.3881 0.9077 0.0000
vt 0.3864 0.9058 0.0000
vt 0.9983 -0.0004 0.0000
vt 1.0003 0.0012 0.0000
vt 0.0017 0.9613 0.0000
vt -0.0003 0.9596 0.0000
vt -0.0004 0.9357 0.0000
vt 0.0012 0.9338 0.0000
vt 0.0017 0.0272 0.0000
vt -0.0003 0.0256 0.0000
vt 0.3879 0.9357 0.0000
vt 0.3865 0.9338 0.0000
vt 0.9494 0.5612 0.0000
vt 0.9514 0.5598 0.0000
vt 0.9509 0.9022 0.0000
vt 0.9492 0.9041 0.0000
vt 0.9494 0.5473 0.0000
vt 0.9514 0.5457 0.0000
vt 0.3991 0.9338 0.0000
vt 0.3972 0.9352 0.0000
vt 0.7368 0.9415 0.0000
vt 0.7366 0.9443 0.0000
vt 0.0267 0.0995 0.0000
vt 0.0251 0.1020 0.0000
vt 0.9758 0.1016 0.0000
vt 0.9734 0.1000 0.0000
vt 0.9738 0.1140 0.0000
vt 0.9754 0.1115 0.0000
vt -0.0004 0.9080 0.0000
vt -0.0004 0.9309 0.0000
vt 0.9979 0.1492 0.0000
vt 0.9748 0.1492 0.0000
vt 0.0250 0.0743 0.0000
vt 0.0020 0.0743 0.0000
vt 0.9980 0.0272 0.0000
vt 0.9750 0.0272 0.0000
vt 0.9750 -0.0004 0.0000
vt 0.9980 -0.0004 0.0000
vt 0.3881 0.9309 0.0000
vt 0.3881 0.9080 0.0000
vt 0.0252 0.9058 0.0000
vt 0.0020 0.9058 0.0000
vt -0.0004 0.9589 0.0000
vt -0.0004 0.9360 0.0000
vt 0.0020 0.9338 0.0000
vt 0.0252 0.9338 0.0000
vt 0.0252 0.9613 0.0000
vt 0.0020 0.9613 0.0000
vt 0.0020 0.1492 0.0000
vt 0.0244 0.1492 0.0000
vt 0.0252 0.9333 0.0000
vt 0.0020 0.9333 0.0000
vt 0.9755 0.0743 0.0000
vt 0.0244 0.0272 0.0000
vt 0.0244 -0.0004 0.0000
vt 0.9735 0.1002 0.0000
vt 0.0269 0.1002 0.0000
vt 0.9979 0.0743 0.0000
vt 0.0020 0.0272 0.0000
vt 0.3879 0.9589 0.0000
vt 0.3879 0.9360 0.0000
vt 0.0020 -0.0004 0.0000
vt 0.7361 0.9315 0.0000
vt 0.4013 0.9315 0.0000
vt 0.3641 0.9058 0.0000
vt 0.3857 0.9338 0.0000
vt 0.3857 0.9613 0.0000
vt 0.3641 0.9333 0.0000
vt 0.9509 0.5671 0.0000
vt 0.9509 0.9019 0.0000
vt 0.9485 0.9041 0.0000
vt 0.0020 0.9041 0.0000
vt 0.7344 0.9338 0.0000
vt 0.3994 0.9338 0.0000
vt 0.0020 0.5647 0.0000
vt 0.9485 0.5647 0.0000
vt 0.0241 0.9622 0.0000
vt 0.3589 0.9622 0.0000
vt 0.3857 0.9058 0.0000
vt 0.3857 0.9333 0.0000
vt 0.0270 0.1133 0.0000
vt 0.9735 0.1133 0.0000
vt 0.3972 0.9419 0.0000
vt 0.3972 0.9360 0.0000
vt 0.7368 0.9360 0.0000
vt 0.7368 0.9419 0.0000
vt 0.3397 0.9979 0.0000
vt 0.3397 0.9921 0.0000
vt 0.0002 0.5391 0.0000
vt 0.0002 0.5449 0.0000
# 182 texture coords

o BulletinBoard_Board_Lowpoly
g BulletinBoard_Board_Lowpoly
usemtl Tool_Board_Lowpoly_wire_086086086
s off
f 1/1/1 2/2/2 3/3/3 4/4/4 
f 5/5/5 6/6/6 7/7/7 8/8/8 
f 9/9/9 10/10/10 11/11/11 12/12/12 
f 13/13/13 14/14/14 15/15/15 16/16/16 
f 17/17/17 18/18/18 19/19/19 20/20/20 
f 21/21/21 22/22/22 23/23/23 24/24/24 
f 25/25/2 2/2/2 1/1/1 26/26/1 
f 27/27/5 5/5/5 8/8/8 28/28/8 
f 29/29/25 11/11/11 10/10/10 30/30/10 
f 31/31/26 32/32/17 33/33/20 34/34/27 
f 32/32/17 17/17/17 20/20/20 33/33/20 
f 35/35/28 25/25/2 26/26/1 36/36/29 
f 37/37/30 27/27/5 28/28/8 38/38/31 
f 39/39/32 40/40/33 29/29/25 30/30/10 
f 41/41/12 12/42/12 11/43/11 42/44/34 
f 43/45/35 14/14/14 13/13/13 44/46/36 
f 45/47/37 18/18/18 17/17/17 46/48/17 47/49/38 
f 48/50/22 22/22/22 21/21/21 49/51/21 
f 50/52/32 51/53/39 52/54/40 53/55/9 
f 54/56/17 32/32/17 31/31/26 55/57/26 
f 46/48/17 17/17/17 32/32/17 54/56/17 
f 56/58/41 29/59/25 40/60/33 57/61/39 58/62/42 
f 42/63/34 59/64/42 60/65/40 41/66/12 
f 61/67/43 48/50/22 49/51/21 62/68/44 
f 59/64/42 42/63/34 56/69/41 58/70/42 
f 63/71/38 54/56/17 55/57/26 64/72/45 
f 47/49/38 46/48/17 54/56/17 63/71/38 
f 65/73/35 66/74/15 67/75/46 68/76/47 
f 69/77/7 70/78/31 71/79/48 72/80/49 
f 73/81/24 74/82/44 75/83/50 76/84/51 
f 77/85/28 78/86/3 79/87/52 80/88/53 
f 3/89/3 9/9/9 24/90/24 
f 4/91/4 23/23/23 34/92/27 
f 7/93/7 62/68/44 60/94/40 
f 6/6/6 64/95/45 61/96/43 
f 15/15/15 39/97/32 35/98/28 
f 16/16/16 36/99/29 19/100/19 
f 38/38/31 57/101/39 43/102/35 
f 37/103/30 44/46/36 45/104/37 
f 52/105/40 69/77/7 74/106/44 
f 53/55/9 73/107/24 78/108/3 
f 50/109/32 77/85/28 66/110/15 
f 51/111/39 65/73/35 70/112/31 
f 80/113/53 42/114/34 67/75/46 
f 11/11/11 71/115/48 68/116/47 
f 29/29/25 75/117/50 72/118/49 
f 56/69/41 79/119/52 76/120/51 
f 3/121/3 24/24/24 23/23/23 4/122/4 
f 4/123/4 34/34/27 33/33/20 1/124/1 
f 2/125/2 10/10/10 9/9/9 3/126/3 
f 7/7/7 60/127/40 59/128/42 8/8/8 
f 5/5/5 63/129/38 64/130/45 6/6/6 
f 6/131/6 61/67/43 62/68/44 7/132/7 
f 12/133/12 21/21/21 24/24/24 9/134/9 
f 15/15/15 35/135/28 36/136/29 16/16/16 
f 16/16/16 19/137/19 18/138/18 13/13/13 
f 14/14/14 40/139/33 39/140/32 15/15/15 
f 19/19/19 36/141/29 26/142/1 20/20/20 
f 22/22/22 31/143/26 34/144/27 23/23/23 
f 1/124/1 33/33/20 20/20/20 26/142/1 
f 25/145/2 30/30/10 10/10/10 2/125/2 
f 8/8/8 59/128/42 58/146/42 28/28/8 
f 27/27/5 47/147/38 63/129/38 5/5/5 
f 29/29/25 72/148/49 71/149/48 11/11/11 
f 35/150/28 39/39/32 30/30/10 25/145/2 
f 28/28/8 58/146/42 57/151/39 38/38/31 
f 38/152/31 43/45/35 44/46/36 37/153/30 
f 37/37/30 45/154/37 47/147/38 27/27/5 
f 11/43/11 68/155/47 67/156/46 42/44/34 
f 41/157/12 49/51/21 21/21/21 12/133/12 
f 13/13/13 18/138/18 45/158/37 44/46/36 
f 43/45/35 57/159/39 40/139/33 14/14/14 
f 48/50/22 55/160/26 31/143/26 22/22/22 
f 52/54/40 74/161/44 73/162/24 53/55/9 
f 53/55/9 78/163/3 77/164/28 50/52/32 
f 50/165/32 66/74/15 65/73/35 51/166/39 
f 51/53/39 70/167/31 69/168/7 52/54/40 
f 56/58/41 76/169/51 75/170/50 29/59/25 
f 60/171/40 62/68/44 49/51/21 41/157/12 
f 61/67/43 64/172/45 55/160/26 48/50/22 
f 42/63/34 80/173/53 79/174/52 56/69/41 
f 68/76/47 71/175/48 70/176/31 65/73/35 
f 66/74/15 77/177/28 80/178/53 67/75/46 
f 72/179/49 75/83/50 74/82/44 69/180/7 
f 76/181/51 79/87/52 78/86/3 73/182/24 
# 69 polygons - 16 triangles

