# 3ds Max Wavefront OBJ Exporter v0.97b - (c)2007 guruware
# File Created: 26.06.2020 18:07:02

mtllib ModularWall_30x50x4_Tile_Lowpoly.mtl

#
# object 30x50x4_Tile_Lowpoly
#

v  25.0000 0.0000 -2.0000
v  25.0000 0.0000 2.0000
v  -25.0000 0.0000 2.0000
v  -25.0000 0.0000 -2.0000
v  25.0000 30.0000 2.0000
v  -25.0000 30.0000 2.0000
v  25.0000 30.0000 -2.0000
v  -25.0000 30.0000 -2.0000
# 8 vertices

vn 0.5774 -0.5774 -0.5774
vn 0.5774 -0.5774 0.5774
vn -0.5774 -0.5774 0.5774
vn -0.5774 -0.5774 -0.5774
vn 0.5774 0.5774 0.5774
vn -0.5774 0.5774 0.5774
vn 0.5774 0.5774 -0.5774
vn -0.5774 0.5774 -0.5774
# 8 vertex normals

vt 0.7938 0.9407 0.0000
vt 0.7938 0.9995 0.0000
vt 0.0593 0.9995 0.0000
vt 0.0593 0.9407 0.0000
vt 0.7938 0.0005 0.0000
vt 0.7938 0.4412 0.0000
vt 0.0593 0.4412 0.0000
vt 0.0593 0.0005 0.0000
vt 0.8526 0.0005 0.0000
vt 0.8526 0.4412 0.0000
vt 0.0593 0.5000 0.0000
vt 0.7938 0.5000 0.0000
vt 0.0005 0.0005 0.0000
vt 0.0005 0.4412 0.0000
# 14 texture coords

o 30x50x4_Tile_Lowpoly
g 30x50x4_Tile_Lowpoly
usemtl wire_214228153
s 2
f 1/1/1 2/2/2 3/3/3 4/4/4 
s 8
f 2/5/2 5/6/5 6/7/6 3/8/3 
s 16
f 2/5/2 1/9/1 7/10/7 5/6/5 
s 32
f 4/4/4 8/11/8 7/12/7 1/1/1 
s 64
f 4/13/4 3/8/3 6/7/6 8/14/8 
s 4
f 5/6/5 7/12/7 8/11/8 6/7/6 
# 6 polygons

