# 3ds Max Wavefront OBJ Exporter v0.97b - (c)2007 guruware
# File Created: 03.07.2020 09:52:58

mtllib ChunkyBrokenWall04_Lowpoly.mtl

#
# object ChunkyBrokenWall04_Lowpoly
#

v  -8.3951 0.0000 0.7511
v  -8.3951 10.3847 0.7511
v  -11.3588 10.3456 0.7511
v  -11.3588 0.0000 0.7511
v  -7.2107 10.3574 0.7511
v  -7.2107 0.0000 0.7511
v  -4.2901 0.0000 0.7511
v  -4.2901 11.2717 0.7511
v  -1.1912 0.0000 0.7511
v  -1.1912 11.2510 0.7511
v  -2.1439 11.2632 0.7511
v  -2.1439 0.0000 0.7511
v  2.1821 0.0000 0.7511
v  4.2816 0.0000 0.7511
v  4.2176 10.3970 0.7511
v  2.1821 10.3615 0.7511
v  8.0084 0.0000 0.7511
v  8.0084 10.2835 0.7511
v  8.4448 -0.0000 0.7511
v  8.4448 10.3146 0.7511
v  -11.3588 10.3456 -0.7511
v  -8.3951 10.3847 -0.7511
v  -8.3951 0.0000 -0.7511
v  -11.3588 0.0000 -0.7511
v  -4.2901 0.0000 -0.7511
v  -7.2107 0.0000 -0.7511
v  -7.2107 10.3574 -0.7511
v  -4.2901 11.2717 -0.7511
v  -2.1439 11.2632 -0.7511
v  -1.1912 11.2510 -0.7511
v  -1.1912 0.0000 -0.7511
v  -2.1439 0.0000 -0.7511
v  4.2176 10.3970 -0.7511
v  4.2816 0.0000 -0.7511
v  2.1821 0.0000 -0.7511
v  2.1821 10.3615 -0.7511
v  8.0084 10.2835 -0.7511
v  8.0084 0.0000 -0.7511
v  11.3588 10.3456 -0.7511
v  11.3588 0.0000 -0.7511
v  8.4448 -0.0000 -0.7511
v  8.4448 10.3146 -0.7511
v  -11.2556 11.0037 0.7511
v  -8.5241 11.0397 0.7511
v  -8.5241 11.0397 -0.7511
v  -11.2556 11.0037 -0.7511
v  -7.1027 14.2946 0.7511
v  -4.4045 14.2946 0.7511
v  -4.4045 14.2946 -0.7511
v  -7.1027 14.2946 -0.7511
v  4.4758 12.6238 0.7511
v  7.1929 12.6742 0.7511
v  7.1929 12.6742 -0.7511
v  4.4758 12.6238 -0.7511
v  11.3588 0.0000 0.7511
v  -1.1221 11.7164 0.7511
v  1.9471 11.7149 0.7511
v  1.9471 11.7149 -0.7511
v  -1.1221 11.7164 -0.7511
v  -4.3124 13.9663 0.7511
v  -2.2583 13.9663 0.7511
v  -2.2583 13.9663 -0.7511
v  -4.3124 13.9663 -0.7511
v  7.9855 11.9071 0.7511
v  4.2322 12.3589 0.7511
v  7.9855 11.9071 -0.7511
v  4.2322 12.3589 -0.7511
v  2.2040 11.4542 0.7511
v  -1.2019 11.6344 0.7511
v  2.2040 11.4542 -0.7511
v  -1.2019 11.6344 -0.7511
v  -7.2330 13.9663 0.7511
v  -2.1621 13.8743 0.7511
v  -2.1621 13.8743 -0.7511
v  -7.2330 13.9663 -0.7511
v  -4.3124 14.2025 -0.7511
v  -4.3124 14.2025 0.7511
v  -7.2330 14.1643 -0.7511
v  -7.2330 14.1643 0.7511
v  11.3588 10.3456 0.7511
v  8.7269 10.9742 0.7511
v  11.2686 11.0013 0.7511
v  11.2686 11.0013 -0.7511
v  8.7269 10.9742 -0.7511
v  11.3517 10.9201 0.7511
v  8.4403 10.6810 0.7511
v  11.3517 10.9201 -0.7511
v  8.4403 10.6810 -0.7511
v  -8.4057 10.9252 0.7511
v  -11.3694 10.8861 0.7511
v  -8.4057 10.9252 -0.7511
v  -11.3694 10.8861 -0.7511
# 92 vertices

vn 0.0000 -0.7071 0.7071
vn 0.3095 0.3084 0.8995
vn -0.7048 -0.0069 0.7093
vn -0.5774 -0.5774 0.5774
vn -0.2938 0.2988 0.9079
vn 0.0000 -0.0000 1.0000
vn -0.2965 0.2921 0.9093
vn 0.3059 0.3041 0.9022
vn -0.3074 0.3043 0.9016
vn 0.2953 0.2945 0.9089
vn 0.2788 0.3036 0.9111
vn -0.3244 0.2985 0.8976
vn -0.7048 -0.0069 -0.7093
vn 0.3095 0.3084 -0.8995
vn 0.0000 -0.7071 -0.7071
vn -0.5774 -0.5774 -0.5774
vn -0.2938 0.2988 -0.9079
vn 0.0000 0.0000 -1.0000
vn 0.3059 0.3041 -0.9022
vn -0.2965 0.2921 -0.9093
vn -0.3074 0.3043 -0.9016
vn 0.2953 0.2945 -0.9089
vn 0.2788 0.3036 -0.9111
vn -0.0000 -0.7071 -0.7071
vn 0.7085 0.0044 -0.7057
vn 0.5774 -0.5774 -0.5774
vn -0.3244 0.2985 -0.8976
vn -0.3078 0.7130 0.6300
vn 0.2864 0.7214 0.6305
vn 0.2864 0.7214 -0.6305
vn -0.3078 0.7130 -0.6300
vn -0.2971 0.7173 0.6303
vn 0.2971 0.7173 0.6303
vn 0.2971 0.7173 -0.6303
vn -0.2971 0.7173 -0.6303
vn -0.3193 0.7094 0.6284
vn 0.2846 0.7225 0.6301
vn 0.2846 0.7225 -0.6301
vn -0.3193 0.7094 -0.6284
vn 0.5773 -0.5774 0.5774
vn -0.3022 0.7162 0.6291
vn 0.3001 0.7165 0.6297
vn 0.3001 0.7165 -0.6297
vn -0.3022 0.7162 -0.6291
vn 0.3015 0.3015 0.9045
vn 0.2887 0.7191 0.6321
vn 0.2887 0.7191 -0.6321
vn 0.3015 0.3015 -0.9045
vn 0.7128 0.3081 0.6301
vn -0.7192 0.2835 0.6344
vn 0.7128 0.3081 -0.6301
vn -0.7192 0.2835 -0.6344
vn 0.7221 0.2876 0.6292
vn -0.7242 0.2825 0.6291
vn 0.7221 0.2876 -0.6292
vn -0.7242 0.2825 -0.6291
vn -0.7078 -0.0022 0.7064
vn 0.7138 0.3078 0.6290
vn 0.7138 0.3078 -0.6290
vn -0.7078 -0.0022 -0.7064
vn 0.7173 0.2971 -0.6303
vn 0.7173 0.2971 0.6303
vn -0.7173 0.2971 -0.6303
vn -0.7173 0.2971 0.6303
vn 0.7085 0.0044 0.7057
vn -0.3050 0.7140 0.6302
vn 0.2891 0.7204 0.6304
vn 0.2891 0.7204 -0.6304
vn -0.3051 0.7140 -0.6302
vn 0.7136 0.3056 0.6303
vn -0.7208 0.2886 0.6302
vn 0.7136 0.3056 -0.6303
vn -0.7208 0.2886 -0.6302
vn 0.7116 0.3099 0.6305
vn -0.7227 0.2842 0.6300
vn 0.7116 0.3099 -0.6305
vn -0.7227 0.2842 -0.6300
# 77 vertex normals

vt 0.1393 0.5000 0.0000
vt 0.1382 0.8193 0.0000
vt 0.0471 0.8181 0.0000
vt 0.0499 0.5000 0.0000
vt 0.1746 0.8184 0.0000
vt 0.1756 0.5000 0.0000
vt 0.2653 0.5000 0.0000
vt 0.2644 0.8465 0.0000
vt 0.3604 0.5000 0.0000
vt 0.3597 0.8459 0.0000
vt 0.3304 0.8463 0.0000
vt 0.3312 0.5000 0.0000
vt 0.4640 0.5000 0.0000
vt 0.5285 0.5000 0.0000
vt 0.5260 0.8196 0.0000
vt 0.4634 0.8186 0.0000
vt 0.6429 0.5000 0.0000
vt 0.6425 0.8162 0.0000
vt 0.6563 0.5000 0.0000
vt 0.6559 0.8171 0.0000
vt 0.7482 0.3312 0.0000
vt 0.6572 0.3307 0.0000
vt 0.6631 0.0121 0.0000
vt 0.7541 0.0138 0.0000
vt 0.5372 0.0098 0.0000
vt 0.6268 0.0114 0.0000
vt 0.6209 0.3292 0.0000
vt 0.5307 0.3556 0.0000
vt 0.4649 0.3541 0.0000
vt 0.4357 0.3532 0.0000
vt 0.4421 0.0080 0.0000
vt 0.4713 0.0085 0.0000
vt 0.2702 0.3239 0.0000
vt 0.2741 0.0049 0.0000
vt 0.3386 0.0061 0.0000
vt 0.3327 0.3240 0.0000
vt 0.1539 0.3183 0.0000
vt 0.1598 0.0028 0.0000
vt 0.0511 0.3183 0.0000
vt 0.0550 0.0008 0.0000
vt 0.1464 0.0025 0.0000
vt 0.1405 0.3190 0.0000
vt 0.6632 0.9995 0.0000
vt 0.5794 0.9986 0.0000
vt 0.5799 0.9525 0.0000
vt 0.6637 0.9534 0.0000
vt 0.0495 0.4539 0.0000
vt 0.1404 0.4539 0.0000
vt 0.1767 0.4539 0.0000
vt 0.2662 0.4539 0.0000
vt 0.4022 0.9967 0.0000
vt 0.3194 0.9958 0.0000
vt 0.3199 0.9497 0.0000
vt 0.4027 0.9506 0.0000
vt 0.1610 0.9938 0.0000
vt 0.1313 0.9935 0.0000
vt 0.1318 0.9466 0.0000
vt 0.1615 0.9470 0.0000
vt 0.3320 0.4539 0.0000
vt 0.3612 0.4539 0.0000
vt 0.4646 0.4539 0.0000
vt 0.5290 0.4539 0.0000
vt 0.7381 0.9507 0.0000
vt 0.6756 0.9504 0.0000
vt 0.6761 0.9038 0.0000
vt 0.7386 0.9048 0.0000
vt 0.6433 0.4539 0.0000
vt 0.6066 0.9509 0.0000
vt 0.5249 0.9500 0.0000
vt 0.5254 0.9048 0.0000
vt 0.6071 0.9057 0.0000
vt 0.7457 0.5000 0.0000
vt 0.6566 0.4539 0.0000
vt 0.7460 0.4539 0.0000
vt 0.4463 0.9462 0.0000
vt 0.4315 0.9453 0.0000
vt 0.4320 0.8958 0.0000
vt 0.4469 0.8952 0.0000
vt 0.8719 0.9519 0.0000
vt 0.7791 0.9509 0.0000
vt 0.7796 0.9055 0.0000
vt 0.8724 0.9065 0.0000
vt 0.3092 0.9953 0.0000
vt 0.2453 0.9947 0.0000
vt 0.2458 0.9479 0.0000
vt 0.3097 0.9486 0.0000
vt 0.5592 0.9984 0.0000
vt 0.5229 0.9980 0.0000
vt 0.5234 0.9519 0.0000
vt 0.5597 0.9523 0.0000
vt 0.6418 0.8661 0.0000
vt 0.5264 0.8800 0.0000
vt 0.5021 0.8943 0.0000
vt 0.5015 0.9483 0.0000
vt 0.2686 0.3881 0.0000
vt 0.2610 0.3921 0.0000
vt 0.1776 0.3921 0.0000
vt 0.1537 0.3816 0.0000
vt 0.6141 0.9505 0.0000
vt 0.6146 0.9024 0.0000
vt 0.4641 0.8521 0.0000
vt 0.3593 0.8577 0.0000
vt 0.7719 0.9053 0.0000
vt 0.7714 0.9509 0.0000
vt 0.4358 0.3650 0.0000
vt 0.4333 0.3675 0.0000
vt 0.3391 0.3657 0.0000
vt 0.3314 0.3575 0.0000
vt 0.8864 0.9067 0.0000
vt 0.8859 0.9520 0.0000
vt 0.8743 0.9519 0.0000
vt 0.8748 0.9065 0.0000
vt 0.2637 0.9294 0.0000
vt 0.1739 0.9294 0.0000
vt 0.3298 0.9265 0.0000
vt 0.3269 0.9294 0.0000
vt 0.2428 0.9479 0.0000
vt 0.2423 0.9946 0.0000
vt 0.5299 0.4383 0.0000
vt 0.4669 0.4371 0.0000
vt 0.4640 0.4343 0.0000
vt 0.6195 0.4400 0.0000
vt 0.4122 0.9968 0.0000
vt 0.4127 0.9507 0.0000
vt 0.3171 0.9485 0.0000
vt 0.3166 0.9956 0.0000
vt 0.6194 0.4461 0.0000
vt 0.6153 0.4500 0.0000
vt 0.5325 0.4484 0.0000
vt 0.5297 0.4470 0.0000
vt 0.4062 0.9967 0.0000
vt 0.4067 0.9507 0.0000
vt 0.2637 0.9366 0.0000
vt 0.2609 0.9395 0.0000
vt 0.1779 0.9395 0.0000
vt 0.1739 0.9355 0.0000
vt 0.0009 0.8172 0.0000
vt 0.0072 0.4991 0.0000
vt 0.0070 0.0005 0.0000
vt 0.0050 0.3180 0.0000
vt 0.7455 0.8181 0.0000
vt 0.4108 0.9436 0.0000
vt 0.3319 0.9428 0.0000
vt 0.3324 0.8962 0.0000
vt 0.4113 0.8970 0.0000
vt 0.7453 0.8357 0.0000
vt 0.7427 0.8382 0.0000
vt 0.6646 0.8374 0.0000
vt 0.6558 0.8284 0.0000
vt 0.0510 0.3359 0.0000
vt 0.0049 0.3356 0.0000
vt 0.1404 0.3302 0.0000
vt 0.1315 0.3391 0.0000
vt 0.0522 0.3384 0.0000
vt 0.4198 0.9441 0.0000
vt 0.4203 0.8967 0.0000
vt 0.1379 0.8359 0.0000
vt 0.1342 0.8394 0.0000
vt 0.0485 0.8383 0.0000
vt 0.0468 0.8347 0.0000
vt 0.5763 0.9525 0.0000
vt 0.5758 0.9986 0.0000
vt 0.7482 0.3478 0.0000
vt 0.7446 0.3514 0.0000
vt 0.6608 0.3509 0.0000
vt 0.6572 0.3473 0.0000
vt 0.0006 0.8338 0.0000
vt 0.0005 0.8374 0.0000
vt 0.0049 0.3381 0.0000
vt 0.6174 0.8897 0.0000
vt 0.5339 0.8881 0.0000
vt 0.4562 0.8602 0.0000
vt 0.3618 0.8602 0.0000
# 173 texture coords

o ChunkyBrokenWall04_Lowpoly
g ChunkyBrokenWall04_Lowpoly
usemtl house_Material
s 1
f 1/1/1 2/2/2 3/3/3 4/4/4 
f 5/5/5 6/6/1 7/7/1 8/8/6 
f 9/9/1 10/10/7 11/11/8 12/12/1 
f 13/13/1 14/14/1 15/15/9 16/16/10 
f 14/14/1 17/17/1 18/18/11 15/15/9 
f 17/17/1 19/19/1 20/20/12 18/18/11 
f 16/16/10 10/10/7 9/9/1 13/13/1 
f 11/11/8 8/8/6 7/7/1 12/12/1 
f 5/5/5 2/2/2 1/1/1 6/6/1 
f 21/21/13 22/22/14 23/23/15 24/24/16 
f 25/25/15 26/26/15 27/27/17 28/28/18 
f 29/29/19 30/30/20 31/31/15 32/32/15 
f 33/33/21 34/34/15 35/35/15 36/36/22 
f 37/37/23 38/38/24 34/34/15 33/33/21 
f 39/39/25 40/40/26 41/41/24 42/42/27 
f 31/31/15 30/30/20 36/36/22 35/35/15 
f 25/25/15 28/28/18 29/29/19 32/32/15 
f 23/23/15 22/22/14 27/27/17 26/26/15 
s 2
f 43/43/28 44/44/29 45/45/30 46/46/31 
f 1/1/1 4/4/4 24/47/16 23/48/15 
f 7/7/1 6/6/1 26/49/15 25/50/15 
f 47/51/32 48/52/33 49/53/34 50/54/35 
f 11/55/8 10/56/7 30/57/20 29/58/19 
f 9/9/1 12/12/1 32/59/15 31/60/15 
f 14/14/1 13/13/1 35/61/15 34/62/15 
f 16/63/10 15/64/9 33/65/21 36/66/22 
f 17/17/1 14/14/1 34/62/15 38/67/24 
f 51/68/36 52/69/37 53/70/38 54/71/39 
f 55/72/40 19/19/1 41/73/24 40/74/26 
f 18/75/11 20/76/12 42/77/27 37/78/23 
f 56/79/41 57/80/42 58/81/43 59/82/44 
f 13/13/1 9/9/1 31/60/15 35/61/15 
f 60/83/45 61/84/46 62/85/47 63/86/48 
f 12/12/1 7/7/1 25/50/15 32/59/15 
f 2/87/2 5/88/5 27/89/17 22/90/14 
f 6/6/1 1/1/1 23/48/15 26/49/15 
s 1
f 15/15/9 18/18/11 64/91/49 65/92/50 
s 4
f 18/75/11 37/78/23 66/93/51 64/94/49 
s 1
f 67/95/52 54/96/39 53/97/38 66/98/51 
s 4
f 33/65/21 15/64/9 65/99/50 67/100/52 
s 1
f 10/10/7 16/16/10 68/101/53 69/102/54 
s 4
f 16/63/10 36/66/22 70/103/55 68/104/53 
s 1
f 71/105/56 59/106/44 58/107/43 70/108/55 
s 4
f 30/109/20 10/110/7 69/111/54 71/112/56 
s 1
f 5/5/5 8/8/6 60/113/45 72/114/57 
f 8/8/6 11/11/8 73/115/58 61/116/46 60/113/45 
s 4
f 11/55/8 29/58/19 74/117/59 73/118/58 
s 1
f 29/29/19 28/28/18 63/119/48 62/120/47 74/121/59 
f 28/28/18 27/27/17 75/122/60 63/119/48 
s 4
f 27/89/17 5/88/5 72/123/57 75/124/60 
f 60/83/45 63/86/48 76/125/61 77/126/62 
s 1
f 63/119/48 75/122/60 78/127/63 50/128/35 49/129/34 76/130/61 
s 4
f 75/124/60 72/123/57 79/131/64 78/132/63 
s 1
f 72/114/57 60/113/45 77/133/62 48/134/33 47/135/32 79/136/64 
s 8
f 52/69/37 64/94/49 66/93/51 53/70/38 
f 54/71/39 67/100/52 65/99/50 51/68/36 
f 57/80/42 68/104/53 70/103/55 58/81/43 
f 61/84/46 73/118/58 74/117/59 62/85/47 
f 48/52/33 77/126/62 76/125/61 49/53/34 
f 50/54/35 78/132/63 79/131/64 47/51/32 
s 4
f 3/3/3 21/137/13 24/138/16 4/4/4 
f 55/139/40 40/40/26 39/39/25 80/140/65 
s 1
f 19/19/1 55/72/40 80/141/65 20/20/12 
f 41/41/24 38/38/24 37/37/23 42/42/27 
s 2
f 19/19/1 17/17/1 38/67/24 41/73/24 
f 81/142/66 82/143/67 83/144/68 84/145/69 
s 1
f 85/146/70 82/147/67 81/148/66 86/149/71 
s 4
f 80/140/65 39/39/25 87/150/72 85/151/70 
s 1
f 88/152/73 84/153/69 83/154/68 87/150/72 
s 4
f 42/77/27 20/76/12 86/155/71 88/156/73 
s 1
f 89/157/74 44/158/29 43/159/28 90/160/75 
s 4
f 2/87/2 22/90/14 91/161/76 89/162/74 
s 1
f 92/163/77 46/164/31 45/165/30 91/166/76 
s 4
f 21/137/13 3/3/3 90/160/75 92/167/77 
s 8
f 44/44/29 89/162/74 91/161/76 45/45/30 
f 46/168/31 92/167/77 90/160/75 43/159/28 
f 82/169/67 85/151/70 87/150/72 83/154/68 
f 84/145/69 88/156/73 86/155/71 81/142/66 
f 59/82/44 71/112/56 69/111/54 56/79/41 
s 1
f 87/150/72 39/39/25 42/42/27 88/152/73 
f 86/149/71 20/20/12 80/141/65 85/146/70 
f 64/91/49 52/170/37 51/171/36 65/92/50 
f 66/98/51 37/37/23 33/33/21 67/95/52 
f 70/108/55 36/36/22 30/30/20 71/105/56 
f 68/101/53 57/172/42 56/173/41 69/102/54 
f 91/166/76 22/22/14 21/21/13 92/163/77 
f 90/160/75 3/3/3 2/2/2 89/157/74 
# 87 polygons

