# 3ds Max Wavefront OBJ Exporter v0.97b - (c)2007 guruware
# File Created: 26.07.2020 00:05:18

mtllib ModularWall_25x15x4_Brick_Version2_Lowpoly.mtl

#
# object 25x15x4_Brick_Version2_Lowpoly
#

v  2.5000 0.0000 -2.0000
v  2.5000 0.0000 2.0000
v  -2.5000 0.0000 2.0000
v  -2.5000 0.0000 -2.0000
v  2.5000 25.0000 2.0000
v  2.5000 25.0000 -2.0000
v  -2.5000 25.0000 -2.0000
v  -2.5000 25.0000 2.0000
v  2.5000 11.6875 2.0000
v  -2.5000 11.6875 2.0000
v  7.5000 0.0000 -2.0000
v  7.5000 11.6875 -2.0000
v  7.5000 11.6875 2.0000
v  7.5000 0.0000 2.0000
v  -2.5000 11.6875 -2.0000
v  2.5000 11.6875 -2.0000
v  -10.5000 0.0000 2.0000
v  -10.5000 11.7126 2.0000
v  -10.5000 11.7126 -2.0000
v  -10.5000 0.0000 -2.0000
v  -2.5000 12.5000 2.0000
v  2.5000 12.5000 2.0000
v  10.5000 24.6063 -2.0000
v  10.5000 24.6063 2.0000
v  10.5000 13.2874 2.0000
v  10.5000 13.2874 -2.0000
v  2.5000 12.5000 -2.0000
v  -2.5000 12.5000 -2.0000
v  -7.5000 25.0000 2.0000
v  -7.5000 25.0000 -2.0000
v  -7.5000 12.5000 -2.0000
v  -7.5000 12.5000 2.0000
v  -7.5000 0.0000 2.0000
v  -7.5000 0.0000 -2.0000
v  7.5000 25.0000 2.0000
v  7.5000 25.0000 -2.0000
v  -7.1063 28.0000 -2.0000
v  -7.1063 28.0000 2.0000
v  -3.2874 28.0000 2.0000
v  -3.2874 28.0000 -2.0000
v  -7.5000 11.6875 2.0000
v  -7.5000 11.6875 -2.0000
v  7.5000 12.5000 -2.0000
v  7.5000 12.5000 2.0000
v  -2.5000 27.2126 2.0000
v  -7.5000 27.6063 2.0000
v  -2.5000 27.2126 -2.0000
v  -7.5000 27.6063 -2.0000
v  -9.8813 0.0000 2.0000
v  -9.8813 0.0000 -2.0000
v  -9.8813 11.6875 2.0000
v  -9.8813 12.5000 -2.0000
v  -9.8813 12.5000 2.0000
v  -9.8813 11.6875 -2.0000
v  10.1063 25.0000 2.0000
v  10.1063 25.0000 -2.0000
v  9.7126 12.5000 2.0000
v  9.7126 12.5000 -2.0000
# 58 vertices

vn 0.0000 -0.7071 -0.7071
vn 0.0000 -0.7071 0.7071
vn 0.0000 0.7071 0.7071
vn 0.0000 0.7071 -0.7071
vn 0.3015 0.3015 -0.9045
vn 0.3015 0.3015 0.9045
vn 0.0000 0.0000 1.0000
vn 0.5774 -0.5774 -0.5774
vn 0.7071 0.0000 -0.7071
vn 0.7071 0.0000 0.7071
vn 0.5774 -0.5774 0.5774
vn 0.0000 0.0000 -1.0000
vn -0.5774 -0.5774 0.5774
vn -0.7259 0.2511 0.6404
vn -0.7259 0.2511 -0.6404
vn -0.5774 -0.5774 -0.5774
vn 0.7173 0.2971 -0.6303
vn 0.7173 0.2971 0.6303
vn 0.7173 -0.2971 0.6303
vn 0.7173 -0.2971 -0.6303
vn -0.7071 0.0000 0.7071
vn -0.7071 0.0000 -0.7071
vn -0.3015 0.3015 -0.9045
vn -0.3015 0.3015 0.9045
vn -0.2971 0.7173 -0.6303
vn -0.2971 0.7173 0.6303
vn 0.2971 0.7173 0.6303
vn 0.2971 0.7173 -0.6303
vn 0.3015 -0.3015 -0.9045
vn 0.3015 -0.3015 0.9045
vn -0.7173 0.2971 0.6303
vn -0.7173 0.2971 -0.6303
vn -0.3427 0.7052 -0.6207
vn -0.3427 0.7052 0.6207
vn 0.2971 -0.7173 0.6303
vn 0.2971 -0.7173 -0.6303
# 36 vertex normals

vt 0.1865 0.5035 0.0000
vt 0.1865 0.4415 0.0000
vt 0.2641 0.4415 0.0000
vt 0.2641 0.5035 0.0000
vt 0.1865 0.9530 0.0000
vt 0.1865 0.8910 0.0000
vt 0.2641 0.8910 0.0000
vt 0.2641 0.9530 0.0000
vt 0.1865 0.2603 0.0000
vt 0.2641 0.2603 0.0000
vt 0.0470 0.4415 0.0000
vt 0.0470 0.2603 0.0000
vt 0.1090 0.2603 0.0000
vt 0.1090 0.4415 0.0000
vt 0.2641 0.6846 0.0000
vt 0.1865 0.6846 0.0000
vt 0.3880 0.4415 0.0000
vt 0.3880 0.2599 0.0000
vt 0.4501 0.2599 0.0000
vt 0.4501 0.4415 0.0000
vt 0.2641 0.0539 0.0000
vt 0.2641 0.2477 0.0000
vt 0.1865 0.2477 0.0000
vt 0.1865 0.0539 0.0000
vt 0.0005 0.0600 0.0000
vt 0.0625 0.0600 0.0000
vt 0.0625 0.2354 0.0000
vt 0.0005 0.2354 0.0000
vt 0.1865 0.6972 0.0000
vt 0.2641 0.6972 0.0000
vt 0.3415 0.0539 0.0000
vt 0.4035 0.0539 0.0000
vt 0.4035 0.2477 0.0000
vt 0.3415 0.2477 0.0000
vt 0.1090 0.5035 0.0000
vt 0.3415 0.4415 0.0000
vt 0.3415 0.5035 0.0000
vt 0.1090 0.9530 0.0000
vt 0.1090 0.8910 0.0000
vt 0.3354 0.9375 0.0000
vt 0.3354 0.9995 0.0000
vt 0.2763 0.9995 0.0000
vt 0.2763 0.9375 0.0000
vt 0.3415 0.2603 0.0000
vt 0.3415 0.6846 0.0000
vt 0.1090 0.6972 0.0000
vt 0.1090 0.6846 0.0000
vt 0.1090 0.2477 0.0000
vt 0.1090 0.0539 0.0000
vt 0.3415 0.6972 0.0000
vt 0.3415 0.8910 0.0000
vt 0.2641 0.0196 0.0000
vt 0.2763 0.0074 0.0000
vt 0.3354 0.0074 0.0000
vt 0.3415 0.0135 0.0000
vt 0.2020 0.0539 0.0000
vt 0.2020 0.0196 0.0000
vt 0.3415 0.9314 0.0000
vt 0.2641 0.9253 0.0000
vt 0.4035 0.0135 0.0000
vt 0.3810 0.4415 0.0000
vt 0.3810 0.5035 0.0000
vt 0.3761 0.2603 0.0000
vt 0.3758 0.6972 0.0000
vt 0.3758 0.7593 0.0000
vt 0.3415 0.7593 0.0000
vt 0.3761 0.6846 0.0000
vt 0.0686 0.9530 0.0000
vt 0.0686 0.8910 0.0000
vt 0.0747 0.2477 0.0000
vt 0.0686 0.0539 0.0000
vt 0.0747 0.6972 0.0000
vt 0.0747 0.6352 0.0000
vt 0.1090 0.6352 0.0000
vt 0.3976 0.7593 0.0000
vt 0.3976 0.6972 0.0000
vt 0.0529 0.6352 0.0000
vt 0.0529 0.6972 0.0000
vt 0.2641 0.0005 0.0000
vt 0.2020 0.0005 0.0000
vt 0.0577 0.8910 0.0000
vt 0.0577 0.9530 0.0000
vt 0.4035 0.0043 0.0000
vt 0.3415 0.0043 0.0000
vt 0.0625 0.8849 0.0000
vt 0.0625 0.7094 0.0000
vt 0.3880 0.5035 0.0000
vt 0.3880 0.6850 0.0000
vt 0.0470 0.2477 0.0000
vt 0.3758 0.2477 0.0000
# 90 texture coords

o 25x15x4_Brick_Version2_Lowpoly
g 25x15x4_Brick_Version2_Lowpoly
usemtl Material__110
f 1/1/1 2/2/2 3/3/2 4/4/1 
f 5/5/3 6/6/4 7/7/5 8/8/6 
f 2/2/2 9/9/7 10/10/7 3/3/2 
f 11/11/8 12/12/9 13/13/10 14/14/11 
f 4/4/1 15/15/12 16/16/12 1/1/1 
f 17/17/13 18/18/14 19/19/15 20/20/16 
f 8/21/6 21/22/7 22/23/7 5/24/3 
f 23/25/17 24/26/18 25/27/19 26/28/20 
f 6/6/4 27/29/12 28/30/12 7/7/5 
f 29/31/21 30/32/22 31/33/23 32/34/24 
f 11/35/8 14/14/11 2/2/2 1/1/1 
f 33/36/2 34/37/1 4/4/1 3/3/2 
f 35/38/3 36/39/4 6/6/4 5/5/3 
f 37/40/25 38/41/26 39/42/27 40/43/28 
f 14/14/11 13/13/10 9/9/7 2/2/2 
f 32/34/24 41/44/7 10/10/7 21/22/7 
f 34/37/1 42/45/12 15/15/12 4/4/1 
f 43/46/29 12/47/9 16/16/12 27/29/12 
f 29/31/21 32/34/24 21/22/7 8/21/6 
f 44/48/30 35/49/3 5/24/3 22/23/7 
f 36/39/4 43/46/29 27/29/12 6/6/4 
f 31/50/23 30/51/22 7/7/5 28/30/12 
f 45/52/18 39/53/27 38/54/26 46/55/31 
f 7/56/5 47/57/17 45/52/18 8/21/6 
f 48/58/32 37/40/25 40/43/28 47/59/17 
f 29/31/21 46/55/31 48/60/32 30/32/22 
f 33/36/2 49/61/2 50/62/1 34/37/1 
f 18/18/14 17/17/13 49/61/2 51/63/7 
f 31/50/23 52/64/33 53/65/34 32/66/24 
f 34/37/1 50/62/1 54/67/12 42/45/12 
f 35/38/3 55/68/27 56/69/28 36/39/4 
f 57/70/35 25/27/19 24/26/18 55/71/27 
f 43/46/29 58/72/36 57/73/35 44/74/30 
f 36/39/4 56/69/28 58/72/36 43/46/29 
f 18/75/14 53/65/34 52/64/33 19/76/15 
f 25/77/19 57/73/35 58/72/36 26/78/20 
f 39/79/27 45/52/18 47/57/17 40/80/28 
f 23/81/17 56/69/28 55/68/27 24/82/18 
f 37/83/25 48/60/32 46/55/31 38/84/26 
f 46/55/31 29/31/21 8/21/6 45/52/18 
f 47/59/17 7/7/5 30/51/22 48/58/32 
f 56/69/28 23/85/17 26/86/20 58/72/36 
f 55/71/27 35/49/3 44/48/30 57/70/35 
f 49/61/2 17/17/13 20/87/16 50/62/1 
f 49/61/2 33/36/2 41/44/7 51/63/7 
f 19/88/15 52/64/33 54/67/12 
f 9/9/7 22/23/7 21/22/7 10/10/7 
f 12/12/9 43/89/29 44/48/30 13/13/10 
f 15/15/12 28/30/12 27/29/12 16/16/12 
f 13/13/10 44/48/30 22/23/7 9/9/7 
f 41/44/7 33/36/2 3/3/2 10/10/7 
f 42/45/12 31/50/23 28/30/12 15/15/12 
f 12/47/9 11/35/8 1/1/1 16/16/12 
f 54/67/12 52/64/33 31/50/23 42/45/12 
f 41/44/7 32/34/24 53/90/34 51/63/7 
f 51/63/7 53/90/34 18/18/14 
f 54/67/12 50/62/1 20/87/16 19/88/15 
# 55 polygons - 2 triangles

