# 3ds Max Wavefront OBJ Exporter v0.97b - (c)2007 guruware
# File Created: 03.07.2020 11:25:25

mtllib ChunkyBrokenWall07_Lowpoly.mtl

#
# object ChunkyBrokenWall07_Lowpoly
#

v  21.8422 0.0000 17.1483
v  21.8422 0.0000 12.8730
v  21.8422 11.3054 12.8730
v  21.8422 11.7773 17.1483
v  21.8422 0.0000 12.0863
v  21.8422 10.4182 12.0863
v  11.9356 0.0000 17.1483
v  14.0351 0.0000 17.1483
v  14.0351 11.6022 17.1483
v  11.9356 9.8863 17.1483
v  17.7619 0.0000 17.1483
v  17.7619 10.2835 17.1483
v  8.5623 11.2510 17.1483
v  8.5623 0.0000 17.1483
v  20.3823 11.3054 12.8730
v  20.3823 0.0000 12.8730
v  20.3823 0.0000 15.6460
v  20.3823 11.7773 15.6460
v  20.3823 0.0000 10.1000
v  20.3823 0.0000 12.0863
v  20.3823 10.4182 12.0863
v  20.3823 9.5310 10.1000
v  14.0351 11.6022 15.6460
v  14.0351 0.0000 15.6460
v  11.9356 0.0000 15.6460
v  11.9356 9.8863 15.6460
v  17.7619 10.2835 15.6460
v  17.7619 0.0000 15.6460
v  8.5623 0.0000 15.6460
v  8.5623 11.2510 15.6460
v  21.8474 12.4460 16.5583
v  21.8474 12.0444 12.9210
v  20.3876 12.0529 12.9198
v  20.3876 12.4172 15.0601
v  21.8422 0.0000 10.1000
v  21.8422 9.5310 10.1000
v  14.2293 12.6238 17.1483
v  16.9463 12.6742 17.1483
v  16.9463 12.6742 15.6460
v  14.2293 12.6238 15.6460
v  8.7561 11.7164 17.1483
v  11.7006 11.7149 17.1483
v  11.7006 11.7149 15.6460
v  8.7561 11.7164 15.6460
v  17.7390 11.9071 17.1483
v  13.9857 12.3589 17.1483
v  17.7390 11.9071 15.6460
v  13.9857 12.3589 15.6460
v  11.9575 11.4542 17.1483
v  8.5551 11.5097 17.1483
v  11.9575 11.4542 15.6460
v  8.5551 11.5097 15.6460
v  21.8464 11.8841 12.7955
v  21.8438 12.0087 17.1173
v  20.3866 11.8841 12.7955
v  20.3840 12.0087 15.6151
# 56 vertices

vn 0.5774 -0.5774 0.5774
vn 0.7071 -0.7071 -0.0000
vn 0.8136 0.1670 -0.5569
vn 0.5301 0.2846 0.7987
vn 0.7578 0.5262 -0.3858
vn 0.0000 -0.7071 0.7071
vn -0.5170 0.2248 0.8259
vn 0.1035 0.2143 0.9713
vn 0.1578 0.2601 0.9526
vn -0.7039 -0.0098 0.7103
vn -0.5774 -0.5774 0.5774
vn -0.8139 0.1721 -0.5549
vn -0.7071 -0.7071 0.0000
vn -0.3015 -0.9045 -0.3015
vn -0.9105 0.3953 0.1211
vn -0.5774 -0.5774 -0.5774
vn -0.7579 0.5261 -0.3858
vn -0.6027 0.4342 -0.6695
vn -0.5170 0.2248 -0.8259
vn 0.0000 -0.7071 -0.7071
vn 0.1035 0.2143 -0.9713
vn 0.1453 0.2542 -0.9562
vn -0.7039 -0.0098 -0.7103
vn 0.4661 0.8003 0.3772
vn 0.6340 0.6747 -0.3779
vn -0.6270 0.6640 -0.4074
vn -0.6418 0.7665 0.0238
vn 0.5774 -0.5774 -0.5774
vn 0.6027 0.4342 -0.6695
vn -0.3193 0.7094 0.6284
vn 0.2846 0.7225 0.6301
vn 0.2846 0.7225 -0.6301
vn -0.3193 0.7094 -0.6284
vn -0.3022 0.7162 0.6291
vn 0.3001 0.7165 0.6297
vn 0.3001 0.7165 -0.6297
vn -0.3022 0.7162 -0.6291
vn 0.7128 0.3081 0.6301
vn -0.7336 0.2588 0.6283
vn 0.7128 0.3081 -0.6301
vn -0.7336 0.2588 -0.6283
vn 0.7208 0.2896 0.6297
vn -0.7242 0.2824 0.6291
vn 0.7208 0.2896 -0.6297
vn -0.7242 0.2824 -0.6291
vn 0.6304 0.2008 -0.7499
vn 0.3382 0.4073 0.8484
vn -0.6305 0.1954 -0.7512
vn -0.8588 0.3162 0.4030
# 49 vertex normals

vt 0.4955 0.0005 0.0000
vt 0.6533 0.0005 0.0000
vt 0.6533 0.4178 0.0000
vt 0.4955 0.4352 0.0000
vt 0.6823 0.0005 0.0000
vt 0.6823 0.3850 0.0000
vt 0.1298 0.0005 0.0000
vt 0.2073 0.0005 0.0000
vt 0.2073 0.4287 0.0000
vt 0.1298 0.3654 0.0000
vt 0.3449 0.0005 0.0000
vt 0.3449 0.3801 0.0000
vt 0.0053 0.4158 0.0000
vt 0.0053 0.0005 0.0000
vt 0.1019 0.8851 0.0000
vt 0.1082 0.4678 0.0000
vt 0.2106 0.4693 0.0000
vt 0.2029 0.9041 0.0000
vt 0.0059 0.4662 0.0000
vt 0.0792 0.4673 0.0000
vt 0.0733 0.8519 0.0000
vt 0.0005 0.8180 0.0000
vt 0.4384 0.9012 0.0000
vt 0.4449 0.4729 0.0000
vt 0.5224 0.4741 0.0000
vt 0.5168 0.8390 0.0000
vt 0.3015 0.8504 0.0000
vt 0.3073 0.4708 0.0000
vt 0.6469 0.4760 0.0000
vt 0.6406 0.8913 0.0000
vt 0.7946 0.9364 0.0000
vt 0.9524 0.9364 0.0000
vt 0.8970 0.9903 0.0000
vt 0.7946 0.9903 0.0000
vt 0.8296 0.2824 0.0000
vt 0.8215 0.1457 0.0000
vt 0.8768 0.1432 0.0000
vt 0.8788 0.2277 0.0000
vt 0.6923 0.9364 0.0000
vt 0.7656 0.9364 0.0000
vt 0.7656 0.9903 0.0000
vt 0.6923 0.9903 0.0000
vt 0.7556 0.3523 0.0000
vt 0.7556 0.0005 0.0000
vt 0.8095 0.0005 0.0000
vt 0.8095 0.3523 0.0000
vt 0.8199 0.1255 0.0000
vt 0.8178 0.0796 0.0000
vt 0.8742 0.0771 0.0000
vt 0.8763 0.1229 0.0000
vt 0.9874 0.2932 0.0000
vt 0.9874 0.3707 0.0000
vt 0.9319 0.3707 0.0000
vt 0.9319 0.2932 0.0000
vt 0.4967 0.9991 0.0000
vt 0.3896 0.9995 0.0000
vt 0.3896 0.9402 0.0000
vt 0.4967 0.9405 0.0000
vt 0.9874 0.1556 0.0000
vt 0.9319 0.1556 0.0000
vt 0.3628 0.9988 0.0000
vt 0.2582 0.9988 0.0000
vt 0.2582 0.9409 0.0000
vt 0.3628 0.9409 0.0000
vt 0.9874 0.0050 0.0000
vt 0.9319 0.0589 0.0000
vt 0.1684 0.9965 0.0000
vt 0.0115 0.9947 0.0000
vt 0.0595 0.9392 0.0000
vt 0.6804 0.9988 0.0000
vt 0.5670 0.9988 0.0000
vt 0.5670 0.9409 0.0000
vt 0.6804 0.9409 0.0000
vt 0.9874 0.4952 0.0000
vt 0.9319 0.4952 0.0000
vt 0.3440 0.4400 0.0000
vt 0.2055 0.4567 0.0000
vt 0.1684 0.9432 0.0000
vt 0.2276 0.9417 0.0000
vt 0.2276 0.9980 0.0000
vt 0.4398 0.9292 0.0000
vt 0.4306 0.9388 0.0000
vt 0.3303 0.9391 0.0000
vt 0.3015 0.9104 0.0000
vt 0.3722 0.9991 0.0000
vt 0.3722 0.9405 0.0000
vt 0.1306 0.4233 0.0000
vt 0.0050 0.4253 0.0000
vt 0.5571 0.9409 0.0000
vt 0.5571 0.9988 0.0000
vt 0.6406 0.9009 0.0000
vt 0.6332 0.9084 0.0000
vt 0.5245 0.9067 0.0000
vt 0.5151 0.8969 0.0000
vt 0.6960 0.8922 0.0000
vt 0.7024 0.4769 0.0000
vt 0.6561 0.4391 0.0000
vt 0.6515 0.4451 0.0000
vt 0.5172 0.4599 0.0000
vt 0.4966 0.4437 0.0000
vt 0.8766 0.1377 0.0000
vt 0.8207 0.1402 0.0000
vt 0.2027 0.9126 0.0000
vt 0.1795 0.9273 0.0000
vt 0.1032 0.9127 0.0000
vt 0.0987 0.9064 0.0000
vt 0.0050 0.9855 0.0000
vt 0.0514 0.9319 0.0000
vt 0.6881 0.9409 0.0000
vt 0.6881 0.9988 0.0000
vt 0.6959 0.9017 0.0000
vt 0.8144 0.0031 0.0000
vt 0.8708 0.0005 0.0000
vt 0.8744 0.2609 0.0000
vt 0.8300 0.3121 0.0000
vt 0.3147 0.4683 0.0000
vt 0.2145 0.4664 0.0000
vt 0.1211 0.4329 0.0000
vt 0.0124 0.4330 0.0000
# 119 texture coords

o ChunkyBrokenWall07_Lowpoly
g ChunkyBrokenWall07_Lowpoly
usemtl house_Material
s 1
f 1/1/1 2/2/2 3/3/3 4/4/4 
f 3/3/3 2/2/2 5/5/2 6/6/5 
s 2
f 7/7/6 8/8/6 9/9/7 10/10/8 
f 8/8/6 11/11/6 12/12/9 9/9/7 
f 11/11/6 1/1/1 4/4/4 12/12/9 
f 10/10/8 13/13/10 14/14/11 7/7/6 
s 1
f 15/15/12 16/16/13 17/17/14 18/18/15 
f 19/19/16 20/20/13 21/21/17 22/22/18 
s 2
f 23/23/19 24/24/20 25/25/20 26/26/21 
f 27/27/22 28/28/20 24/24/20 23/23/19 
f 18/18/15 17/17/14 28/28/20 27/27/22 
f 29/29/16 30/30/23 26/26/21 25/25/20 
s 4
f 2/31/2 1/32/1 17/33/14 16/34/13 
s 2
f 31/35/24 32/36/25 33/37/26 34/38/27 
s 4
f 35/39/28 5/40/2 20/41/13 19/42/16 
s 2
f 36/43/29 35/44/28 19/45/16 22/46/18 
s 4
f 3/47/3 6/48/5 21/49/17 15/50/12 
f 8/51/6 7/52/6 25/53/20 24/54/20 
s 1
f 10/55/8 9/56/7 23/57/19 26/58/21 
s 4
f 11/59/6 8/51/6 24/54/20 28/60/20 
s 1
f 37/61/30 38/62/31 39/63/32 40/64/33 
s 4
f 1/65/1 11/59/6 28/60/20 17/66/14 
f 12/67/9 4/68/4 18/69/15 
s 1
f 41/70/34 42/71/35 43/72/36 44/73/37 
s 4
f 7/52/6 14/74/11 29/75/16 25/53/20 
s 2
f 9/9/7 12/12/9 45/76/38 46/77/39 
s 1
f 12/67/9 27/78/22 47/79/40 45/80/38 
s 2
f 48/81/41 40/82/33 39/83/32 47/84/40 
s 4
f 23/57/19 9/56/7 46/85/39 48/86/41 
s 2
f 13/13/10 10/10/8 49/87/42 50/88/43 
s 4
f 10/55/8 26/58/21 51/89/44 49/90/42 
s 2
f 52/91/45 44/92/37 43/93/36 51/94/44 
s 4
f 18/69/15 27/78/22 12/67/9 
f 38/62/31 45/80/38 47/79/40 39/63/32 
s 8
f 40/64/33 48/86/41 46/85/39 37/61/30 
f 42/71/35 49/90/42 51/89/44 43/72/36 
s 1
f 13/95/10 30/30/23 29/29/16 14/96/11 
f 53/97/46 32/98/25 31/99/24 54/100/47 
s 2
f 3/47/3 15/50/12 55/101/48 53/102/46 
s 1
f 56/103/49 34/104/27 33/105/26 55/106/48 
s 8
f 18/69/15 4/68/4 54/107/47 56/108/49 
s 4
f 44/73/37 52/109/45 50/110/43 41/70/34 
s 1
f 13/95/10 50/111/43 52/91/45 30/30/23 
f 5/5/2 35/44/28 36/43/29 6/6/5 
f 20/20/13 16/16/13 15/15/12 21/21/17 
s 4
f 5/40/2 2/31/2 16/34/13 20/41/13 
f 6/48/5 36/112/29 22/113/18 21/49/17 
f 32/36/25 53/102/46 55/101/48 33/37/26 
f 34/38/27 56/114/49 54/115/47 31/35/24 
s 2
f 47/84/40 27/27/22 23/23/19 48/81/41 
f 51/94/44 26/26/21 30/30/23 52/91/45 
f 45/76/38 38/116/31 37/117/30 46/77/39 
f 49/87/42 42/118/35 41/119/34 50/88/43 
s 1
f 54/100/47 4/4/4 3/3/3 53/97/46 
f 55/106/48 15/15/12 18/18/15 56/103/49 
# 53 polygons - 2 triangles

